<svg xmlns="http://www.w3.org/2000/svg" xmlns:xlink="http://www.w3.org/1999/xlink" width="32" zoomAndPan="magnify" viewBox="0 0 375 374.999991" height="32" preserveAspectRatio="xMidYMid meet" version="1.0"><defs><clipPath id="3db49a3f2b"><path d="M 9 9 L 366 9 L 366 366 L 9 366 Z M 9 9 " clip-rule="nonzero"/></clipPath><clipPath id="76f0942b8d"><path d="M -62.359375 127.417969 L 247.855469 -62.53125 L 437.804688 247.683594 L 127.585938 437.632812 Z M -62.359375 127.417969 " clip-rule="nonzero"/></clipPath><clipPath id="8ad187aa0c"><path d="M -62.359375 127.417969 L 247.855469 -62.53125 L 437.804688 247.683594 L 127.585938 437.632812 Z M -62.359375 127.417969 " clip-rule="nonzero"/></clipPath><clipPath id="6cf0f2bda5"><path d="M -62.359375 127.417969 L 247.855469 -62.53125 L 437.804688 247.683594 L 127.585938 437.632812 Z M -62.359375 127.417969 " clip-rule="nonzero"/></clipPath><clipPath id="2cb8f2b9da"><path d="M 5 5 L 370 5 L 370 370 L 5 370 Z M 5 5 " clip-rule="nonzero"/></clipPath><clipPath id="87daee555c"><path d="M -62.359375 127.417969 L 247.855469 -62.53125 L 437.804688 247.683594 L 127.585938 437.632812 Z M -62.359375 127.417969 " clip-rule="nonzero"/></clipPath><clipPath id="78190b6b4b"><path d="M -62.359375 127.417969 L 247.855469 -62.53125 L 437.804688 247.683594 L 127.585938 437.632812 Z M -62.359375 127.417969 " clip-rule="nonzero"/></clipPath><clipPath id="57bb5d45a1"><path d="M -62.359375 127.417969 L 247.855469 -62.53125 L 437.804688 247.683594 L 127.585938 437.632812 Z M -62.359375 127.417969 " clip-rule="nonzero"/></clipPath><clipPath id="1483af15a2"><path d="M 40 40 L 335 40 L 335 335 L 40 335 Z M 40 40 " clip-rule="nonzero"/></clipPath><clipPath id="6e504410a3"><path d="M -62.359375 127.417969 L 247.855469 -62.53125 L 437.804688 247.683594 L 127.585938 437.632812 Z M -62.359375 127.417969 " clip-rule="nonzero"/></clipPath><clipPath id="bc0d2a207c"><path d="M -62.359375 127.417969 L 247.855469 -62.53125 L 437.804688 247.683594 L 127.585938 437.632812 Z M -62.359375 127.417969 " clip-rule="nonzero"/></clipPath><clipPath id="136931f54c"><path d="M -62.359375 127.417969 L 247.855469 -62.53125 L 437.804688 247.683594 L 127.585938 437.632812 Z M -62.359375 127.417969 " clip-rule="nonzero"/></clipPath><clipPath id="701aadc075"><path d="M 36 36 L 339 36 L 339 339 L 36 339 Z M 36 36 " clip-rule="nonzero"/></clipPath><clipPath id="3d69b4dc20"><path d="M -62.359375 127.417969 L 247.855469 -62.53125 L 437.804688 247.683594 L 127.585938 437.632812 Z M -62.359375 127.417969 " clip-rule="nonzero"/></clipPath><clipPath id="376fe13704"><path d="M -62.359375 127.417969 L 247.855469 -62.53125 L 437.804688 247.683594 L 127.585938 437.632812 Z M -62.359375 127.417969 " clip-rule="nonzero"/></clipPath><clipPath id="db160ce6c1"><path d="M -62.359375 127.417969 L 247.855469 -62.53125 L 437.804688 247.683594 L 127.585938 437.632812 Z M -62.359375 127.417969 " clip-rule="nonzero"/></clipPath><clipPath id="dc305d4be1"><path d="M 41 101 L 103 101 L 103 184 L 41 184 Z M 41 101 " clip-rule="nonzero"/></clipPath><clipPath id="ecb92c9711"><path d="M -62.359375 127.417969 L 247.855469 -62.53125 L 437.804688 247.683594 L 127.585938 437.632812 Z M -62.359375 127.417969 " clip-rule="nonzero"/></clipPath><clipPath id="56d2305b25"><path d="M -62.359375 127.417969 L 247.855469 -62.53125 L 437.804688 247.683594 L 127.585938 437.632812 Z M -62.359375 127.417969 " clip-rule="nonzero"/></clipPath><clipPath id="7238329fcf"><path d="M -62.359375 127.417969 L 247.855469 -62.53125 L 437.804688 247.683594 L 127.585938 437.632812 Z M -62.359375 127.417969 " clip-rule="nonzero"/></clipPath><clipPath id="e31596201d"><path d="M 37 97 L 107 97 L 107 188 L 37 188 Z M 37 97 " clip-rule="nonzero"/></clipPath><clipPath id="1c3b0bd53d"><path d="M -62.359375 127.417969 L 247.855469 -62.53125 L 437.804688 247.683594 L 127.585938 437.632812 Z M -62.359375 127.417969 " clip-rule="nonzero"/></clipPath><clipPath id="453d05ac6b"><path d="M -62.359375 127.417969 L 247.855469 -62.53125 L 437.804688 247.683594 L 127.585938 437.632812 Z M -62.359375 127.417969 " clip-rule="nonzero"/></clipPath><clipPath id="d3cf8c2bf1"><path d="M -62.359375 127.417969 L 247.855469 -62.53125 L 437.804688 247.683594 L 127.585938 437.632812 Z M -62.359375 127.417969 " clip-rule="nonzero"/></clipPath><clipPath id="b9b377dddc"><path d="M 158 40 L 243 40 L 243 94 L 158 94 Z M 158 40 " clip-rule="nonzero"/></clipPath><clipPath id="d9120ddc43"><path d="M -62.359375 127.417969 L 247.855469 -62.53125 L 437.804688 247.683594 L 127.585938 437.632812 Z M -62.359375 127.417969 " clip-rule="nonzero"/></clipPath><clipPath id="4225c86f14"><path d="M -62.359375 127.417969 L 247.855469 -62.53125 L 437.804688 247.683594 L 127.585938 437.632812 Z M -62.359375 127.417969 " clip-rule="nonzero"/></clipPath><clipPath id="17ca3acf9e"><path d="M -62.359375 127.417969 L 247.855469 -62.53125 L 437.804688 247.683594 L 127.585938 437.632812 Z M -62.359375 127.417969 " clip-rule="nonzero"/></clipPath><clipPath id="04305bb192"><path d="M 155 36 L 246 36 L 246 98 L 155 98 Z M 155 36 " clip-rule="nonzero"/></clipPath><clipPath id="fa6831c0f3"><path d="M -62.359375 127.417969 L 247.855469 -62.53125 L 437.804688 247.683594 L 127.585938 437.632812 Z M -62.359375 127.417969 " clip-rule="nonzero"/></clipPath><clipPath id="f7176d70a8"><path d="M -62.359375 127.417969 L 247.855469 -62.53125 L 437.804688 247.683594 L 127.585938 437.632812 Z M -62.359375 127.417969 " clip-rule="nonzero"/></clipPath><clipPath id="1156566372"><path d="M -62.359375 127.417969 L 247.855469 -62.53125 L 437.804688 247.683594 L 127.585938 437.632812 Z M -62.359375 127.417969 " clip-rule="nonzero"/></clipPath><clipPath id="69cf422bef"><path d="M 89 224 L 173 224 L 173 308 L 89 308 Z M 89 224 " clip-rule="nonzero"/></clipPath><clipPath id="a57fa76bd8"><path d="M -62.359375 127.417969 L 247.855469 -62.53125 L 437.804688 247.683594 L 127.585938 437.632812 Z M -62.359375 127.417969 " clip-rule="nonzero"/></clipPath><clipPath id="e900cf35b9"><path d="M -62.359375 127.417969 L 247.855469 -62.53125 L 437.804688 247.683594 L 127.585938 437.632812 Z M -62.359375 127.417969 " clip-rule="nonzero"/></clipPath><clipPath id="d744314822"><path d="M -62.359375 127.417969 L 247.855469 -62.53125 L 437.804688 247.683594 L 127.585938 437.632812 Z M -62.359375 127.417969 " clip-rule="nonzero"/></clipPath><clipPath id="f60a26d468"><path d="M 85 220 L 177 220 L 177 312 L 85 312 Z M 85 220 " clip-rule="nonzero"/></clipPath><clipPath id="af438ad302"><path d="M -62.359375 127.417969 L 247.855469 -62.53125 L 437.804688 247.683594 L 127.585938 437.632812 Z M -62.359375 127.417969 " clip-rule="nonzero"/></clipPath><clipPath id="d303a61c28"><path d="M -62.359375 127.417969 L 247.855469 -62.53125 L 437.804688 247.683594 L 127.585938 437.632812 Z M -62.359375 127.417969 " clip-rule="nonzero"/></clipPath><clipPath id="b84aac89f9"><path d="M -62.359375 127.417969 L 247.855469 -62.53125 L 437.804688 247.683594 L 127.585938 437.632812 Z M -62.359375 127.417969 " clip-rule="nonzero"/></clipPath><clipPath id="7562dff454"><path d="M 128 119 L 212 119 L 212 203 L 128 203 Z M 128 119 " clip-rule="nonzero"/></clipPath><clipPath id="e8f5cc49d1"><path d="M -62.359375 127.417969 L 247.855469 -62.53125 L 437.804688 247.683594 L 127.585938 437.632812 Z M -62.359375 127.417969 " clip-rule="nonzero"/></clipPath><clipPath id="fa3238ad36"><path d="M -62.359375 127.417969 L 247.855469 -62.53125 L 437.804688 247.683594 L 127.585938 437.632812 Z M -62.359375 127.417969 " clip-rule="nonzero"/></clipPath><clipPath id="606aa8ad67"><path d="M -62.359375 127.417969 L 247.855469 -62.53125 L 437.804688 247.683594 L 127.585938 437.632812 Z M -62.359375 127.417969 " clip-rule="nonzero"/></clipPath><clipPath id="24873f935d"><path d="M 124 115 L 216 115 L 216 207 L 124 207 Z M 124 115 " clip-rule="nonzero"/></clipPath><clipPath id="e99368ac34"><path d="M -62.359375 127.417969 L 247.855469 -62.53125 L 437.804688 247.683594 L 127.585938 437.632812 Z M -62.359375 127.417969 " clip-rule="nonzero"/></clipPath><clipPath id="6b1cd650c2"><path d="M -62.359375 127.417969 L 247.855469 -62.53125 L 437.804688 247.683594 L 127.585938 437.632812 Z M -62.359375 127.417969 " clip-rule="nonzero"/></clipPath><clipPath id="dfd4ef4429"><path d="M -62.359375 127.417969 L 247.855469 -62.53125 L 437.804688 247.683594 L 127.585938 437.632812 Z M -62.359375 127.417969 " clip-rule="nonzero"/></clipPath><clipPath id="0dfeae58a3"><path d="M 232 125 L 316 125 L 316 179 L 232 179 Z M 232 125 " clip-rule="nonzero"/></clipPath><clipPath id="d4d484a599"><path d="M -62.359375 127.417969 L 247.855469 -62.53125 L 437.804688 247.683594 L 127.585938 437.632812 Z M -62.359375 127.417969 " clip-rule="nonzero"/></clipPath><clipPath id="0e4d35ade7"><path d="M -62.359375 127.417969 L 247.855469 -62.53125 L 437.804688 247.683594 L 127.585938 437.632812 Z M -62.359375 127.417969 " clip-rule="nonzero"/></clipPath><clipPath id="846750bf46"><path d="M -62.359375 127.417969 L 247.855469 -62.53125 L 437.804688 247.683594 L 127.585938 437.632812 Z M -62.359375 127.417969 " clip-rule="nonzero"/></clipPath><clipPath id="d044150f4a"><path d="M 228 121 L 320 121 L 320 183 L 228 183 Z M 228 121 " clip-rule="nonzero"/></clipPath><clipPath id="e4e2729e6b"><path d="M -62.359375 127.417969 L 247.855469 -62.53125 L 437.804688 247.683594 L 127.585938 437.632812 Z M -62.359375 127.417969 " clip-rule="nonzero"/></clipPath><clipPath id="4d5b7ee154"><path d="M -62.359375 127.417969 L 247.855469 -62.53125 L 437.804688 247.683594 L 127.585938 437.632812 Z M -62.359375 127.417969 " clip-rule="nonzero"/></clipPath><clipPath id="cbd00cf8aa"><path d="M -62.359375 127.417969 L 247.855469 -62.53125 L 437.804688 247.683594 L 127.585938 437.632812 Z M -62.359375 127.417969 " clip-rule="nonzero"/></clipPath><clipPath id="eae06eb0a4"><path d="M 211 254 L 289 254 L 289 330 L 211 330 Z M 211 254 " clip-rule="nonzero"/></clipPath><clipPath id="2dbaba6886"><path d="M -62.359375 127.417969 L 247.855469 -62.53125 L 437.804688 247.683594 L 127.585938 437.632812 Z M -62.359375 127.417969 " clip-rule="nonzero"/></clipPath><clipPath id="bc7ac3e8ca"><path d="M -62.359375 127.417969 L 247.855469 -62.53125 L 437.804688 247.683594 L 127.585938 437.632812 Z M -62.359375 127.417969 " clip-rule="nonzero"/></clipPath><clipPath id="fabe4667b0"><path d="M -62.359375 127.417969 L 247.855469 -62.53125 L 437.804688 247.683594 L 127.585938 437.632812 Z M -62.359375 127.417969 " clip-rule="nonzero"/></clipPath><clipPath id="c1fc9eb31e"><path d="M 207 251 L 293 251 L 293 334 L 207 334 Z M 207 251 " clip-rule="nonzero"/></clipPath><clipPath id="9d9b2f3de9"><path d="M -62.359375 127.417969 L 247.855469 -62.53125 L 437.804688 247.683594 L 127.585938 437.632812 Z M -62.359375 127.417969 " clip-rule="nonzero"/></clipPath><clipPath id="d601ce974f"><path d="M -62.359375 127.417969 L 247.855469 -62.53125 L 437.804688 247.683594 L 127.585938 437.632812 Z M -62.359375 127.417969 " clip-rule="nonzero"/></clipPath><clipPath id="eebf2fcabd"><path d="M -62.359375 127.417969 L 247.855469 -62.53125 L 437.804688 247.683594 L 127.585938 437.632812 Z M -62.359375 127.417969 " clip-rule="nonzero"/></clipPath><clipPath id="d49477ad0e"><path d="M 64 203 L 98 203 L 98 224 L 64 224 Z M 64 203 " clip-rule="nonzero"/></clipPath><clipPath id="13f0b74b14"><path d="M -62.359375 127.417969 L 247.855469 -62.53125 L 437.804688 247.683594 L 127.585938 437.632812 Z M -62.359375 127.417969 " clip-rule="nonzero"/></clipPath><clipPath id="ea1102bdba"><path d="M -62.359375 127.417969 L 247.855469 -62.53125 L 437.804688 247.683594 L 127.585938 437.632812 Z M -62.359375 127.417969 " clip-rule="nonzero"/></clipPath><clipPath id="520df64d67"><path d="M -62.359375 127.417969 L 247.855469 -62.53125 L 437.804688 247.683594 L 127.585938 437.632812 Z M -62.359375 127.417969 " clip-rule="nonzero"/></clipPath><clipPath id="285ed1b814"><path d="M 60 199 L 102 199 L 102 228 L 60 228 Z M 60 199 " clip-rule="nonzero"/></clipPath><clipPath id="a837832297"><path d="M -62.359375 127.417969 L 247.855469 -62.53125 L 437.804688 247.683594 L 127.585938 437.632812 Z M -62.359375 127.417969 " clip-rule="nonzero"/></clipPath><clipPath id="9b239334cd"><path d="M -62.359375 127.417969 L 247.855469 -62.53125 L 437.804688 247.683594 L 127.585938 437.632812 Z M -62.359375 127.417969 " clip-rule="nonzero"/></clipPath><clipPath id="ff3edbc10e"><path d="M -62.359375 127.417969 L 247.855469 -62.53125 L 437.804688 247.683594 L 127.585938 437.632812 Z M -62.359375 127.417969 " clip-rule="nonzero"/></clipPath><clipPath id="c75216ea74"><path d="M 116 76 L 138 76 L 138 109 L 116 109 Z M 116 76 " clip-rule="nonzero"/></clipPath><clipPath id="5ea3377580"><path d="M -62.359375 127.417969 L 247.855469 -62.53125 L 437.804688 247.683594 L 127.585938 437.632812 Z M -62.359375 127.417969 " clip-rule="nonzero"/></clipPath><clipPath id="29c42eecfe"><path d="M -62.359375 127.417969 L 247.855469 -62.53125 L 437.804688 247.683594 L 127.585938 437.632812 Z M -62.359375 127.417969 " clip-rule="nonzero"/></clipPath><clipPath id="fdb1af3c5d"><path d="M -62.359375 127.417969 L 247.855469 -62.53125 L 437.804688 247.683594 L 127.585938 437.632812 Z M -62.359375 127.417969 " clip-rule="nonzero"/></clipPath><clipPath id="01c72ad7f8"><path d="M 112 72 L 142 72 L 142 113 L 112 113 Z M 112 72 " clip-rule="nonzero"/></clipPath><clipPath id="a2e5e50fb0"><path d="M -62.359375 127.417969 L 247.855469 -62.53125 L 437.804688 247.683594 L 127.585938 437.632812 Z M -62.359375 127.417969 " clip-rule="nonzero"/></clipPath><clipPath id="aab065c08a"><path d="M -62.359375 127.417969 L 247.855469 -62.53125 L 437.804688 247.683594 L 127.585938 437.632812 Z M -62.359375 127.417969 " clip-rule="nonzero"/></clipPath><clipPath id="6bf109fffa"><path d="M -62.359375 127.417969 L 247.855469 -62.53125 L 437.804688 247.683594 L 127.585938 437.632812 Z M -62.359375 127.417969 " clip-rule="nonzero"/></clipPath><clipPath id="383efee2a0"><path d="M 220 92 L 250 92 L 250 120 L 220 120 Z M 220 92 " clip-rule="nonzero"/></clipPath><clipPath id="ac23c4f934"><path d="M -62.359375 127.417969 L 247.855469 -62.53125 L 437.804688 247.683594 L 127.585938 437.632812 Z M -62.359375 127.417969 " clip-rule="nonzero"/></clipPath><clipPath id="e2c66709ef"><path d="M -62.359375 127.417969 L 247.855469 -62.53125 L 437.804688 247.683594 L 127.585938 437.632812 Z M -62.359375 127.417969 " clip-rule="nonzero"/></clipPath><clipPath id="0b94e0d49c"><path d="M -62.359375 127.417969 L 247.855469 -62.53125 L 437.804688 247.683594 L 127.585938 437.632812 Z M -62.359375 127.417969 " clip-rule="nonzero"/></clipPath><clipPath id="890e2cd599"><path d="M 216 88 L 254 88 L 254 124 L 216 124 Z M 216 88 " clip-rule="nonzero"/></clipPath><clipPath id="72a09330a6"><path d="M -62.359375 127.417969 L 247.855469 -62.53125 L 437.804688 247.683594 L 127.585938 437.632812 Z M -62.359375 127.417969 " clip-rule="nonzero"/></clipPath><clipPath id="723ca304b5"><path d="M -62.359375 127.417969 L 247.855469 -62.53125 L 437.804688 247.683594 L 127.585938 437.632812 Z M -62.359375 127.417969 " clip-rule="nonzero"/></clipPath><clipPath id="ee599629e1"><path d="M -62.359375 127.417969 L 247.855469 -62.53125 L 437.804688 247.683594 L 127.585938 437.632812 Z M -62.359375 127.417969 " clip-rule="nonzero"/></clipPath><clipPath id="6cc1777e3c"><path d="M 193 214 L 224 214 L 224 241 L 193 241 Z M 193 214 " clip-rule="nonzero"/></clipPath><clipPath id="2f16a13c5e"><path d="M -62.359375 127.417969 L 247.855469 -62.53125 L 437.804688 247.683594 L 127.585938 437.632812 Z M -62.359375 127.417969 " clip-rule="nonzero"/></clipPath><clipPath id="4499e29c9a"><path d="M -62.359375 127.417969 L 247.855469 -62.53125 L 437.804688 247.683594 L 127.585938 437.632812 Z M -62.359375 127.417969 " clip-rule="nonzero"/></clipPath><clipPath id="547162f602"><path d="M -62.359375 127.417969 L 247.855469 -62.53125 L 437.804688 247.683594 L 127.585938 437.632812 Z M -62.359375 127.417969 " clip-rule="nonzero"/></clipPath><clipPath id="c593d91ced"><path d="M 189 210 L 228 210 L 228 244 L 189 244 Z M 189 210 " clip-rule="nonzero"/></clipPath><clipPath id="29b65d1c41"><path d="M -62.359375 127.417969 L 247.855469 -62.53125 L 437.804688 247.683594 L 127.585938 437.632812 Z M -62.359375 127.417969 " clip-rule="nonzero"/></clipPath><clipPath id="bd137519ed"><path d="M -62.359375 127.417969 L 247.855469 -62.53125 L 437.804688 247.683594 L 127.585938 437.632812 Z M -62.359375 127.417969 " clip-rule="nonzero"/></clipPath><clipPath id="718279c4f6"><path d="M -62.359375 127.417969 L 247.855469 -62.53125 L 437.804688 247.683594 L 127.585938 437.632812 Z M -62.359375 127.417969 " clip-rule="nonzero"/></clipPath><clipPath id="342850eb3f"><path d="M 171 276 L 197 276 L 197 307 L 171 307 Z M 171 276 " clip-rule="nonzero"/></clipPath><clipPath id="d151a2a4df"><path d="M -62.359375 127.417969 L 247.855469 -62.53125 L 437.804688 247.683594 L 127.585938 437.632812 Z M -62.359375 127.417969 " clip-rule="nonzero"/></clipPath><clipPath id="f139d44952"><path d="M -62.359375 127.417969 L 247.855469 -62.53125 L 437.804688 247.683594 L 127.585938 437.632812 Z M -62.359375 127.417969 " clip-rule="nonzero"/></clipPath><clipPath id="fbe6567699"><path d="M -62.359375 127.417969 L 247.855469 -62.53125 L 437.804688 247.683594 L 127.585938 437.632812 Z M -62.359375 127.417969 " clip-rule="nonzero"/></clipPath><clipPath id="9c55e3ccc7"><path d="M 167 272 L 201 272 L 201 311 L 167 311 Z M 167 272 " clip-rule="nonzero"/></clipPath><clipPath id="7439508436"><path d="M -62.359375 127.417969 L 247.855469 -62.53125 L 437.804688 247.683594 L 127.585938 437.632812 Z M -62.359375 127.417969 " clip-rule="nonzero"/></clipPath><clipPath id="da7e26883e"><path d="M -62.359375 127.417969 L 247.855469 -62.53125 L 437.804688 247.683594 L 127.585938 437.632812 Z M -62.359375 127.417969 " clip-rule="nonzero"/></clipPath><clipPath id="44c0ecd96a"><path d="M -62.359375 127.417969 L 247.855469 -62.53125 L 437.804688 247.683594 L 127.585938 437.632812 Z M -62.359375 127.417969 " clip-rule="nonzero"/></clipPath><clipPath id="1826c0b35f"><path d="M 142 145 L 153 145 L 153 165 L 142 165 Z M 142 145 " clip-rule="nonzero"/></clipPath><clipPath id="eec60751d0"><path d="M -62.359375 127.417969 L 247.855469 -62.53125 L 437.804688 247.683594 L 127.585938 437.632812 Z M -62.359375 127.417969 " clip-rule="nonzero"/></clipPath><clipPath id="e9f6107714"><path d="M -62.359375 127.417969 L 247.855469 -62.53125 L 437.804688 247.683594 L 127.585938 437.632812 Z M -62.359375 127.417969 " clip-rule="nonzero"/></clipPath><clipPath id="d6a2da212c"><path d="M -62.359375 127.417969 L 247.855469 -62.53125 L 437.804688 247.683594 L 127.585938 437.632812 Z M -62.359375 127.417969 " clip-rule="nonzero"/></clipPath><clipPath id="c646326422"><path d="M 181 148 L 201 148 L 201 159 L 181 159 Z M 181 148 " clip-rule="nonzero"/></clipPath><clipPath id="e27f52f910"><path d="M -62.359375 127.417969 L 247.855469 -62.53125 L 437.804688 247.683594 L 127.585938 437.632812 Z M -62.359375 127.417969 " clip-rule="nonzero"/></clipPath><clipPath id="33a44288ba"><path d="M -62.359375 127.417969 L 247.855469 -62.53125 L 437.804688 247.683594 L 127.585938 437.632812 Z M -62.359375 127.417969 " clip-rule="nonzero"/></clipPath><clipPath id="a545e46396"><path d="M -62.359375 127.417969 L 247.855469 -62.53125 L 437.804688 247.683594 L 127.585938 437.632812 Z M -62.359375 127.417969 " clip-rule="nonzero"/></clipPath><clipPath id="0916eebf7f"><path d="M 166 129 L 186 129 L 186 141 L 166 141 Z M 166 129 " clip-rule="nonzero"/></clipPath><clipPath id="d5e62c6b58"><path d="M -62.359375 127.417969 L 247.855469 -62.53125 L 437.804688 247.683594 L 127.585938 437.632812 Z M -62.359375 127.417969 " clip-rule="nonzero"/></clipPath><clipPath id="3b55fbe315"><path d="M -62.359375 127.417969 L 247.855469 -62.53125 L 437.804688 247.683594 L 127.585938 437.632812 Z M -62.359375 127.417969 " clip-rule="nonzero"/></clipPath><clipPath id="6b74624289"><path d="M -62.359375 127.417969 L 247.855469 -62.53125 L 437.804688 247.683594 L 127.585938 437.632812 Z M -62.359375 127.417969 " clip-rule="nonzero"/></clipPath><clipPath id="d8c023b833"><path d="M 159 148 L 176 148 L 176 166 L 159 166 Z M 159 148 " clip-rule="nonzero"/></clipPath><clipPath id="f38a65cf2b"><path d="M -62.359375 127.417969 L 247.855469 -62.53125 L 437.804688 247.683594 L 127.585938 437.632812 Z M -62.359375 127.417969 " clip-rule="nonzero"/></clipPath><clipPath id="5d9eb2dad1"><path d="M -62.359375 127.417969 L 247.855469 -62.53125 L 437.804688 247.683594 L 127.585938 437.632812 Z M -62.359375 127.417969 " clip-rule="nonzero"/></clipPath><clipPath id="82d94ed32c"><path d="M -62.359375 127.417969 L 247.855469 -62.53125 L 437.804688 247.683594 L 127.585938 437.632812 Z M -62.359375 127.417969 " clip-rule="nonzero"/></clipPath><clipPath id="e84053ea3f"><path d="M 149 177 L 169 177 L 169 186 L 149 186 Z M 149 177 " clip-rule="nonzero"/></clipPath><clipPath id="30ad97e6ec"><path d="M -62.359375 127.417969 L 247.855469 -62.53125 L 437.804688 247.683594 L 127.585938 437.632812 Z M -62.359375 127.417969 " clip-rule="nonzero"/></clipPath><clipPath id="1b6fc3647d"><path d="M -62.359375 127.417969 L 247.855469 -62.53125 L 437.804688 247.683594 L 127.585938 437.632812 Z M -62.359375 127.417969 " clip-rule="nonzero"/></clipPath><clipPath id="135d661799"><path d="M -62.359375 127.417969 L 247.855469 -62.53125 L 437.804688 247.683594 L 127.585938 437.632812 Z M -62.359375 127.417969 " clip-rule="nonzero"/></clipPath><clipPath id="100b950546"><path d="M 179 168 L 191 168 L 191 188 L 179 188 Z M 179 168 " clip-rule="nonzero"/></clipPath><clipPath id="2a30f2fc52"><path d="M -62.359375 127.417969 L 247.855469 -62.53125 L 437.804688 247.683594 L 127.585938 437.632812 Z M -62.359375 127.417969 " clip-rule="nonzero"/></clipPath><clipPath id="0507e87d9f"><path d="M -62.359375 127.417969 L 247.855469 -62.53125 L 437.804688 247.683594 L 127.585938 437.632812 Z M -62.359375 127.417969 " clip-rule="nonzero"/></clipPath><clipPath id="f723cf68a5"><path d="M -62.359375 127.417969 L 247.855469 -62.53125 L 437.804688 247.683594 L 127.585938 437.632812 Z M -62.359375 127.417969 " clip-rule="nonzero"/></clipPath><clipPath id="bb66c146a8"><path d="M 102 251 L 113 251 L 113 272 L 102 272 Z M 102 251 " clip-rule="nonzero"/></clipPath><clipPath id="77025a3347"><path d="M -62.359375 127.417969 L 247.855469 -62.53125 L 437.804688 247.683594 L 127.585938 437.632812 Z M -62.359375 127.417969 " clip-rule="nonzero"/></clipPath><clipPath id="27be3b3e59"><path d="M -62.359375 127.417969 L 247.855469 -62.53125 L 437.804688 247.683594 L 127.585938 437.632812 Z M -62.359375 127.417969 " clip-rule="nonzero"/></clipPath><clipPath id="f99f7989fa"><path d="M -62.359375 127.417969 L 247.855469 -62.53125 L 437.804688 247.683594 L 127.585938 437.632812 Z M -62.359375 127.417969 " clip-rule="nonzero"/></clipPath><clipPath id="ab8db60e8f"><path d="M 142 254 L 162 254 L 162 266 L 142 266 Z M 142 254 " clip-rule="nonzero"/></clipPath><clipPath id="aa3e1fc2b4"><path d="M -62.359375 127.417969 L 247.855469 -62.53125 L 437.804688 247.683594 L 127.585938 437.632812 Z M -62.359375 127.417969 " clip-rule="nonzero"/></clipPath><clipPath id="d1b8e5876c"><path d="M -62.359375 127.417969 L 247.855469 -62.53125 L 437.804688 247.683594 L 127.585938 437.632812 Z M -62.359375 127.417969 " clip-rule="nonzero"/></clipPath><clipPath id="5d09eb0983"><path d="M -62.359375 127.417969 L 247.855469 -62.53125 L 437.804688 247.683594 L 127.585938 437.632812 Z M -62.359375 127.417969 " clip-rule="nonzero"/></clipPath><clipPath id="2a4d091fb3"><path d="M 126 236 L 146 236 L 146 248 L 126 248 Z M 126 236 " clip-rule="nonzero"/></clipPath><clipPath id="0a3a4f8659"><path d="M -62.359375 127.417969 L 247.855469 -62.53125 L 437.804688 247.683594 L 127.585938 437.632812 Z M -62.359375 127.417969 " clip-rule="nonzero"/></clipPath><clipPath id="2d1863b808"><path d="M -62.359375 127.417969 L 247.855469 -62.53125 L 437.804688 247.683594 L 127.585938 437.632812 Z M -62.359375 127.417969 " clip-rule="nonzero"/></clipPath><clipPath id="675b0ee43e"><path d="M -62.359375 127.417969 L 247.855469 -62.53125 L 437.804688 247.683594 L 127.585938 437.632812 Z M -62.359375 127.417969 " clip-rule="nonzero"/></clipPath><clipPath id="66e2b326a4"><path d="M 120 255 L 136 255 L 136 273 L 120 273 Z M 120 255 " clip-rule="nonzero"/></clipPath><clipPath id="ac634d67dc"><path d="M -62.359375 127.417969 L 247.855469 -62.53125 L 437.804688 247.683594 L 127.585938 437.632812 Z M -62.359375 127.417969 " clip-rule="nonzero"/></clipPath><clipPath id="4ac3c794fb"><path d="M -62.359375 127.417969 L 247.855469 -62.53125 L 437.804688 247.683594 L 127.585938 437.632812 Z M -62.359375 127.417969 " clip-rule="nonzero"/></clipPath><clipPath id="4e6a82b251"><path d="M -62.359375 127.417969 L 247.855469 -62.53125 L 437.804688 247.683594 L 127.585938 437.632812 Z M -62.359375 127.417969 " clip-rule="nonzero"/></clipPath><clipPath id="5ce7ce7e1f"><path d="M 109 283 L 130 283 L 130 293 L 109 293 Z M 109 283 " clip-rule="nonzero"/></clipPath><clipPath id="c89403d272"><path d="M -62.359375 127.417969 L 247.855469 -62.53125 L 437.804688 247.683594 L 127.585938 437.632812 Z M -62.359375 127.417969 " clip-rule="nonzero"/></clipPath><clipPath id="7df438b97e"><path d="M -62.359375 127.417969 L 247.855469 -62.53125 L 437.804688 247.683594 L 127.585938 437.632812 Z M -62.359375 127.417969 " clip-rule="nonzero"/></clipPath><clipPath id="61462c4ef7"><path d="M -62.359375 127.417969 L 247.855469 -62.53125 L 437.804688 247.683594 L 127.585938 437.632812 Z M -62.359375 127.417969 " clip-rule="nonzero"/></clipPath><clipPath id="86e2fffdf1"><path d="M 140 275 L 152 275 L 152 295 L 140 295 Z M 140 275 " clip-rule="nonzero"/></clipPath><clipPath id="59c9c681da"><path d="M -62.359375 127.417969 L 247.855469 -62.53125 L 437.804688 247.683594 L 127.585938 437.632812 Z M -62.359375 127.417969 " clip-rule="nonzero"/></clipPath><clipPath id="7248204d36"><path d="M -62.359375 127.417969 L 247.855469 -62.53125 L 437.804688 247.683594 L 127.585938 437.632812 Z M -62.359375 127.417969 " clip-rule="nonzero"/></clipPath><clipPath id="d6321b1b52"><path d="M -62.359375 127.417969 L 247.855469 -62.53125 L 437.804688 247.683594 L 127.585938 437.632812 Z M -62.359375 127.417969 " clip-rule="nonzero"/></clipPath><clipPath id="e5ba9b6c64"><path d="M 223 280 L 234 280 L 234 300 L 223 300 Z M 223 280 " clip-rule="nonzero"/></clipPath><clipPath id="707f294894"><path d="M -62.359375 127.417969 L 247.855469 -62.53125 L 437.804688 247.683594 L 127.585938 437.632812 Z M -62.359375 127.417969 " clip-rule="nonzero"/></clipPath><clipPath id="0cd03f518d"><path d="M -62.359375 127.417969 L 247.855469 -62.53125 L 437.804688 247.683594 L 127.585938 437.632812 Z M -62.359375 127.417969 " clip-rule="nonzero"/></clipPath><clipPath id="849a357e8d"><path d="M -62.359375 127.417969 L 247.855469 -62.53125 L 437.804688 247.683594 L 127.585938 437.632812 Z M -62.359375 127.417969 " clip-rule="nonzero"/></clipPath><clipPath id="76b812cbbf"><path d="M 262 283 L 283 283 L 283 295 L 262 295 Z M 262 283 " clip-rule="nonzero"/></clipPath><clipPath id="1b9d86caf8"><path d="M -62.359375 127.417969 L 247.855469 -62.53125 L 437.804688 247.683594 L 127.585938 437.632812 Z M -62.359375 127.417969 " clip-rule="nonzero"/></clipPath><clipPath id="758f8b4480"><path d="M -62.359375 127.417969 L 247.855469 -62.53125 L 437.804688 247.683594 L 127.585938 437.632812 Z M -62.359375 127.417969 " clip-rule="nonzero"/></clipPath><clipPath id="81ef89b480"><path d="M -62.359375 127.417969 L 247.855469 -62.53125 L 437.804688 247.683594 L 127.585938 437.632812 Z M -62.359375 127.417969 " clip-rule="nonzero"/></clipPath><clipPath id="b758b1c9b9"><path d="M 247 264 L 267 264 L 267 277 L 247 277 Z M 247 264 " clip-rule="nonzero"/></clipPath><clipPath id="a07cfcaf08"><path d="M -62.359375 127.417969 L 247.855469 -62.53125 L 437.804688 247.683594 L 127.585938 437.632812 Z M -62.359375 127.417969 " clip-rule="nonzero"/></clipPath><clipPath id="e9483fa6f5"><path d="M -62.359375 127.417969 L 247.855469 -62.53125 L 437.804688 247.683594 L 127.585938 437.632812 Z M -62.359375 127.417969 " clip-rule="nonzero"/></clipPath><clipPath id="5163774299"><path d="M -62.359375 127.417969 L 247.855469 -62.53125 L 437.804688 247.683594 L 127.585938 437.632812 Z M -62.359375 127.417969 " clip-rule="nonzero"/></clipPath><clipPath id="7cec9ffc12"><path d="M 240 284 L 257 284 L 257 301 L 240 301 Z M 240 284 " clip-rule="nonzero"/></clipPath><clipPath id="f0025db729"><path d="M -62.359375 127.417969 L 247.855469 -62.53125 L 437.804688 247.683594 L 127.585938 437.632812 Z M -62.359375 127.417969 " clip-rule="nonzero"/></clipPath><clipPath id="c0bba48cb8"><path d="M -62.359375 127.417969 L 247.855469 -62.53125 L 437.804688 247.683594 L 127.585938 437.632812 Z M -62.359375 127.417969 " clip-rule="nonzero"/></clipPath><clipPath id="34dcf53208"><path d="M -62.359375 127.417969 L 247.855469 -62.53125 L 437.804688 247.683594 L 127.585938 437.632812 Z M -62.359375 127.417969 " clip-rule="nonzero"/></clipPath><clipPath id="71852b99d1"><path d="M 230 312 L 250 312 L 250 322 L 230 322 Z M 230 312 " clip-rule="nonzero"/></clipPath><clipPath id="ca2e30acd4"><path d="M -62.359375 127.417969 L 247.855469 -62.53125 L 437.804688 247.683594 L 127.585938 437.632812 Z M -62.359375 127.417969 " clip-rule="nonzero"/></clipPath><clipPath id="e44ec9332f"><path d="M -62.359375 127.417969 L 247.855469 -62.53125 L 437.804688 247.683594 L 127.585938 437.632812 Z M -62.359375 127.417969 " clip-rule="nonzero"/></clipPath><clipPath id="32e9639586"><path d="M -62.359375 127.417969 L 247.855469 -62.53125 L 437.804688 247.683594 L 127.585938 437.632812 Z M -62.359375 127.417969 " clip-rule="nonzero"/></clipPath><clipPath id="ae72b75d42"><path d="M 262 304 L 272 304 L 272 314 L 262 314 Z M 262 304 " clip-rule="nonzero"/></clipPath><clipPath id="dbd92367cf"><path d="M -62.359375 127.417969 L 247.855469 -62.53125 L 437.804688 247.683594 L 127.585938 437.632812 Z M -62.359375 127.417969 " clip-rule="nonzero"/></clipPath><clipPath id="bbc2f64b7d"><path d="M -62.359375 127.417969 L 247.855469 -62.53125 L 437.804688 247.683594 L 127.585938 437.632812 Z M -62.359375 127.417969 " clip-rule="nonzero"/></clipPath><clipPath id="47c9bc0204"><path d="M -62.359375 127.417969 L 247.855469 -62.53125 L 437.804688 247.683594 L 127.585938 437.632812 Z M -62.359375 127.417969 " clip-rule="nonzero"/></clipPath><clipPath id="93cb96288a"><path d="M 245 151 L 256 151 L 256 172 L 245 172 Z M 245 151 " clip-rule="nonzero"/></clipPath><clipPath id="3db6a21bfb"><path d="M -62.359375 127.417969 L 247.855469 -62.53125 L 437.804688 247.683594 L 127.585938 437.632812 Z M -62.359375 127.417969 " clip-rule="nonzero"/></clipPath><clipPath id="c8c61fc28b"><path d="M -62.359375 127.417969 L 247.855469 -62.53125 L 437.804688 247.683594 L 127.585938 437.632812 Z M -62.359375 127.417969 " clip-rule="nonzero"/></clipPath><clipPath id="08f29c1f35"><path d="M -62.359375 127.417969 L 247.855469 -62.53125 L 437.804688 247.683594 L 127.585938 437.632812 Z M -62.359375 127.417969 " clip-rule="nonzero"/></clipPath><clipPath id="8535bda8d0"><path d="M 285 155 L 305 155 L 305 166 L 285 166 Z M 285 155 " clip-rule="nonzero"/></clipPath><clipPath id="8c3e3533b0"><path d="M -62.359375 127.417969 L 247.855469 -62.53125 L 437.804688 247.683594 L 127.585938 437.632812 Z M -62.359375 127.417969 " clip-rule="nonzero"/></clipPath><clipPath id="6f62edfbd6"><path d="M -62.359375 127.417969 L 247.855469 -62.53125 L 437.804688 247.683594 L 127.585938 437.632812 Z M -62.359375 127.417969 " clip-rule="nonzero"/></clipPath><clipPath id="8ce5d9e00d"><path d="M -62.359375 127.417969 L 247.855469 -62.53125 L 437.804688 247.683594 L 127.585938 437.632812 Z M -62.359375 127.417969 " clip-rule="nonzero"/></clipPath><clipPath id="cf1c8b82c1"><path d="M 269 136 L 289 136 L 289 148 L 269 148 Z M 269 136 " clip-rule="nonzero"/></clipPath><clipPath id="f6f580335f"><path d="M -62.359375 127.417969 L 247.855469 -62.53125 L 437.804688 247.683594 L 127.585938 437.632812 Z M -62.359375 127.417969 " clip-rule="nonzero"/></clipPath><clipPath id="db07aca857"><path d="M -62.359375 127.417969 L 247.855469 -62.53125 L 437.804688 247.683594 L 127.585938 437.632812 Z M -62.359375 127.417969 " clip-rule="nonzero"/></clipPath><clipPath id="60f5561974"><path d="M -62.359375 127.417969 L 247.855469 -62.53125 L 437.804688 247.683594 L 127.585938 437.632812 Z M -62.359375 127.417969 " clip-rule="nonzero"/></clipPath><clipPath id="3e1f17cac6"><path d="M 263 155 L 279 155 L 279 173 L 263 173 Z M 263 155 " clip-rule="nonzero"/></clipPath><clipPath id="4e2267d5b6"><path d="M -62.359375 127.417969 L 247.855469 -62.53125 L 437.804688 247.683594 L 127.585938 437.632812 Z M -62.359375 127.417969 " clip-rule="nonzero"/></clipPath><clipPath id="884741a2d3"><path d="M -62.359375 127.417969 L 247.855469 -62.53125 L 437.804688 247.683594 L 127.585938 437.632812 Z M -62.359375 127.417969 " clip-rule="nonzero"/></clipPath><clipPath id="13df6f9d4f"><path d="M -62.359375 127.417969 L 247.855469 -62.53125 L 437.804688 247.683594 L 127.585938 437.632812 Z M -62.359375 127.417969 " clip-rule="nonzero"/></clipPath><clipPath id="24cbf4ccd9"><path d="M 72 130 L 92 130 L 92 142 L 72 142 Z M 72 130 " clip-rule="nonzero"/></clipPath><clipPath id="87316fe66e"><path d="M -62.359375 127.417969 L 247.855469 -62.53125 L 437.804688 247.683594 L 127.585938 437.632812 Z M -62.359375 127.417969 " clip-rule="nonzero"/></clipPath><clipPath id="1d56d4db5a"><path d="M -62.359375 127.417969 L 247.855469 -62.53125 L 437.804688 247.683594 L 127.585938 437.632812 Z M -62.359375 127.417969 " clip-rule="nonzero"/></clipPath><clipPath id="6046667de4"><path d="M -62.359375 127.417969 L 247.855469 -62.53125 L 437.804688 247.683594 L 127.585938 437.632812 Z M -62.359375 127.417969 " clip-rule="nonzero"/></clipPath><clipPath id="98c5be0550"><path d="M 56 111 L 76 111 L 76 124 L 56 124 Z M 56 111 " clip-rule="nonzero"/></clipPath><clipPath id="a0c181fe96"><path d="M -62.359375 127.417969 L 247.855469 -62.53125 L 437.804688 247.683594 L 127.585938 437.632812 Z M -62.359375 127.417969 " clip-rule="nonzero"/></clipPath><clipPath id="24aeb3a073"><path d="M -62.359375 127.417969 L 247.855469 -62.53125 L 437.804688 247.683594 L 127.585938 437.632812 Z M -62.359375 127.417969 " clip-rule="nonzero"/></clipPath><clipPath id="2ff3e274f3"><path d="M -62.359375 127.417969 L 247.855469 -62.53125 L 437.804688 247.683594 L 127.585938 437.632812 Z M -62.359375 127.417969 " clip-rule="nonzero"/></clipPath><clipPath id="a62a08438a"><path d="M 50 131 L 67 131 L 67 148 L 50 148 Z M 50 131 " clip-rule="nonzero"/></clipPath><clipPath id="bcd15a68aa"><path d="M -62.359375 127.417969 L 247.855469 -62.53125 L 437.804688 247.683594 L 127.585938 437.632812 Z M -62.359375 127.417969 " clip-rule="nonzero"/></clipPath><clipPath id="6bdde6e1b8"><path d="M -62.359375 127.417969 L 247.855469 -62.53125 L 437.804688 247.683594 L 127.585938 437.632812 Z M -62.359375 127.417969 " clip-rule="nonzero"/></clipPath><clipPath id="f2ec6ae6d0"><path d="M -62.359375 127.417969 L 247.855469 -62.53125 L 437.804688 247.683594 L 127.585938 437.632812 Z M -62.359375 127.417969 " clip-rule="nonzero"/></clipPath><clipPath id="a12cddb651"><path d="M 39 159 L 60 159 L 60 169 L 39 169 Z M 39 159 " clip-rule="nonzero"/></clipPath><clipPath id="e84aa7c4ef"><path d="M -62.359375 127.417969 L 247.855469 -62.53125 L 437.804688 247.683594 L 127.585938 437.632812 Z M -62.359375 127.417969 " clip-rule="nonzero"/></clipPath><clipPath id="28ce85b9fe"><path d="M -62.359375 127.417969 L 247.855469 -62.53125 L 437.804688 247.683594 L 127.585938 437.632812 Z M -62.359375 127.417969 " clip-rule="nonzero"/></clipPath><clipPath id="ea4328fb8d"><path d="M -62.359375 127.417969 L 247.855469 -62.53125 L 437.804688 247.683594 L 127.585938 437.632812 Z M -62.359375 127.417969 " clip-rule="nonzero"/></clipPath><clipPath id="3018080f7f"><path d="M 70 151 L 82 151 L 82 171 L 70 171 Z M 70 151 " clip-rule="nonzero"/></clipPath><clipPath id="88fa745119"><path d="M -62.359375 127.417969 L 247.855469 -62.53125 L 437.804688 247.683594 L 127.585938 437.632812 Z M -62.359375 127.417969 " clip-rule="nonzero"/></clipPath><clipPath id="859b259811"><path d="M -62.359375 127.417969 L 247.855469 -62.53125 L 437.804688 247.683594 L 127.585938 437.632812 Z M -62.359375 127.417969 " clip-rule="nonzero"/></clipPath><clipPath id="0b5be00e81"><path d="M -62.359375 127.417969 L 247.855469 -62.53125 L 437.804688 247.683594 L 127.585938 437.632812 Z M -62.359375 127.417969 " clip-rule="nonzero"/></clipPath><clipPath id="2847b1f9dd"><path d="M 173 40 L 183 40 L 183 57 L 173 57 Z M 173 40 " clip-rule="nonzero"/></clipPath><clipPath id="72ec302b6d"><path d="M -62.359375 127.417969 L 247.855469 -62.53125 L 437.804688 247.683594 L 127.585938 437.632812 Z M -62.359375 127.417969 " clip-rule="nonzero"/></clipPath><clipPath id="3fe9d87e99"><path d="M -62.359375 127.417969 L 247.855469 -62.53125 L 437.804688 247.683594 L 127.585938 437.632812 Z M -62.359375 127.417969 " clip-rule="nonzero"/></clipPath><clipPath id="7c99af3eb0"><path d="M -62.359375 127.417969 L 247.855469 -62.53125 L 437.804688 247.683594 L 127.585938 437.632812 Z M -62.359375 127.417969 " clip-rule="nonzero"/></clipPath><clipPath id="f2a9e55e1a"><path d="M 212 44 L 231 44 L 231 51 L 212 51 Z M 212 44 " clip-rule="nonzero"/></clipPath><clipPath id="3a50afc7d1"><path d="M -62.359375 127.417969 L 247.855469 -62.53125 L 437.804688 247.683594 L 127.585938 437.632812 Z M -62.359375 127.417969 " clip-rule="nonzero"/></clipPath><clipPath id="87c1fe976a"><path d="M -62.359375 127.417969 L 247.855469 -62.53125 L 437.804688 247.683594 L 127.585938 437.632812 Z M -62.359375 127.417969 " clip-rule="nonzero"/></clipPath><clipPath id="58fd127366"><path d="M -62.359375 127.417969 L 247.855469 -62.53125 L 437.804688 247.683594 L 127.585938 437.632812 Z M -62.359375 127.417969 " clip-rule="nonzero"/></clipPath><clipPath id="a01dc63884"><path d="M 190 41 L 207 41 L 207 58 L 190 58 Z M 190 41 " clip-rule="nonzero"/></clipPath><clipPath id="c0d63899bf"><path d="M -62.359375 127.417969 L 247.855469 -62.53125 L 437.804688 247.683594 L 127.585938 437.632812 Z M -62.359375 127.417969 " clip-rule="nonzero"/></clipPath><clipPath id="ba74f6567b"><path d="M -62.359375 127.417969 L 247.855469 -62.53125 L 437.804688 247.683594 L 127.585938 437.632812 Z M -62.359375 127.417969 " clip-rule="nonzero"/></clipPath><clipPath id="23e44c4629"><path d="M -62.359375 127.417969 L 247.855469 -62.53125 L 437.804688 247.683594 L 127.585938 437.632812 Z M -62.359375 127.417969 " clip-rule="nonzero"/></clipPath><clipPath id="38104b3090"><path d="M 180 69 L 200 69 L 200 78 L 180 78 Z M 180 69 " clip-rule="nonzero"/></clipPath><clipPath id="dcc443b405"><path d="M -62.359375 127.417969 L 247.855469 -62.53125 L 437.804688 247.683594 L 127.585938 437.632812 Z M -62.359375 127.417969 " clip-rule="nonzero"/></clipPath><clipPath id="30b645b7f4"><path d="M -62.359375 127.417969 L 247.855469 -62.53125 L 437.804688 247.683594 L 127.585938 437.632812 Z M -62.359375 127.417969 " clip-rule="nonzero"/></clipPath><clipPath id="33af352c53"><path d="M -62.359375 127.417969 L 247.855469 -62.53125 L 437.804688 247.683594 L 127.585938 437.632812 Z M -62.359375 127.417969 " clip-rule="nonzero"/></clipPath><clipPath id="57c425d0fe"><path d="M 210 60 L 222 60 L 222 80 L 210 80 Z M 210 60 " clip-rule="nonzero"/></clipPath><clipPath id="5b262c75fb"><path d="M -62.359375 127.417969 L 247.855469 -62.53125 L 437.804688 247.683594 L 127.585938 437.632812 Z M -62.359375 127.417969 " clip-rule="nonzero"/></clipPath><clipPath id="ac97bbb202"><path d="M -62.359375 127.417969 L 247.855469 -62.53125 L 437.804688 247.683594 L 127.585938 437.632812 Z M -62.359375 127.417969 " clip-rule="nonzero"/></clipPath><clipPath id="2cdbf92f8f"><path d="M -62.359375 127.417969 L 247.855469 -62.53125 L 437.804688 247.683594 L 127.585938 437.632812 Z M -62.359375 127.417969 " clip-rule="nonzero"/></clipPath></defs><g clip-path="url(#3db49a3f2b)"><g clip-path="url(#76f0942b8d)"><g clip-path="url(#8ad187aa0c)"><g clip-path="url(#6cf0f2bda5)"><path fill="#efbc3d" d="M 183.144531 178.632812 L 365.390625 177.386719 C 363.773438 148.992188 355.34375 120.589844 339.457031 94.640625 C 288.140625 10.835938 178.617188 -15.5 94.8125 35.816406 C 11.003906 87.121094 -15.328125 196.65625 35.984375 280.460938 C 87.292969 364.265625 196.828125 390.597656 280.628906 339.285156 C 291.042969 332.910156 300.574219 325.636719 309.175781 317.628906 L 183.144531 178.632812 " fill-opacity="1" fill-rule="nonzero"/></g></g></g></g><g clip-path="url(#2cb8f2b9da)"><g clip-path="url(#87daee555c)"><g clip-path="url(#78190b6b4b)"><g clip-path="url(#57bb5d45a1)"><path stroke-linecap="round" transform="matrix(0.133829, -0.0819451, -0.0819451, -0.133829, 77.416317, 646.285206)" fill="none" stroke-linejoin="round" d="M 2130.800834 2189.68968 L 3125.388951 1590.001645 C 3211.08857 1749.697148 3259.790717 1932.105057 3259.803339 2125.995874 C 3259.794019 2752.209531 2752.187192 3259.899502 2126.007763 3259.898412 C 1499.794107 3259.889091 992.197282 2752.196041 992.185373 2125.995383 C 992.152236 1499.807724 1499.811058 992.202669 2125.990487 992.20376 C 2203.809453 992.160484 2279.803923 1000.006081 2353.197887 1014.902232 Z M 2130.800834 2189.68968 " stroke="#000000" stroke-width="50" stroke-opacity="1" stroke-miterlimit="10"/></g></g></g></g><g clip-path="url(#1483af15a2)"><g clip-path="url(#6e504410a3)"><g clip-path="url(#bc0d2a207c)"><g clip-path="url(#136931f54c)"><path fill="#faf5a3" d="M 312.984375 110.847656 C 325.808594 131.792969 332.722656 154.683594 334.261719 177.605469 L 314.328125 177.742188 L 234.34375 178.285156 L 183.152344 178.644531 L 252.339844 254.945312 L 288.304688 294.601562 C 286.507812 296.292969 284.660156 297.9375 282.769531 299.535156 C 281.824219 300.335938 280.871094 301.121094 279.902344 301.917969 L 279.890625 301.925781 C 277.953125 303.480469 275.957031 304.996094 273.921875 306.480469 C 272.898438 307.21875 271.871094 307.941406 270.820312 308.65625 C 270.050781 309.203125 269.261719 309.71875 268.460938 310.246094 C 268.070312 310.507812 267.6875 310.757812 267.289062 311.003906 C 266.339844 311.621094 265.386719 312.222656 264.421875 312.8125 C 252.429688 320.15625 239.796875 325.574219 226.894531 329.148438 C 165.34375 346.210938 97.472656 321.433594 62.457031 264.25 C 46.125 237.578125 39.324219 207.71875 41.113281 178.695312 C 42.792969 150.964844 52.3125 123.992188 68.84375 101.230469 C 79.871094 86.03125 94.011719 72.699219 111.019531 62.285156 C 126.519531 52.796875 143.066406 46.527344 159.925781 43.289062 C 187.675781 37.945312 216.210938 40.824219 242.035156 51.082031 C 270.535156 62.410156 295.742188 82.691406 312.984375 110.847656 " fill-opacity="1" fill-rule="nonzero"/></g></g></g></g><g clip-path="url(#701aadc075)"><g clip-path="url(#3d69b4dc20)"><g clip-path="url(#376fe13704)"><g clip-path="url(#db160ce6c1)"><path stroke-linecap="round" transform="matrix(0.133829, -0.0819451, -0.0819451, -0.133829, 77.416317, 646.285206)" fill="none" stroke-linejoin="round" d="M 3062.001926 2126.009557 C 3061.997218 1969.504235 3023.399538 1822.094064 2955.48669 1692.400441 L 2846.699871 1757.99042 L 2410.206934 2021.203488 L 2130.804296 2189.599995 L 2252.907276 1544.697733 L 2316.399117 1209.500215 C 2301.005262 1206.287494 2285.491415 1203.498506 2269.900034 1201.107253 C 2262.097845 1199.901013 2254.305192 1198.805686 2246.388627 1197.698667 L 2246.298942 1197.695205 C 2230.5958 1195.693458 2214.70421 1194.098984 2198.70432 1192.804331 C 2190.685531 1192.197732 2182.697507 1191.689047 2174.608107 1191.300814 C 2168.606148 1190.889515 2162.589036 1190.691813 2156.495238 1190.511878 C 2153.501411 1190.389414 2150.589039 1190.304639 2147.60475 1190.293089 C 2140.392276 1190.097613 2133.210568 1190.000051 2126.004169 1190.005174 C 2036.393187 1190.000941 1949.70906 1202.594438 1867.695573 1226.104967 C 1476.410516 1338.198921 1190.007247 1698.709363 1189.999786 2126.00293 C 1189.997079 2325.302988 1252.400302 2510.208824 1358.704466 2661.987231 C 1460.111606 2807.102788 1601.603685 2922.01127 1767.189183 2990.701945 C 1877.697222 3036.608514 1998.898381 3061.986304 2125.997542 3062.007313 C 2241.808569 3061.993353 2352.597951 3041.002968 2454.99857 3002.498932 C 2623.592157 2939.196637 2769.09026 2828.59442 2875.300623 2686.911704 C 2992.49121 2530.508034 3061.992402 2336.405381 3062.001926 2126.009557 Z M 3062.001926 2126.009557 " stroke="#000000" stroke-width="50" stroke-opacity="1" stroke-miterlimit="10"/></g></g></g></g><g clip-path="url(#dc305d4be1)"><g clip-path="url(#ecb92c9711)"><g clip-path="url(#56d2305b25)"><g clip-path="url(#7238329fcf)"><path fill="#ef3638" d="M 95.957031 120.234375 C 107.945312 139.8125 101.804688 165.394531 82.226562 177.382812 C 69.257812 185.324219 53.660156 185.304688 41.113281 178.695312 C 42.792969 150.964844 52.3125 123.992188 68.84375 101.230469 C 79.734375 103.449219 89.695312 110.007812 95.957031 120.234375 " fill-opacity="1" fill-rule="nonzero"/></g></g></g></g><g clip-path="url(#e31596201d)"><g clip-path="url(#1c3b0bd53d)"><g clip-path="url(#453d05ac6b)"><g clip-path="url(#d3cf8c2bf1)"><path stroke-linecap="round" transform="matrix(0.133829, -0.0819451, -0.0819451, -0.133829, 77.416317, 646.285206)" fill="none" stroke-linejoin="round" d="M 1851.300768 2797.197767 C 1851.302631 2650.904362 1732.801264 2532.30944 1586.507859 2532.307577 C 1489.600794 2532.305005 1404.898177 2584.315452 1358.704466 2661.987231 C 1460.111606 2807.102788 1601.603685 2922.01127 1767.189183 2990.701945 C 1818.992452 2942.403123 1851.301514 2873.612543 1851.300768 2797.197767 Z M 1851.300768 2797.197767 " stroke="#000000" stroke-width="50" stroke-opacity="1" stroke-miterlimit="10"/></g></g></g></g><g clip-path="url(#b9b377dddc)"><g clip-path="url(#d9120ddc43)"><g clip-path="url(#4225c86f14)"><g clip-path="url(#17ca3acf9e)"><path fill="#ef3638" d="M 242.035156 51.082031 C 242.417969 65.441406 235.339844 79.601562 222.210938 87.640625 C 202.628906 99.628906 177.039062 93.476562 165.058594 73.910156 C 159.214844 64.367188 157.683594 53.421875 159.925781 43.289062 C 187.675781 37.945312 216.210938 40.824219 242.035156 51.082031 " fill-opacity="1" fill-rule="nonzero"/></g></g></g></g><g clip-path="url(#04305bb192)"><g clip-path="url(#fa6831c0f3)"><g clip-path="url(#f7176d70a8)"><g clip-path="url(#1156566372)"><path stroke-linecap="round" transform="matrix(0.133829, -0.0819451, -0.0819451, -0.133829, 77.416317, 646.285206)" fill="none" stroke-linejoin="round" d="M 2875.300623 2686.911704 C 2829.597396 2607.599819 2744.009616 2554.198367 2645.907189 2554.19802 C 2499.592555 2554.209157 2380.994172 2672.800207 2380.995771 2819.003928 C 2381.014461 2890.299746 2409.094146 2954.892092 2454.99857 3002.498932 C 2623.592157 2939.196637 2769.09026 2828.59442 2875.300623 2686.911704 Z M 2875.300623 2686.911704 " stroke="#000000" stroke-width="50" stroke-opacity="1" stroke-miterlimit="10"/></g></g></g></g><g clip-path="url(#69cf422bef)"><g clip-path="url(#a57fa76bd8)"><g clip-path="url(#e900cf35b9)"><g clip-path="url(#d744314822)"><path fill="#ef3638" d="M 166.59375 244.609375 C 178.582031 264.191406 172.441406 289.773438 152.863281 301.761719 C 133.285156 313.75 107.691406 307.597656 95.703125 288.015625 C 83.722656 268.449219 89.878906 242.859375 109.457031 230.871094 C 129.035156 218.882812 154.613281 225.042969 166.59375 244.609375 " fill-opacity="1" fill-rule="nonzero"/></g></g></g></g><g clip-path="url(#f60a26d468)"><g clip-path="url(#af438ad302)"><g clip-path="url(#d303a61c28)"><g clip-path="url(#b84aac89f9)"><path stroke-linecap="round" transform="matrix(0.133829, -0.0819451, -0.0819451, -0.133829, 77.416317, 646.285206)" fill="none" stroke-linejoin="round" d="M 1821.303208 1886.20698 C 1821.292072 1739.892346 1702.790706 1621.297424 1556.497301 1621.295561 C 1410.203896 1621.293699 1291.584284 1739.897748 1291.59542 1886.212383 C 1291.597018 2032.416103 1410.209298 2151.001487 1556.502704 2151.00335 C 1702.796109 2151.005213 1821.304807 2032.4107 1821.303208 1886.20698 Z M 1821.303208 1886.20698 " stroke="#000000" stroke-width="50" stroke-opacity="1" stroke-miterlimit="10"/></g></g></g></g><g clip-path="url(#7562dff454)"><g clip-path="url(#e8f5cc49d1)"><g clip-path="url(#fa3238ad36)"><g clip-path="url(#606aa8ad67)"><path fill="#ef3638" d="M 205.15625 139.394531 C 217.144531 158.972656 210.980469 184.550781 191.402344 196.539062 C 171.835938 208.519531 146.253906 202.378906 134.265625 182.800781 C 122.277344 163.21875 128.4375 137.640625 148.003906 125.664062 C 167.585938 113.671875 193.167969 119.8125 205.15625 139.394531 " fill-opacity="1" fill-rule="nonzero"/></g></g></g></g><g clip-path="url(#24873f935d)"><g clip-path="url(#e99368ac34)"><g clip-path="url(#6b1cd650c2)"><g clip-path="url(#dfd4ef4429)"><path stroke-linecap="round" transform="matrix(0.133829, -0.0819451, -0.0819451, -0.133829, 77.416317, 646.285206)" fill="none" stroke-linejoin="round" d="M 2380.999731 2329.687153 C 2381.001594 2183.393748 2262.385852 2064.898048 2116.092447 2064.896186 C 1969.888727 2064.897784 1851.293805 2183.399151 1851.291943 2329.692556 C 1851.303079 2476.00719 1969.897591 2594.515888 2116.088313 2594.49306 C 2262.415946 2594.503153 2381.010867 2476.001787 2380.999731 2329.687153 Z M 2380.999731 2329.687153 " stroke="#000000" stroke-width="50" stroke-opacity="1" stroke-miterlimit="10"/></g></g></g></g><g clip-path="url(#0dfeae58a3)"><g clip-path="url(#d4d484a599)"><g clip-path="url(#0e4d35ade7)"><g clip-path="url(#846750bf46)"><path fill="#ef3638" d="M 309.695312 145.027344 C 315.941406 155.222656 317.261719 167.058594 314.328125 177.742188 L 234.34375 178.285156 C 229.234375 160.75 236.21875 141.292969 252.546875 131.296875 C 272.125 119.308594 297.714844 125.460938 309.695312 145.027344 " fill-opacity="1" fill-rule="nonzero"/></g></g></g></g><g clip-path="url(#d044150f4a)"><g clip-path="url(#e4e2729e6b)"><g clip-path="url(#4d5b7ee154)"><g clip-path="url(#cbd00cf8aa)"><path stroke-linecap="round" transform="matrix(0.133829, -0.0819451, -0.0819451, -0.133829, 77.416317, 646.285206)" fill="none" stroke-linejoin="round" d="M 2930.387358 1951.200348 C 2930.405686 1875.007399 2898.194672 1806.289765 2846.699871 1757.99042 L 2410.206934 2021.203488 C 2440.79105 2133.50317 2543.495737 2216.00319 2665.497169 2215.993256 C 2811.790574 2215.995119 2930.388957 2097.404068 2930.387358 1951.200348 Z M 2930.387358 1951.200348 " stroke="#000000" stroke-width="50" stroke-opacity="1" stroke-miterlimit="10"/></g></g></g></g><g clip-path="url(#eae06eb0a4)"><g clip-path="url(#2dbaba6886)"><g clip-path="url(#bc7ac3e8ca)"><g clip-path="url(#fabe4667b0)"><path fill="#ef3638" d="M 288.304688 294.601562 C 286.515625 296.304688 284.667969 297.949219 282.769531 299.535156 C 281.824219 300.335938 280.871094 301.121094 279.902344 301.917969 L 279.890625 301.925781 C 277.953125 303.480469 275.964844 305.007812 273.921875 306.480469 C 272.898438 307.21875 271.871094 307.941406 270.820312 308.65625 C 270.050781 309.203125 269.261719 309.71875 268.460938 310.246094 C 268.070312 310.507812 267.6875 310.757812 267.289062 311.003906 C 266.339844 311.621094 265.386719 312.222656 264.421875 312.8125 C 252.429688 320.15625 239.796875 325.574219 226.894531 329.148438 C 223.132812 326.191406 219.824219 322.53125 217.179688 318.207031 C 205.191406 298.628906 211.351562 273.050781 230.929688 261.0625 C 237.621094 256.964844 245.023438 254.988281 252.339844 254.945312 L 288.304688 294.601562 " fill-opacity="1" fill-rule="nonzero"/></g></g></g></g><g clip-path="url(#c1fc9eb31e)"><g clip-path="url(#9d9b2f3de9)"><g clip-path="url(#d601ce974f)"><g clip-path="url(#eebf2fcabd)"><path stroke-linecap="round" transform="matrix(0.133829, -0.0819451, -0.0819451, -0.133829, 77.416317, 646.285206)" fill="none" stroke-linejoin="round" d="M 2316.399117 1209.500215 C 2301.008724 1206.197809 2285.494877 1203.408821 2269.900034 1201.107253 C 2262.097845 1199.901013 2254.305192 1198.805686 2246.388627 1197.698667 L 2246.298942 1197.695205 C 2230.5958 1195.693458 2214.707672 1194.0093 2198.70432 1192.804331 C 2190.685531 1192.197732 2182.697507 1191.689047 2174.608107 1191.300814 C 2168.606148 1190.889515 2162.602035 1190.713042 2156.495238 1190.511878 C 2153.501411 1190.389414 2150.589039 1190.304639 2147.60475 1190.293089 C 2140.392276 1190.097613 2133.210568 1190.000051 2126.004169 1190.005174 C 2036.393187 1190.000941 1949.70906 1202.594438 1867.695573 1226.104967 C 1857.092104 1254.693228 1851.290993 1285.594854 1851.308621 1317.89562 C 1851.306758 1464.189025 1969.901271 1582.697723 2116.194676 1582.699586 C 2166.19581 1582.701879 2213.002271 1568.81101 2252.907276 1544.697733 Z M 2316.399117 1209.500215 " stroke="#000000" stroke-width="50" stroke-opacity="1" stroke-miterlimit="10"/></g></g></g></g><g clip-path="url(#d49477ad0e)"><g clip-path="url(#13f0b74b14)"><g clip-path="url(#ea1102bdba)"><g clip-path="url(#520df64d67)"><path fill="#7dcd52" d="M 97.089844 210.675781 C 95.179688 219.574219 86.433594 225.246094 77.527344 223.355469 C 68.628906 221.441406 62.960938 212.695312 64.863281 203.785156 L 97.089844 210.675781 " fill-opacity="1" fill-rule="nonzero"/></g></g></g></g><g clip-path="url(#285ed1b814)"><g clip-path="url(#a837832297)"><g clip-path="url(#9b239334cd)"><g clip-path="url(#ff3edbc10e)"><path stroke-linecap="round" transform="matrix(0.133829, -0.0819451, -0.0819451, -0.133829, 77.416317, 646.285206)" fill="none" stroke-linejoin="round" d="M 1556.495437 2301.911831 C 1516.50311 2259.908472 1450.096968 2258.188252 1407.986156 2298.100431 C 1365.995796 2338.113987 1364.296804 2404.50713 1404.285669 2446.600174 Z M 1556.495437 2301.911831 " stroke="#000000" stroke-width="50" stroke-opacity="1" stroke-miterlimit="10"/></g></g></g></g><g clip-path="url(#c75216ea74)"><g clip-path="url(#5ea3377580)"><g clip-path="url(#29c42eecfe)"><g clip-path="url(#fdb1af3c5d)"><path fill="#7dcd52" d="M 116.890625 107.96875 C 125.6875 110.308594 134.722656 105.109375 137.078125 96.304688 C 139.421875 87.511719 134.207031 78.484375 125.410156 76.144531 L 116.890625 107.96875 " fill-opacity="1" fill-rule="nonzero"/></g></g></g></g><g clip-path="url(#01c72ad7f8)"><g clip-path="url(#a2e5e50fb0)"><g clip-path="url(#aab065c08a)"><g clip-path="url(#6bf109fffa)"><path stroke-linecap="round" transform="matrix(0.133829, -0.0819451, -0.0819451, -0.133829, 77.416317, 646.285206)" fill="none" stroke-linejoin="round" d="M 2005.883571 2794.196301 C 2045.905104 2752.206747 2112.309339 2750.396339 2154.409806 2790.408335 C 2196.407589 2830.395641 2198.107084 2896.809413 2158.08555 2938.798966 Z M 2005.883571 2794.196301 " stroke="#000000" stroke-width="50" stroke-opacity="1" stroke-miterlimit="10"/></g></g></g></g><g clip-path="url(#383efee2a0)"><g clip-path="url(#ac23c4f934)"><g clip-path="url(#e2c66709ef)"><g clip-path="url(#0b94e0d49c)"><path fill="#7dcd52" d="M 220.324219 113.710938 C 226.195312 120.65625 236.589844 121.523438 243.546875 115.664062 C 250.492188 109.792969 251.375 99.390625 245.488281 92.449219 L 220.324219 113.710938 " fill-opacity="1" fill-rule="nonzero"/></g></g></g></g><g clip-path="url(#890e2cd599)"><g clip-path="url(#72a09330a6)"><g clip-path="url(#723ca304b5)"><g clip-path="url(#ee599629e1)"><path stroke-linecap="round" transform="matrix(0.133829, -0.0819451, -0.0819451, -0.133829, 77.416317, 646.285206)" fill="none" stroke-linejoin="round" d="M 2548.899409 2418.793749 C 2557.694769 2361.51126 2611.299541 2322.208541 2668.606721 2330.901217 C 2725.889209 2339.696577 2765.302842 2393.291812 2756.409567 2450.605067 Z M 2548.899409 2418.793749 " stroke="#000000" stroke-width="50" stroke-opacity="1" stroke-miterlimit="10"/></g></g></g></g><g clip-path="url(#6cc1777e3c)"><g clip-path="url(#2f16a13c5e)"><g clip-path="url(#4499e29c9a)"><g clip-path="url(#547162f602)"><path fill="#7dcd52" d="M 195.632812 214.867188 C 190.839844 222.605469 193.238281 232.769531 200.964844 237.546875 C 208.703125 242.34375 218.859375 239.96875 223.65625 232.230469 L 195.632812 214.867188 " fill-opacity="1" fill-rule="nonzero"/></g></g></g></g><g clip-path="url(#c593d91ced)"><g clip-path="url(#29b65d1c41)"><g clip-path="url(#bd137519ed)"><g clip-path="url(#718279c4f6)"><path stroke-linecap="round" transform="matrix(0.133829, -0.0819451, -0.0819451, -0.133829, 77.416317, 646.285206)" fill="none" stroke-linejoin="round" d="M 2078.093033 1951.211741 C 2026.294315 1925.106542 2005.506016 1861.887267 2031.599523 1810.212462 C 2057.691723 1758.392515 2120.790546 1737.502839 2172.610493 1763.595039 Z M 2078.093033 1951.211741 " stroke="#000000" stroke-width="50" stroke-opacity="1" stroke-miterlimit="10"/></g></g></g></g><g clip-path="url(#342850eb3f)"><g clip-path="url(#d151a2a4df)"><g clip-path="url(#f139d44952)"><g clip-path="url(#fbe6567699)"><path fill="#7dcd52" d="M 171.1875 304.488281 C 178.960938 309.222656 189.105469 306.765625 193.839844 298.992188 C 198.570312 291.214844 196.125 281.085938 188.347656 276.351562 L 171.1875 304.488281 " fill-opacity="1" fill-rule="nonzero"/></g></g></g></g><g clip-path="url(#9c55e3ccc7)"><g clip-path="url(#7439508436)"><g clip-path="url(#da7e26883e)"><g clip-path="url(#44c0ecd96a)"><path stroke-linecap="round" transform="matrix(0.133829, -0.0819451, -0.0819451, -0.133829, 77.416317, 646.285206)" fill="none" stroke-linejoin="round" d="M 1647.009612 1545.500202 C 1673.500855 1493.902931 1736.808967 1473.498061 1788.406238 1499.989304 C 1839.995279 1526.514774 1860.411841 1589.698973 1833.899369 1641.309244 Z M 1647.009612 1545.500202 " stroke="#000000" stroke-width="50" stroke-opacity="1" stroke-miterlimit="10"/></g></g></g></g><g clip-path="url(#1826c0b35f)"><g clip-path="url(#eec60751d0)"><g clip-path="url(#e9f6107714)"><g clip-path="url(#d6a2da212c)"><path fill="#000000" d="M 148.308594 163.839844 C 147.519531 164.324219 146.578125 164.53125 145.613281 164.367188 C 143.484375 164.015625 142.019531 161.988281 142.386719 159.851562 L 144.3125 148.328125 C 144.675781 146.191406 146.703125 144.75 148.832031 145.101562 C 150.96875 145.46875 152.410156 147.492188 152.058594 149.621094 L 150.121094 161.148438 C 149.929688 162.3125 149.246094 163.269531 148.308594 163.839844 " fill-opacity="1" fill-rule="nonzero"/></g></g></g></g><g clip-path="url(#c646326422)"><g clip-path="url(#e27f52f910)"><g clip-path="url(#33a44288ba)"><g clip-path="url(#a545e46396)"><path fill="#000000" d="M 199.09375 155.578125 C 198.761719 155.785156 198.394531 155.933594 197.992188 156.035156 L 186.664062 158.867188 C 184.5625 159.398438 182.429688 158.109375 181.902344 156.023438 C 181.371094 153.917969 182.660156 151.785156 184.75 151.261719 L 196.089844 148.421875 C 198.1875 147.910156 200.328125 149.175781 200.835938 151.273438 C 201.273438 152.976562 200.511719 154.710938 199.09375 155.578125 " fill-opacity="1" fill-rule="nonzero"/></g></g></g></g><g clip-path="url(#0916eebf7f)"><g clip-path="url(#d5e62c6b58)"><g clip-path="url(#3b55fbe315)"><g clip-path="url(#6b74624289)"><path fill="#000000" d="M 183.148438 140.207031 C 182.214844 140.78125 181.039062 140.964844 179.914062 140.605469 L 168.78125 137.082031 C 166.703125 136.421875 165.5625 134.230469 166.207031 132.160156 C 166.867188 130.082031 169.082031 128.949219 171.136719 129.605469 L 182.273438 133.125 C 184.34375 133.773438 185.492188 135.976562 184.835938 138.035156 C 184.539062 138.988281 183.925781 139.730469 183.148438 140.207031 " fill-opacity="1" fill-rule="nonzero"/></g></g></g></g><g clip-path="url(#d8c023b833)"><g clip-path="url(#f38a65cf2b)"><g clip-path="url(#5d9eb2dad1)"><g clip-path="url(#82d94ed32c)"><path fill="#000000" d="M 173.550781 164.796875 C 171.972656 165.765625 169.878906 165.5 168.601562 164.074219 L 160.769531 155.402344 C 159.320312 153.785156 159.445312 151.316406 161.050781 149.855469 C 162.667969 148.40625 165.136719 148.53125 166.597656 150.140625 L 174.417969 158.820312 C 175.867188 160.4375 175.742188 162.90625 174.132812 164.367188 C 173.949219 164.515625 173.75 164.675781 173.550781 164.796875 " fill-opacity="1" fill-rule="nonzero"/></g></g></g></g><g clip-path="url(#e84053ea3f)"><g clip-path="url(#30ad97e6ec)"><g clip-path="url(#1b6fc3647d)"><g clip-path="url(#135d661799)"><path fill="#000000" d="M 167.015625 184.535156 C 166.476562 184.859375 165.871094 185.070312 165.210938 185.105469 L 153.550781 185.804688 C 151.382812 185.933594 149.53125 184.289062 149.386719 182.132812 C 149.257812 179.96875 150.914062 178.105469 153.082031 177.976562 L 164.742188 177.277344 C 166.90625 177.148438 168.761719 178.789062 168.890625 180.957031 C 168.976562 182.449219 168.21875 183.796875 167.015625 184.535156 " fill-opacity="1" fill-rule="nonzero"/></g></g></g></g><g clip-path="url(#100b950546)"><g clip-path="url(#2a30f2fc52)"><g clip-path="url(#0507e87d9f)"><g clip-path="url(#f723cf68a5)"><path fill="#000000" d="M 185.761719 187.203125 C 184.863281 187.753906 183.738281 187.925781 182.636719 187.628906 C 180.554688 187.023438 179.355469 184.851562 179.941406 182.78125 L 183.148438 171.546875 C 183.742188 169.453125 185.914062 168.25 187.984375 168.839844 C 190.078125 169.433594 191.28125 171.605469 190.679688 173.6875 L 187.496094 184.925781 C 187.214844 185.910156 186.578125 186.703125 185.761719 187.203125 " fill-opacity="1" fill-rule="nonzero"/></g></g></g></g><g clip-path="url(#bb66c146a8)"><g clip-path="url(#77025a3347)"><g clip-path="url(#27be3b3e59)"><g clip-path="url(#f99f7989fa)"><path fill="#000000" d="M 108.8125 270.476562 C 108.035156 270.953125 107.082031 271.167969 106.117188 271.003906 C 103.96875 270.648438 102.53125 268.636719 102.890625 266.484375 L 104.816406 254.964844 C 105.183594 252.828125 107.207031 251.386719 109.34375 251.753906 C 111.472656 252.105469 112.914062 254.128906 112.5625 256.257812 L 110.625 267.785156 C 110.433594 268.949219 109.734375 269.914062 108.8125 270.476562 " fill-opacity="1" fill-rule="nonzero"/></g></g></g></g><g clip-path="url(#ab8db60e8f)"><g clip-path="url(#aa3e1fc2b4)"><g clip-path="url(#d1b8e5876c)"><g clip-path="url(#5d09eb0983)"><path fill="#000000" d="M 159.597656 262.214844 C 159.265625 262.421875 158.898438 262.570312 158.496094 262.667969 L 147.152344 265.511719 C 145.066406 266.035156 142.933594 264.746094 142.40625 262.660156 C 141.875 260.554688 143.164062 258.421875 145.253906 257.898438 L 156.59375 255.058594 C 158.707031 254.539062 160.832031 255.8125 161.351562 257.921875 C 161.777344 259.613281 161.015625 261.347656 159.597656 262.214844 " fill-opacity="1" fill-rule="nonzero"/></g></g></g></g><g clip-path="url(#2a4d091fb3)"><g clip-path="url(#0a3a4f8659)"><g clip-path="url(#2d1863b808)"><g clip-path="url(#675b0ee43e)"><path fill="#000000" d="M 143.652344 246.84375 C 142.71875 247.417969 141.542969 247.601562 140.421875 247.242188 L 129.269531 243.726562 C 127.214844 243.074219 126.058594 240.855469 126.710938 238.796875 C 127.378906 236.734375 129.585938 235.585938 131.640625 236.242188 L 142.777344 239.761719 C 144.847656 240.410156 145.996094 242.613281 145.335938 244.691406 C 145.042969 245.625 144.429688 246.367188 143.652344 246.84375 " fill-opacity="1" fill-rule="nonzero"/></g></g></g></g><g clip-path="url(#66e2b326a4)"><g clip-path="url(#ac634d67dc)"><g clip-path="url(#4ac3c794fb)"><g clip-path="url(#4e6a82b251)"><path fill="#000000" d="M 134.054688 271.433594 C 132.476562 272.402344 130.382812 272.136719 129.105469 270.710938 L 121.273438 262.039062 C 119.824219 260.421875 119.941406 257.941406 121.554688 256.492188 C 123.171875 255.042969 125.648438 255.183594 127.089844 256.785156 L 134.921875 265.457031 C 136.371094 267.074219 136.246094 269.542969 134.636719 271.003906 C 134.460938 271.167969 134.253906 271.3125 134.054688 271.433594 " fill-opacity="1" fill-rule="nonzero"/></g></g></g></g><g clip-path="url(#5ce7ce7e1f)"><g clip-path="url(#c89403d272)"><g clip-path="url(#7df438b97e)"><g clip-path="url(#61462c4ef7)"><path fill="#000000" d="M 127.527344 291.183594 C 126.992188 291.511719 126.375 291.703125 125.714844 291.742188 L 114.054688 292.441406 C 111.898438 292.582031 110.035156 290.925781 109.890625 288.769531 C 109.761719 286.605469 111.417969 284.742188 113.570312 284.621094 L 125.246094 283.914062 C 127.410156 283.78125 129.265625 285.425781 129.394531 287.59375 C 129.488281 289.097656 128.730469 290.445312 127.527344 291.183594 " fill-opacity="1" fill-rule="nonzero"/></g></g></g></g><g clip-path="url(#86e2fffdf1)"><g clip-path="url(#59c9c681da)"><g clip-path="url(#7248204d36)"><g clip-path="url(#d6321b1b52)"><path fill="#000000" d="M 146.265625 293.839844 C 145.367188 294.390625 144.25 294.578125 143.140625 294.265625 C 141.058594 293.660156 139.859375 291.488281 140.449219 289.417969 L 143.652344 278.183594 C 144.246094 276.085938 146.417969 274.886719 148.488281 275.476562 C 150.582031 276.070312 151.785156 278.242188 151.203125 280.328125 L 147.984375 291.574219 C 147.703125 292.554688 147.082031 293.339844 146.265625 293.839844 " fill-opacity="1" fill-rule="nonzero"/></g></g></g></g><g clip-path="url(#e5ba9b6c64)"><g clip-path="url(#707f294894)"><g clip-path="url(#0cd03f518d)"><g clip-path="url(#849a357e8d)"><path fill="#000000" d="M 229.355469 299.175781 C 228.578125 299.652344 227.648438 299.875 226.660156 299.703125 C 224.53125 299.351562 223.089844 297.328125 223.445312 295.175781 L 225.371094 283.65625 C 225.722656 281.527344 227.75 280.085938 229.898438 280.445312 C 232.027344 280.796875 233.46875 282.820312 233.105469 284.957031 L 231.1875 296.492188 C 231 297.65625 230.292969 298.605469 229.355469 299.175781 " fill-opacity="1" fill-rule="nonzero"/></g></g></g></g><g clip-path="url(#76b812cbbf)"><g clip-path="url(#1b9d86caf8)"><g clip-path="url(#758f8b4480)"><g clip-path="url(#81ef89b480)"><path fill="#000000" d="M 280.140625 290.914062 C 279.820312 291.113281 279.4375 291.269531 279.039062 291.371094 L 267.710938 294.203125 C 265.621094 294.726562 263.484375 293.460938 262.964844 291.351562 C 262.429688 289.246094 263.71875 287.113281 265.808594 286.589844 L 277.136719 283.757812 C 279.25 283.238281 281.371094 284.511719 281.90625 286.613281 C 282.328125 288.324219 281.574219 290.039062 280.140625 290.914062 " fill-opacity="1" fill-rule="nonzero"/></g></g></g></g><g clip-path="url(#b758b1c9b9)"><g clip-path="url(#a07cfcaf08)"><g clip-path="url(#e9483fa6f5)"><g clip-path="url(#5163774299)"><path fill="#000000" d="M 264.195312 275.542969 C 263.257812 276.117188 262.097656 276.292969 260.976562 275.933594 L 249.828125 272.417969 C 247.769531 271.765625 246.621094 269.558594 247.269531 267.488281 C 247.921875 265.433594 250.128906 264.285156 252.195312 264.933594 L 263.332031 268.453125 C 265.402344 269.101562 266.546875 271.328125 265.890625 273.382812 C 265.597656 274.316406 264.972656 275.066406 264.195312 275.542969 " fill-opacity="1" fill-rule="nonzero"/></g></g></g></g><g clip-path="url(#7cec9ffc12)"><g clip-path="url(#f0025db729)"><g clip-path="url(#c0bba48cb8)"><g clip-path="url(#34dcf53208)"><path fill="#000000" d="M 254.597656 300.132812 C 253.019531 301.101562 250.9375 300.828125 249.648438 299.410156 L 241.816406 290.738281 C 240.367188 289.121094 240.503906 286.644531 242.105469 285.203125 C 243.722656 283.757812 246.203125 283.875 247.644531 285.476562 L 255.476562 294.148438 C 256.925781 295.765625 256.796875 298.253906 255.195312 299.695312 C 255.003906 299.867188 254.8125 300.003906 254.597656 300.132812 " fill-opacity="1" fill-rule="nonzero"/></g></g></g></g><g clip-path="url(#71852b99d1)"><g clip-path="url(#ca2e30acd4)"><g clip-path="url(#e44ec9332f)"><g clip-path="url(#32e9639586)"><path fill="#000000" d="M 248.082031 319.875 C 247.546875 320.203125 246.929688 320.394531 246.269531 320.433594 L 234.597656 321.140625 C 232.4375 321.28125 230.578125 319.625 230.457031 317.472656 C 230.324219 315.308594 231.960938 313.441406 234.128906 313.3125 L 245.789062 312.613281 C 247.953125 312.484375 249.804688 314.125 249.9375 316.292969 C 250.03125 317.796875 249.273438 319.144531 248.082031 319.875 " fill-opacity="1" fill-rule="nonzero"/></g></g></g></g><g clip-path="url(#ae72b75d42)"><g clip-path="url(#dbd92367cf)"><g clip-path="url(#bbc2f64b7d)"><g clip-path="url(#47c9bc0204)"><path fill="#000000" d="M 271.804688 307.171875 C 271.523438 305.777344 270.503906 304.597656 269.054688 304.179688 C 266.960938 303.585938 264.789062 304.789062 264.207031 306.871094 L 262.308594 313.539062 C 265.476562 311.414062 268.632812 309.296875 271.804688 307.171875 " fill-opacity="1" fill-rule="nonzero"/></g></g></g></g><g clip-path="url(#93cb96288a)"><g clip-path="url(#3db6a21bfb)"><g clip-path="url(#c8c61fc28b)"><g clip-path="url(#08f29c1f35)"><path fill="#000000" d="M 251.789062 170.714844 C 251.011719 171.191406 250.070312 171.398438 249.09375 171.242188 C 246.957031 170.875 245.523438 168.867188 245.867188 166.722656 L 247.804688 155.195312 C 248.15625 153.066406 250.179688 151.625 252.320312 151.988281 C 254.460938 152.332031 255.902344 154.355469 255.539062 156.496094 L 253.613281 168.015625 C 253.410156 169.1875 252.722656 170.140625 251.789062 170.714844 " fill-opacity="1" fill-rule="nonzero"/></g></g></g></g><g clip-path="url(#8535bda8d0)"><g clip-path="url(#8c3e3533b0)"><g clip-path="url(#6f62edfbd6)"><g clip-path="url(#8ce5d9e00d)"><path fill="#000000" d="M 302.574219 162.453125 C 302.238281 162.65625 301.871094 162.808594 301.472656 162.90625 L 290.140625 165.738281 C 288.039062 166.273438 285.914062 164.996094 285.382812 162.894531 C 284.863281 160.785156 286.136719 158.660156 288.242188 158.128906 L 299.570312 155.292969 C 301.679688 154.773438 303.804688 156.050781 304.339844 158.152344 C 304.761719 159.863281 303.992188 161.582031 302.574219 162.453125 " fill-opacity="1" fill-rule="nonzero"/></g></g></g></g><g clip-path="url(#cf1c8b82c1)"><g clip-path="url(#f6f580335f)"><g clip-path="url(#db07aca857)"><g clip-path="url(#60f5561974)"><path fill="#000000" d="M 286.628906 147.082031 C 285.691406 147.652344 284.53125 147.832031 283.394531 147.476562 L 272.257812 143.957031 C 270.1875 143.308594 269.042969 141.105469 269.699219 139.027344 C 270.355469 136.96875 272.558594 135.824219 274.617188 136.476562 L 285.765625 139.992188 C 287.824219 140.644531 288.96875 142.851562 288.324219 144.921875 C 288.019531 145.863281 287.40625 146.605469 286.628906 147.082031 " fill-opacity="1" fill-rule="nonzero"/></g></g></g></g><g clip-path="url(#3e1f17cac6)"><g clip-path="url(#4e2267d5b6)"><g clip-path="url(#884741a2d3)"><g clip-path="url(#13df6f9d4f)"><path fill="#000000" d="M 277.03125 171.671875 C 275.449219 172.636719 273.355469 172.375 272.078125 170.949219 L 264.246094 162.273438 C 262.796875 160.660156 262.917969 158.175781 264.53125 156.730469 C 266.148438 155.28125 268.628906 155.398438 270.078125 157.011719 L 277.898438 165.695312 C 279.359375 167.300781 279.21875 169.777344 277.617188 171.21875 C 277.4375 171.402344 277.230469 171.546875 277.03125 171.671875 " fill-opacity="1" fill-rule="nonzero"/></g></g></g></g><g clip-path="url(#24cbf4ccd9)"><g clip-path="url(#87316fe66e)"><g clip-path="url(#1d56d4db5a)"><g clip-path="url(#6046667de4)"><path fill="#000000" d="M 89.671875 138.160156 C 89.351562 138.355469 88.96875 138.515625 88.570312 138.613281 L 77.242188 141.445312 C 75.152344 141.972656 73.007812 140.691406 72.496094 138.59375 C 71.960938 136.492188 73.25 134.359375 75.339844 133.832031 L 86.667969 131 C 88.78125 130.480469 90.902344 131.753906 91.4375 133.859375 C 91.859375 135.570312 91.105469 137.28125 89.671875 138.160156 " fill-opacity="1" fill-rule="nonzero"/></g></g></g></g><g clip-path="url(#98c5be0550)"><g clip-path="url(#a0c181fe96)"><g clip-path="url(#24aeb3a073)"><g clip-path="url(#2ff3e274f3)"><path fill="#000000" d="M 73.726562 122.785156 C 72.789062 123.359375 71.628906 123.539062 70.507812 123.175781 L 59.359375 119.664062 C 57.300781 119.007812 56.152344 116.804688 56.800781 114.734375 C 57.445312 112.664062 59.660156 111.527344 61.726562 112.175781 L 72.863281 115.695312 C 74.933594 116.34375 76.070312 118.554688 75.421875 120.625 C 75.128906 121.558594 74.515625 122.304688 73.726562 122.785156 " fill-opacity="1" fill-rule="nonzero"/></g></g></g></g><g clip-path="url(#a62a08438a)"><g clip-path="url(#bcd15a68aa)"><g clip-path="url(#6bdde6e1b8)"><g clip-path="url(#f2ec6ae6d0)"><path fill="#000000" d="M 64.140625 147.371094 C 62.5625 148.335938 60.46875 148.074219 59.179688 146.65625 L 51.347656 137.980469 C 49.898438 136.367188 50.035156 133.890625 51.628906 132.433594 C 53.246094 130.984375 55.726562 131.101562 57.175781 132.71875 L 65.007812 141.390625 C 66.457031 143.007812 66.316406 145.484375 64.726562 146.9375 C 64.527344 147.097656 64.34375 147.246094 64.140625 147.371094 " fill-opacity="1" fill-rule="nonzero"/></g></g></g></g><g clip-path="url(#a12cddb651)"><g clip-path="url(#e84aa7c4ef)"><g clip-path="url(#28ce85b9fe)"><g clip-path="url(#ea4328fb8d)"><path fill="#000000" d="M 57.613281 167.117188 C 57.078125 167.445312 56.460938 167.640625 55.800781 167.675781 L 44.128906 168.382812 C 41.960938 168.511719 40.109375 166.871094 39.980469 164.703125 C 39.847656 162.539062 41.492188 160.683594 43.660156 160.554688 L 55.320312 159.855469 C 57.484375 159.726562 59.351562 161.363281 59.46875 163.535156 C 59.566406 165.019531 58.804688 166.386719 57.613281 167.117188 " fill-opacity="1" fill-rule="nonzero"/></g></g></g></g><g clip-path="url(#3018080f7f)"><g clip-path="url(#88fa745119)"><g clip-path="url(#859b259811)"><g clip-path="url(#0b5be00e81)"><path fill="#000000" d="M 76.351562 169.773438 C 75.457031 170.324219 74.324219 170.519531 73.226562 170.199219 C 71.132812 169.605469 69.929688 167.433594 70.535156 165.351562 L 73.738281 154.117188 C 74.320312 152.03125 76.503906 150.820312 78.578125 151.410156 C 80.671875 152.003906 81.871094 154.175781 81.277344 156.269531 L 78.074219 167.507812 C 77.792969 168.488281 77.15625 169.285156 76.351562 169.773438 " fill-opacity="1" fill-rule="nonzero"/></g></g></g></g><g clip-path="url(#2847b1f9dd)"><g clip-path="url(#72ec302b6d)"><g clip-path="url(#3fe9d87e99)"><g clip-path="url(#7c99af3eb0)"><path fill="#000000" d="M 175.035156 40.257812 L 173.128906 51.597656 C 172.773438 53.75 174.21875 55.753906 176.355469 56.117188 C 177.320312 56.28125 178.261719 56.074219 179.050781 55.589844 C 179.988281 55.015625 180.671875 54.0625 180.863281 52.898438 L 182.800781 41.371094 C 182.855469 41.042969 182.855469 40.710938 182.820312 40.382812 C 180.238281 40.21875 177.632812 40.175781 175.035156 40.257812 " fill-opacity="1" fill-rule="nonzero"/></g></g></g></g><g clip-path="url(#f2a9e55e1a)"><g clip-path="url(#3a50afc7d1)"><g clip-path="url(#87c1fe976a)"><g clip-path="url(#58fd127366)"><path fill="#000000" d="M 213.046875 44.878906 C 212.570312 45.722656 212.390625 46.75 212.644531 47.773438 C 213.171875 49.859375 215.296875 51.136719 217.40625 50.617188 L 228.734375 47.78125 C 229.136719 47.683594 229.503906 47.535156 229.835938 47.328125 C 230.117188 47.15625 230.363281 46.953125 230.566406 46.714844 C 224.699219 46.574219 218.863281 45.84375 213.046875 44.878906 " fill-opacity="1" fill-rule="nonzero"/></g></g></g></g><g clip-path="url(#a01dc63884)"><g clip-path="url(#c0d63899bf)"><g clip-path="url(#ba74f6567b)"><g clip-path="url(#23e44c4629)"><path fill="#000000" d="M 197.601562 42.191406 C 195.777344 41.890625 193.972656 41.613281 192.140625 41.355469 C 192.019531 41.429688 191.898438 41.503906 191.792969 41.605469 C 190.179688 43.054688 190.0625 45.535156 191.511719 47.152344 L 199.34375 55.824219 C 200.621094 57.25 202.714844 57.515625 204.292969 56.546875 C 204.507812 56.417969 204.691406 56.265625 204.875 56.117188 C 206.484375 54.65625 206.609375 52.1875 205.160156 50.570312 L 197.601562 42.191406 " fill-opacity="1" fill-rule="nonzero"/></g></g></g></g><g clip-path="url(#38104b3090)"><g clip-path="url(#dcc443b405)"><g clip-path="url(#30b645b7f4)"><g clip-path="url(#33af352c53)"><path fill="#000000" d="M 197.765625 76.296875 C 197.230469 76.625 196.613281 76.816406 195.953125 76.855469 L 184.292969 77.554688 C 182.136719 77.695312 180.273438 76.039062 180.128906 73.882812 C 180 71.71875 181.65625 69.855469 183.824219 69.726562 L 195.484375 69.027344 C 197.648438 68.894531 199.503906 70.539062 199.632812 72.707031 C 199.71875 74.199219 198.96875 75.558594 197.765625 76.296875 " fill-opacity="1" fill-rule="nonzero"/></g></g></g></g><g clip-path="url(#57c425d0fe)"><g clip-path="url(#5b262c75fb)"><g clip-path="url(#ac97bbb202)"><g clip-path="url(#2cdbf92f8f)"><path fill="#000000" d="M 216.503906 78.953125 C 215.605469 79.503906 214.480469 79.675781 213.378906 79.378906 C 211.296875 78.773438 210.097656 76.601562 210.6875 74.53125 L 213.882812 63.28125 C 214.484375 61.199219 216.65625 60 218.726562 60.589844 C 220.824219 61.183594 222.023438 63.355469 221.421875 65.4375 L 218.226562 76.683594 C 217.957031 77.660156 217.320312 78.453125 216.503906 78.953125 " fill-opacity="1" fill-rule="nonzero"/></g></g></g></g></svg>