<svg xmlns="http://www.w3.org/2000/svg" xmlns:xlink="http://www.w3.org/1999/xlink" width="150" zoomAndPan="magnify" viewBox="0 0 187.5 74.999997" height="50" preserveAspectRatio="xMidYMid meet" version="1.0"><defs><g/><clipPath id="75e9f43b88"><path d="M 12 10 L 66 10 L 66 64 L 12 64 Z M 12 10 " clip-rule="nonzero"/></clipPath><clipPath id="efd05a8fc7"><path d="M 1.375 28.101562 L 48.066406 -0.488281 L 76.65625 46.203125 L 29.964844 74.792969 Z M 1.375 28.101562 " clip-rule="nonzero"/></clipPath><clipPath id="498d04639a"><path d="M 1.375 28.101562 L 48.066406 -0.488281 L 76.65625 46.203125 L 29.964844 74.792969 Z M 1.375 28.101562 " clip-rule="nonzero"/></clipPath><clipPath id="63f62a5748"><path d="M 1.375 28.101562 L 48.066406 -0.488281 L 76.65625 46.203125 L 29.964844 74.792969 Z M 1.375 28.101562 " clip-rule="nonzero"/></clipPath><clipPath id="97a75a2ede"><path d="M 11 9 L 67 9 L 67 65 L 11 65 Z M 11 9 " clip-rule="nonzero"/></clipPath><clipPath id="7480169be3"><path d="M 1.375 28.101562 L 48.066406 -0.488281 L 76.65625 46.203125 L 29.964844 74.792969 Z M 1.375 28.101562 " clip-rule="nonzero"/></clipPath><clipPath id="e3019457de"><path d="M 1.375 28.101562 L 48.066406 -0.488281 L 76.65625 46.203125 L 29.964844 74.792969 Z M 1.375 28.101562 " clip-rule="nonzero"/></clipPath><clipPath id="aac8f02a50"><path d="M 1.375 28.101562 L 48.066406 -0.488281 L 76.65625 46.203125 L 29.964844 74.792969 Z M 1.375 28.101562 " clip-rule="nonzero"/></clipPath><clipPath id="f85c66a712"><path d="M 16 15 L 62 15 L 62 60 L 16 60 Z M 16 15 " clip-rule="nonzero"/></clipPath><clipPath id="96eee33497"><path d="M 1.375 28.101562 L 48.066406 -0.488281 L 76.65625 46.203125 L 29.964844 74.792969 Z M 1.375 28.101562 " clip-rule="nonzero"/></clipPath><clipPath id="d5be034d90"><path d="M 1.375 28.101562 L 48.066406 -0.488281 L 76.65625 46.203125 L 29.964844 74.792969 Z M 1.375 28.101562 " clip-rule="nonzero"/></clipPath><clipPath id="d4cad057b2"><path d="M 1.375 28.101562 L 48.066406 -0.488281 L 76.65625 46.203125 L 29.964844 74.792969 Z M 1.375 28.101562 " clip-rule="nonzero"/></clipPath><clipPath id="35ddaaef51"><path d="M 16 14 L 62 14 L 62 60 L 16 60 Z M 16 14 " clip-rule="nonzero"/></clipPath><clipPath id="ed37175f25"><path d="M 1.375 28.101562 L 48.066406 -0.488281 L 76.65625 46.203125 L 29.964844 74.792969 Z M 1.375 28.101562 " clip-rule="nonzero"/></clipPath><clipPath id="fdcb45595c"><path d="M 1.375 28.101562 L 48.066406 -0.488281 L 76.65625 46.203125 L 29.964844 74.792969 Z M 1.375 28.101562 " clip-rule="nonzero"/></clipPath><clipPath id="02112da8f3"><path d="M 1.375 28.101562 L 48.066406 -0.488281 L 76.65625 46.203125 L 29.964844 74.792969 Z M 1.375 28.101562 " clip-rule="nonzero"/></clipPath><clipPath id="4c3cff1628"><path d="M 16 24 L 27 24 L 27 37 L 16 37 Z M 16 24 " clip-rule="nonzero"/></clipPath><clipPath id="394ba3465e"><path d="M 1.375 28.101562 L 48.066406 -0.488281 L 76.65625 46.203125 L 29.964844 74.792969 Z M 1.375 28.101562 " clip-rule="nonzero"/></clipPath><clipPath id="7e95736a82"><path d="M 1.375 28.101562 L 48.066406 -0.488281 L 76.65625 46.203125 L 29.964844 74.792969 Z M 1.375 28.101562 " clip-rule="nonzero"/></clipPath><clipPath id="64e4fa4562"><path d="M 1.375 28.101562 L 48.066406 -0.488281 L 76.65625 46.203125 L 29.964844 74.792969 Z M 1.375 28.101562 " clip-rule="nonzero"/></clipPath><clipPath id="cf084390e8"><path d="M 16 23 L 27 23 L 27 38 L 16 38 Z M 16 23 " clip-rule="nonzero"/></clipPath><clipPath id="45cd9a7ddf"><path d="M 1.375 28.101562 L 48.066406 -0.488281 L 76.65625 46.203125 L 29.964844 74.792969 Z M 1.375 28.101562 " clip-rule="nonzero"/></clipPath><clipPath id="cb6cabfc8e"><path d="M 1.375 28.101562 L 48.066406 -0.488281 L 76.65625 46.203125 L 29.964844 74.792969 Z M 1.375 28.101562 " clip-rule="nonzero"/></clipPath><clipPath id="289bd12e5f"><path d="M 1.375 28.101562 L 48.066406 -0.488281 L 76.65625 46.203125 L 29.964844 74.792969 Z M 1.375 28.101562 " clip-rule="nonzero"/></clipPath><clipPath id="f1bd579936"><path d="M 34 15 L 48 15 L 48 24 L 34 24 Z M 34 15 " clip-rule="nonzero"/></clipPath><clipPath id="a1e1f757e6"><path d="M 1.375 28.101562 L 48.066406 -0.488281 L 76.65625 46.203125 L 29.964844 74.792969 Z M 1.375 28.101562 " clip-rule="nonzero"/></clipPath><clipPath id="db74a44b9f"><path d="M 1.375 28.101562 L 48.066406 -0.488281 L 76.65625 46.203125 L 29.964844 74.792969 Z M 1.375 28.101562 " clip-rule="nonzero"/></clipPath><clipPath id="bf034dbc0c"><path d="M 1.375 28.101562 L 48.066406 -0.488281 L 76.65625 46.203125 L 29.964844 74.792969 Z M 1.375 28.101562 " clip-rule="nonzero"/></clipPath><clipPath id="530aa393c0"><path d="M 34 14 L 48 14 L 48 24 L 34 24 Z M 34 14 " clip-rule="nonzero"/></clipPath><clipPath id="02c7ea00e4"><path d="M 1.375 28.101562 L 48.066406 -0.488281 L 76.65625 46.203125 L 29.964844 74.792969 Z M 1.375 28.101562 " clip-rule="nonzero"/></clipPath><clipPath id="90c1db93fb"><path d="M 1.375 28.101562 L 48.066406 -0.488281 L 76.65625 46.203125 L 29.964844 74.792969 Z M 1.375 28.101562 " clip-rule="nonzero"/></clipPath><clipPath id="4374adb5a7"><path d="M 1.375 28.101562 L 48.066406 -0.488281 L 76.65625 46.203125 L 29.964844 74.792969 Z M 1.375 28.101562 " clip-rule="nonzero"/></clipPath><clipPath id="da16bee0e0"><path d="M 24 42 L 37 42 L 37 56 L 24 56 Z M 24 42 " clip-rule="nonzero"/></clipPath><clipPath id="9101eff09a"><path d="M 1.375 28.101562 L 48.066406 -0.488281 L 76.65625 46.203125 L 29.964844 74.792969 Z M 1.375 28.101562 " clip-rule="nonzero"/></clipPath><clipPath id="45e1d55d66"><path d="M 1.375 28.101562 L 48.066406 -0.488281 L 76.65625 46.203125 L 29.964844 74.792969 Z M 1.375 28.101562 " clip-rule="nonzero"/></clipPath><clipPath id="edef57d006"><path d="M 1.375 28.101562 L 48.066406 -0.488281 L 76.65625 46.203125 L 29.964844 74.792969 Z M 1.375 28.101562 " clip-rule="nonzero"/></clipPath><clipPath id="2d22ab1cf5"><path d="M 23 42 L 38 42 L 38 56 L 23 56 Z M 23 42 " clip-rule="nonzero"/></clipPath><clipPath id="59b6386872"><path d="M 1.375 28.101562 L 48.066406 -0.488281 L 76.65625 46.203125 L 29.964844 74.792969 Z M 1.375 28.101562 " clip-rule="nonzero"/></clipPath><clipPath id="d4ae99ed61"><path d="M 1.375 28.101562 L 48.066406 -0.488281 L 76.65625 46.203125 L 29.964844 74.792969 Z M 1.375 28.101562 " clip-rule="nonzero"/></clipPath><clipPath id="d1f67a8c55"><path d="M 1.375 28.101562 L 48.066406 -0.488281 L 76.65625 46.203125 L 29.964844 74.792969 Z M 1.375 28.101562 " clip-rule="nonzero"/></clipPath><clipPath id="bbbd36dda7"><path d="M 30 26 L 43 26 L 43 40 L 30 40 Z M 30 26 " clip-rule="nonzero"/></clipPath><clipPath id="decd9908f2"><path d="M 1.375 28.101562 L 48.066406 -0.488281 L 76.65625 46.203125 L 29.964844 74.792969 Z M 1.375 28.101562 " clip-rule="nonzero"/></clipPath><clipPath id="5a9cc0b492"><path d="M 1.375 28.101562 L 48.066406 -0.488281 L 76.65625 46.203125 L 29.964844 74.792969 Z M 1.375 28.101562 " clip-rule="nonzero"/></clipPath><clipPath id="80f982aadd"><path d="M 1.375 28.101562 L 48.066406 -0.488281 L 76.65625 46.203125 L 29.964844 74.792969 Z M 1.375 28.101562 " clip-rule="nonzero"/></clipPath><clipPath id="4d7481bfd4"><path d="M 29 26 L 44 26 L 44 41 L 29 41 Z M 29 26 " clip-rule="nonzero"/></clipPath><clipPath id="1b0772f591"><path d="M 1.375 28.101562 L 48.066406 -0.488281 L 76.65625 46.203125 L 29.964844 74.792969 Z M 1.375 28.101562 " clip-rule="nonzero"/></clipPath><clipPath id="6eee00b2d3"><path d="M 1.375 28.101562 L 48.066406 -0.488281 L 76.65625 46.203125 L 29.964844 74.792969 Z M 1.375 28.101562 " clip-rule="nonzero"/></clipPath><clipPath id="c5618b34fb"><path d="M 1.375 28.101562 L 48.066406 -0.488281 L 76.65625 46.203125 L 29.964844 74.792969 Z M 1.375 28.101562 " clip-rule="nonzero"/></clipPath><clipPath id="a2ae85efb7"><path d="M 45 27 L 59 27 L 59 36 L 45 36 Z M 45 27 " clip-rule="nonzero"/></clipPath><clipPath id="04bc8f3679"><path d="M 1.375 28.101562 L 48.066406 -0.488281 L 76.65625 46.203125 L 29.964844 74.792969 Z M 1.375 28.101562 " clip-rule="nonzero"/></clipPath><clipPath id="69c7ba42c5"><path d="M 1.375 28.101562 L 48.066406 -0.488281 L 76.65625 46.203125 L 29.964844 74.792969 Z M 1.375 28.101562 " clip-rule="nonzero"/></clipPath><clipPath id="d15c459825"><path d="M 1.375 28.101562 L 48.066406 -0.488281 L 76.65625 46.203125 L 29.964844 74.792969 Z M 1.375 28.101562 " clip-rule="nonzero"/></clipPath><clipPath id="190205915a"><path d="M 45 27 L 59 27 L 59 37 L 45 37 Z M 45 27 " clip-rule="nonzero"/></clipPath><clipPath id="952d6b3bd6"><path d="M 1.375 28.101562 L 48.066406 -0.488281 L 76.65625 46.203125 L 29.964844 74.792969 Z M 1.375 28.101562 " clip-rule="nonzero"/></clipPath><clipPath id="21da1a4011"><path d="M 1.375 28.101562 L 48.066406 -0.488281 L 76.65625 46.203125 L 29.964844 74.792969 Z M 1.375 28.101562 " clip-rule="nonzero"/></clipPath><clipPath id="e484d1a9c0"><path d="M 1.375 28.101562 L 48.066406 -0.488281 L 76.65625 46.203125 L 29.964844 74.792969 Z M 1.375 28.101562 " clip-rule="nonzero"/></clipPath><clipPath id="ced97b0001"><path d="M 42 47 L 55 47 L 55 59 L 42 59 Z M 42 47 " clip-rule="nonzero"/></clipPath><clipPath id="942d25bbc4"><path d="M 1.375 28.101562 L 48.066406 -0.488281 L 76.65625 46.203125 L 29.964844 74.792969 Z M 1.375 28.101562 " clip-rule="nonzero"/></clipPath><clipPath id="72c1f7e255"><path d="M 1.375 28.101562 L 48.066406 -0.488281 L 76.65625 46.203125 L 29.964844 74.792969 Z M 1.375 28.101562 " clip-rule="nonzero"/></clipPath><clipPath id="d334161f22"><path d="M 1.375 28.101562 L 48.066406 -0.488281 L 76.65625 46.203125 L 29.964844 74.792969 Z M 1.375 28.101562 " clip-rule="nonzero"/></clipPath><clipPath id="7579986d75"><path d="M 41 46 L 55 46 L 55 60 L 41 60 Z M 41 46 " clip-rule="nonzero"/></clipPath><clipPath id="34c0b66817"><path d="M 1.375 28.101562 L 48.066406 -0.488281 L 76.65625 46.203125 L 29.964844 74.792969 Z M 1.375 28.101562 " clip-rule="nonzero"/></clipPath><clipPath id="86bc2ab87d"><path d="M 1.375 28.101562 L 48.066406 -0.488281 L 76.65625 46.203125 L 29.964844 74.792969 Z M 1.375 28.101562 " clip-rule="nonzero"/></clipPath><clipPath id="10b4f0883b"><path d="M 1.375 28.101562 L 48.066406 -0.488281 L 76.65625 46.203125 L 29.964844 74.792969 Z M 1.375 28.101562 " clip-rule="nonzero"/></clipPath><clipPath id="ba8f672fdb"><path d="M 20 39 L 26 39 L 26 43 L 20 43 Z M 20 39 " clip-rule="nonzero"/></clipPath><clipPath id="039ce9aa1a"><path d="M 1.375 28.101562 L 48.066406 -0.488281 L 76.65625 46.203125 L 29.964844 74.792969 Z M 1.375 28.101562 " clip-rule="nonzero"/></clipPath><clipPath id="fd61dd5037"><path d="M 1.375 28.101562 L 48.066406 -0.488281 L 76.65625 46.203125 L 29.964844 74.792969 Z M 1.375 28.101562 " clip-rule="nonzero"/></clipPath><clipPath id="2fa1f02e6a"><path d="M 1.375 28.101562 L 48.066406 -0.488281 L 76.65625 46.203125 L 29.964844 74.792969 Z M 1.375 28.101562 " clip-rule="nonzero"/></clipPath><clipPath id="3345536ce2"><path d="M 19 39 L 26 39 L 26 44 L 19 44 Z M 19 39 " clip-rule="nonzero"/></clipPath><clipPath id="5b51b2f843"><path d="M 1.375 28.101562 L 48.066406 -0.488281 L 76.65625 46.203125 L 29.964844 74.792969 Z M 1.375 28.101562 " clip-rule="nonzero"/></clipPath><clipPath id="0b7f50ba85"><path d="M 1.375 28.101562 L 48.066406 -0.488281 L 76.65625 46.203125 L 29.964844 74.792969 Z M 1.375 28.101562 " clip-rule="nonzero"/></clipPath><clipPath id="276115f0f9"><path d="M 1.375 28.101562 L 48.066406 -0.488281 L 76.65625 46.203125 L 29.964844 74.792969 Z M 1.375 28.101562 " clip-rule="nonzero"/></clipPath><clipPath id="0e6a301d7d"><path d="M 28 20 L 32 20 L 32 26 L 28 26 Z M 28 20 " clip-rule="nonzero"/></clipPath><clipPath id="2ef39b6d71"><path d="M 1.375 28.101562 L 48.066406 -0.488281 L 76.65625 46.203125 L 29.964844 74.792969 Z M 1.375 28.101562 " clip-rule="nonzero"/></clipPath><clipPath id="78f164fe23"><path d="M 1.375 28.101562 L 48.066406 -0.488281 L 76.65625 46.203125 L 29.964844 74.792969 Z M 1.375 28.101562 " clip-rule="nonzero"/></clipPath><clipPath id="7ef7df94bb"><path d="M 1.375 28.101562 L 48.066406 -0.488281 L 76.65625 46.203125 L 29.964844 74.792969 Z M 1.375 28.101562 " clip-rule="nonzero"/></clipPath><clipPath id="91fe0e1746"><path d="M 27 19 L 33 19 L 33 26 L 27 26 Z M 27 19 " clip-rule="nonzero"/></clipPath><clipPath id="44b0fae564"><path d="M 1.375 28.101562 L 48.066406 -0.488281 L 76.65625 46.203125 L 29.964844 74.792969 Z M 1.375 28.101562 " clip-rule="nonzero"/></clipPath><clipPath id="0c5ab6eccf"><path d="M 1.375 28.101562 L 48.066406 -0.488281 L 76.65625 46.203125 L 29.964844 74.792969 Z M 1.375 28.101562 " clip-rule="nonzero"/></clipPath><clipPath id="7e052d80fd"><path d="M 1.375 28.101562 L 48.066406 -0.488281 L 76.65625 46.203125 L 29.964844 74.792969 Z M 1.375 28.101562 " clip-rule="nonzero"/></clipPath><clipPath id="a3e36c2874"><path d="M 43 22 L 49 22 L 49 27 L 43 27 Z M 43 22 " clip-rule="nonzero"/></clipPath><clipPath id="e8580abf57"><path d="M 1.375 28.101562 L 48.066406 -0.488281 L 76.65625 46.203125 L 29.964844 74.792969 Z M 1.375 28.101562 " clip-rule="nonzero"/></clipPath><clipPath id="0def5aad35"><path d="M 1.375 28.101562 L 48.066406 -0.488281 L 76.65625 46.203125 L 29.964844 74.792969 Z M 1.375 28.101562 " clip-rule="nonzero"/></clipPath><clipPath id="6a51db81be"><path d="M 1.375 28.101562 L 48.066406 -0.488281 L 76.65625 46.203125 L 29.964844 74.792969 Z M 1.375 28.101562 " clip-rule="nonzero"/></clipPath><clipPath id="8f978c82da"><path d="M 43 22 L 49 22 L 49 28 L 43 28 Z M 43 22 " clip-rule="nonzero"/></clipPath><clipPath id="65d26491cd"><path d="M 1.375 28.101562 L 48.066406 -0.488281 L 76.65625 46.203125 L 29.964844 74.792969 Z M 1.375 28.101562 " clip-rule="nonzero"/></clipPath><clipPath id="ae065dcf16"><path d="M 1.375 28.101562 L 48.066406 -0.488281 L 76.65625 46.203125 L 29.964844 74.792969 Z M 1.375 28.101562 " clip-rule="nonzero"/></clipPath><clipPath id="a772ee8d70"><path d="M 1.375 28.101562 L 48.066406 -0.488281 L 76.65625 46.203125 L 29.964844 74.792969 Z M 1.375 28.101562 " clip-rule="nonzero"/></clipPath><clipPath id="d4c729b8df"><path d="M 39 41 L 45 41 L 45 46 L 39 46 Z M 39 41 " clip-rule="nonzero"/></clipPath><clipPath id="879f016578"><path d="M 1.375 28.101562 L 48.066406 -0.488281 L 76.65625 46.203125 L 29.964844 74.792969 Z M 1.375 28.101562 " clip-rule="nonzero"/></clipPath><clipPath id="8fbc9fe623"><path d="M 1.375 28.101562 L 48.066406 -0.488281 L 76.65625 46.203125 L 29.964844 74.792969 Z M 1.375 28.101562 " clip-rule="nonzero"/></clipPath><clipPath id="11ebfe9563"><path d="M 1.375 28.101562 L 48.066406 -0.488281 L 76.65625 46.203125 L 29.964844 74.792969 Z M 1.375 28.101562 " clip-rule="nonzero"/></clipPath><clipPath id="ae41eada01"><path d="M 39 40 L 46 40 L 46 46 L 39 46 Z M 39 40 " clip-rule="nonzero"/></clipPath><clipPath id="7c2c6b65b3"><path d="M 1.375 28.101562 L 48.066406 -0.488281 L 76.65625 46.203125 L 29.964844 74.792969 Z M 1.375 28.101562 " clip-rule="nonzero"/></clipPath><clipPath id="5ac70d71a9"><path d="M 1.375 28.101562 L 48.066406 -0.488281 L 76.65625 46.203125 L 29.964844 74.792969 Z M 1.375 28.101562 " clip-rule="nonzero"/></clipPath><clipPath id="ffade0e09a"><path d="M 1.375 28.101562 L 48.066406 -0.488281 L 76.65625 46.203125 L 29.964844 74.792969 Z M 1.375 28.101562 " clip-rule="nonzero"/></clipPath><clipPath id="a81d840147"><path d="M 36 50 L 41 50 L 41 56 L 36 56 Z M 36 50 " clip-rule="nonzero"/></clipPath><clipPath id="27f9596496"><path d="M 1.375 28.101562 L 48.066406 -0.488281 L 76.65625 46.203125 L 29.964844 74.792969 Z M 1.375 28.101562 " clip-rule="nonzero"/></clipPath><clipPath id="434d6b11e7"><path d="M 1.375 28.101562 L 48.066406 -0.488281 L 76.65625 46.203125 L 29.964844 74.792969 Z M 1.375 28.101562 " clip-rule="nonzero"/></clipPath><clipPath id="af3e5878bb"><path d="M 1.375 28.101562 L 48.066406 -0.488281 L 76.65625 46.203125 L 29.964844 74.792969 Z M 1.375 28.101562 " clip-rule="nonzero"/></clipPath><clipPath id="ee517b410b"><path d="M 35 49 L 41 49 L 41 56 L 35 56 Z M 35 49 " clip-rule="nonzero"/></clipPath><clipPath id="a7bb7812b1"><path d="M 1.375 28.101562 L 48.066406 -0.488281 L 76.65625 46.203125 L 29.964844 74.792969 Z M 1.375 28.101562 " clip-rule="nonzero"/></clipPath><clipPath id="e8df9aa38c"><path d="M 1.375 28.101562 L 48.066406 -0.488281 L 76.65625 46.203125 L 29.964844 74.792969 Z M 1.375 28.101562 " clip-rule="nonzero"/></clipPath><clipPath id="c183490b07"><path d="M 1.375 28.101562 L 48.066406 -0.488281 L 76.65625 46.203125 L 29.964844 74.792969 Z M 1.375 28.101562 " clip-rule="nonzero"/></clipPath><clipPath id="1973f0e97a"><path d="M 32 30 L 34 30 L 34 34 L 32 34 Z M 32 30 " clip-rule="nonzero"/></clipPath><clipPath id="102bacb9fa"><path d="M 1.375 28.101562 L 48.066406 -0.488281 L 76.65625 46.203125 L 29.964844 74.792969 Z M 1.375 28.101562 " clip-rule="nonzero"/></clipPath><clipPath id="84d2099363"><path d="M 1.375 28.101562 L 48.066406 -0.488281 L 76.65625 46.203125 L 29.964844 74.792969 Z M 1.375 28.101562 " clip-rule="nonzero"/></clipPath><clipPath id="aea6c1d1a5"><path d="M 1.375 28.101562 L 48.066406 -0.488281 L 76.65625 46.203125 L 29.964844 74.792969 Z M 1.375 28.101562 " clip-rule="nonzero"/></clipPath><clipPath id="e5fb5b2e97"><path d="M 38 31 L 42 31 L 42 33 L 38 33 Z M 38 31 " clip-rule="nonzero"/></clipPath><clipPath id="ef2ecfda1f"><path d="M 1.375 28.101562 L 48.066406 -0.488281 L 76.65625 46.203125 L 29.964844 74.792969 Z M 1.375 28.101562 " clip-rule="nonzero"/></clipPath><clipPath id="0b7f15e235"><path d="M 1.375 28.101562 L 48.066406 -0.488281 L 76.65625 46.203125 L 29.964844 74.792969 Z M 1.375 28.101562 " clip-rule="nonzero"/></clipPath><clipPath id="183df395ce"><path d="M 1.375 28.101562 L 48.066406 -0.488281 L 76.65625 46.203125 L 29.964844 74.792969 Z M 1.375 28.101562 " clip-rule="nonzero"/></clipPath><clipPath id="9380ab22ff"><path d="M 35 28 L 39 28 L 39 31 L 35 31 Z M 35 28 " clip-rule="nonzero"/></clipPath><clipPath id="3ffb961437"><path d="M 1.375 28.101562 L 48.066406 -0.488281 L 76.65625 46.203125 L 29.964844 74.792969 Z M 1.375 28.101562 " clip-rule="nonzero"/></clipPath><clipPath id="d62d81ec02"><path d="M 1.375 28.101562 L 48.066406 -0.488281 L 76.65625 46.203125 L 29.964844 74.792969 Z M 1.375 28.101562 " clip-rule="nonzero"/></clipPath><clipPath id="ba791d706c"><path d="M 1.375 28.101562 L 48.066406 -0.488281 L 76.65625 46.203125 L 29.964844 74.792969 Z M 1.375 28.101562 " clip-rule="nonzero"/></clipPath><clipPath id="8b1ced9d66"><path d="M 34 31 L 38 31 L 38 34 L 34 34 Z M 34 31 " clip-rule="nonzero"/></clipPath><clipPath id="76ebe43f86"><path d="M 1.375 28.101562 L 48.066406 -0.488281 L 76.65625 46.203125 L 29.964844 74.792969 Z M 1.375 28.101562 " clip-rule="nonzero"/></clipPath><clipPath id="7edbce0ae6"><path d="M 1.375 28.101562 L 48.066406 -0.488281 L 76.65625 46.203125 L 29.964844 74.792969 Z M 1.375 28.101562 " clip-rule="nonzero"/></clipPath><clipPath id="69d3d0b468"><path d="M 1.375 28.101562 L 48.066406 -0.488281 L 76.65625 46.203125 L 29.964844 74.792969 Z M 1.375 28.101562 " clip-rule="nonzero"/></clipPath><clipPath id="f7dfe17408"><path d="M 33 35 L 37 35 L 37 37 L 33 37 Z M 33 35 " clip-rule="nonzero"/></clipPath><clipPath id="1440a09b65"><path d="M 1.375 28.101562 L 48.066406 -0.488281 L 76.65625 46.203125 L 29.964844 74.792969 Z M 1.375 28.101562 " clip-rule="nonzero"/></clipPath><clipPath id="70a0d0fbcf"><path d="M 1.375 28.101562 L 48.066406 -0.488281 L 76.65625 46.203125 L 29.964844 74.792969 Z M 1.375 28.101562 " clip-rule="nonzero"/></clipPath><clipPath id="ce0082afea"><path d="M 1.375 28.101562 L 48.066406 -0.488281 L 76.65625 46.203125 L 29.964844 74.792969 Z M 1.375 28.101562 " clip-rule="nonzero"/></clipPath><clipPath id="119bdbe4a5"><path d="M 37 34 L 40 34 L 40 38 L 37 38 Z M 37 34 " clip-rule="nonzero"/></clipPath><clipPath id="e0bcacdf26"><path d="M 1.375 28.101562 L 48.066406 -0.488281 L 76.65625 46.203125 L 29.964844 74.792969 Z M 1.375 28.101562 " clip-rule="nonzero"/></clipPath><clipPath id="34f876c872"><path d="M 1.375 28.101562 L 48.066406 -0.488281 L 76.65625 46.203125 L 29.964844 74.792969 Z M 1.375 28.101562 " clip-rule="nonzero"/></clipPath><clipPath id="2e94b685e1"><path d="M 1.375 28.101562 L 48.066406 -0.488281 L 76.65625 46.203125 L 29.964844 74.792969 Z M 1.375 28.101562 " clip-rule="nonzero"/></clipPath><clipPath id="6bddec5bd4"><path d="M 26 46 L 28 46 L 28 50 L 26 50 Z M 26 46 " clip-rule="nonzero"/></clipPath><clipPath id="4515b06eaa"><path d="M 1.375 28.101562 L 48.066406 -0.488281 L 76.65625 46.203125 L 29.964844 74.792969 Z M 1.375 28.101562 " clip-rule="nonzero"/></clipPath><clipPath id="f178a257d9"><path d="M 1.375 28.101562 L 48.066406 -0.488281 L 76.65625 46.203125 L 29.964844 74.792969 Z M 1.375 28.101562 " clip-rule="nonzero"/></clipPath><clipPath id="850913c5ac"><path d="M 1.375 28.101562 L 48.066406 -0.488281 L 76.65625 46.203125 L 29.964844 74.792969 Z M 1.375 28.101562 " clip-rule="nonzero"/></clipPath><clipPath id="e75dfb16d2"><path d="M 32 47 L 36 47 L 36 49 L 32 49 Z M 32 47 " clip-rule="nonzero"/></clipPath><clipPath id="b2d8ab8b3f"><path d="M 1.375 28.101562 L 48.066406 -0.488281 L 76.65625 46.203125 L 29.964844 74.792969 Z M 1.375 28.101562 " clip-rule="nonzero"/></clipPath><clipPath id="243b49a007"><path d="M 1.375 28.101562 L 48.066406 -0.488281 L 76.65625 46.203125 L 29.964844 74.792969 Z M 1.375 28.101562 " clip-rule="nonzero"/></clipPath><clipPath id="d0f8e388bb"><path d="M 1.375 28.101562 L 48.066406 -0.488281 L 76.65625 46.203125 L 29.964844 74.792969 Z M 1.375 28.101562 " clip-rule="nonzero"/></clipPath><clipPath id="ffb093b782"><path d="M 29 44 L 33 44 L 33 47 L 29 47 Z M 29 44 " clip-rule="nonzero"/></clipPath><clipPath id="7053cc020f"><path d="M 1.375 28.101562 L 48.066406 -0.488281 L 76.65625 46.203125 L 29.964844 74.792969 Z M 1.375 28.101562 " clip-rule="nonzero"/></clipPath><clipPath id="a114fcc267"><path d="M 1.375 28.101562 L 48.066406 -0.488281 L 76.65625 46.203125 L 29.964844 74.792969 Z M 1.375 28.101562 " clip-rule="nonzero"/></clipPath><clipPath id="0a047ce11a"><path d="M 1.375 28.101562 L 48.066406 -0.488281 L 76.65625 46.203125 L 29.964844 74.792969 Z M 1.375 28.101562 " clip-rule="nonzero"/></clipPath><clipPath id="03357faadd"><path d="M 28 47 L 32 47 L 32 50 L 28 50 Z M 28 47 " clip-rule="nonzero"/></clipPath><clipPath id="6bbbc0918d"><path d="M 1.375 28.101562 L 48.066406 -0.488281 L 76.65625 46.203125 L 29.964844 74.792969 Z M 1.375 28.101562 " clip-rule="nonzero"/></clipPath><clipPath id="d3fcd05194"><path d="M 1.375 28.101562 L 48.066406 -0.488281 L 76.65625 46.203125 L 29.964844 74.792969 Z M 1.375 28.101562 " clip-rule="nonzero"/></clipPath><clipPath id="f3351279de"><path d="M 1.375 28.101562 L 48.066406 -0.488281 L 76.65625 46.203125 L 29.964844 74.792969 Z M 1.375 28.101562 " clip-rule="nonzero"/></clipPath><clipPath id="06e5c33c44"><path d="M 27 51 L 31 51 L 31 53 L 27 53 Z M 27 51 " clip-rule="nonzero"/></clipPath><clipPath id="8bccc87f33"><path d="M 1.375 28.101562 L 48.066406 -0.488281 L 76.65625 46.203125 L 29.964844 74.792969 Z M 1.375 28.101562 " clip-rule="nonzero"/></clipPath><clipPath id="79816d9707"><path d="M 1.375 28.101562 L 48.066406 -0.488281 L 76.65625 46.203125 L 29.964844 74.792969 Z M 1.375 28.101562 " clip-rule="nonzero"/></clipPath><clipPath id="d06252af80"><path d="M 1.375 28.101562 L 48.066406 -0.488281 L 76.65625 46.203125 L 29.964844 74.792969 Z M 1.375 28.101562 " clip-rule="nonzero"/></clipPath><clipPath id="2cd3f9c418"><path d="M 31 50 L 34 50 L 34 54 L 31 54 Z M 31 50 " clip-rule="nonzero"/></clipPath><clipPath id="520078b4b1"><path d="M 1.375 28.101562 L 48.066406 -0.488281 L 76.65625 46.203125 L 29.964844 74.792969 Z M 1.375 28.101562 " clip-rule="nonzero"/></clipPath><clipPath id="87782a1624"><path d="M 1.375 28.101562 L 48.066406 -0.488281 L 76.65625 46.203125 L 29.964844 74.792969 Z M 1.375 28.101562 " clip-rule="nonzero"/></clipPath><clipPath id="8057444b62"><path d="M 1.375 28.101562 L 48.066406 -0.488281 L 76.65625 46.203125 L 29.964844 74.792969 Z M 1.375 28.101562 " clip-rule="nonzero"/></clipPath><clipPath id="d0c92f2a26"><path d="M 44 51 L 46 51 L 46 55 L 44 55 Z M 44 51 " clip-rule="nonzero"/></clipPath><clipPath id="3649f59727"><path d="M 1.375 28.101562 L 48.066406 -0.488281 L 76.65625 46.203125 L 29.964844 74.792969 Z M 1.375 28.101562 " clip-rule="nonzero"/></clipPath><clipPath id="16f321279b"><path d="M 1.375 28.101562 L 48.066406 -0.488281 L 76.65625 46.203125 L 29.964844 74.792969 Z M 1.375 28.101562 " clip-rule="nonzero"/></clipPath><clipPath id="6c2e99127d"><path d="M 1.375 28.101562 L 48.066406 -0.488281 L 76.65625 46.203125 L 29.964844 74.792969 Z M 1.375 28.101562 " clip-rule="nonzero"/></clipPath><clipPath id="704cc0558c"><path d="M 50 51 L 54 51 L 54 54 L 50 54 Z M 50 51 " clip-rule="nonzero"/></clipPath><clipPath id="d1632e379e"><path d="M 1.375 28.101562 L 48.066406 -0.488281 L 76.65625 46.203125 L 29.964844 74.792969 Z M 1.375 28.101562 " clip-rule="nonzero"/></clipPath><clipPath id="9a518735ec"><path d="M 1.375 28.101562 L 48.066406 -0.488281 L 76.65625 46.203125 L 29.964844 74.792969 Z M 1.375 28.101562 " clip-rule="nonzero"/></clipPath><clipPath id="b2ede695f5"><path d="M 1.375 28.101562 L 48.066406 -0.488281 L 76.65625 46.203125 L 29.964844 74.792969 Z M 1.375 28.101562 " clip-rule="nonzero"/></clipPath><clipPath id="319283a566"><path d="M 47 48 L 51 48 L 51 51 L 47 51 Z M 47 48 " clip-rule="nonzero"/></clipPath><clipPath id="bf06f05dc1"><path d="M 1.375 28.101562 L 48.066406 -0.488281 L 76.65625 46.203125 L 29.964844 74.792969 Z M 1.375 28.101562 " clip-rule="nonzero"/></clipPath><clipPath id="7c8e46a1ae"><path d="M 1.375 28.101562 L 48.066406 -0.488281 L 76.65625 46.203125 L 29.964844 74.792969 Z M 1.375 28.101562 " clip-rule="nonzero"/></clipPath><clipPath id="687bd3363a"><path d="M 1.375 28.101562 L 48.066406 -0.488281 L 76.65625 46.203125 L 29.964844 74.792969 Z M 1.375 28.101562 " clip-rule="nonzero"/></clipPath><clipPath id="5f5a68a453"><path d="M 47 51 L 50 51 L 50 55 L 47 55 Z M 47 51 " clip-rule="nonzero"/></clipPath><clipPath id="c022b71586"><path d="M 1.375 28.101562 L 48.066406 -0.488281 L 76.65625 46.203125 L 29.964844 74.792969 Z M 1.375 28.101562 " clip-rule="nonzero"/></clipPath><clipPath id="8987fd8518"><path d="M 1.375 28.101562 L 48.066406 -0.488281 L 76.65625 46.203125 L 29.964844 74.792969 Z M 1.375 28.101562 " clip-rule="nonzero"/></clipPath><clipPath id="81de0facfb"><path d="M 1.375 28.101562 L 48.066406 -0.488281 L 76.65625 46.203125 L 29.964844 74.792969 Z M 1.375 28.101562 " clip-rule="nonzero"/></clipPath><clipPath id="15729212b8"><path d="M 45 55 L 49 55 L 49 58 L 45 58 Z M 45 55 " clip-rule="nonzero"/></clipPath><clipPath id="4b4b277b5d"><path d="M 1.375 28.101562 L 48.066406 -0.488281 L 76.65625 46.203125 L 29.964844 74.792969 Z M 1.375 28.101562 " clip-rule="nonzero"/></clipPath><clipPath id="804378fde0"><path d="M 1.375 28.101562 L 48.066406 -0.488281 L 76.65625 46.203125 L 29.964844 74.792969 Z M 1.375 28.101562 " clip-rule="nonzero"/></clipPath><clipPath id="2cdc9dddf7"><path d="M 1.375 28.101562 L 48.066406 -0.488281 L 76.65625 46.203125 L 29.964844 74.792969 Z M 1.375 28.101562 " clip-rule="nonzero"/></clipPath><clipPath id="101d1dc718"><path d="M 50 54 L 52 54 L 52 57 L 50 57 Z M 50 54 " clip-rule="nonzero"/></clipPath><clipPath id="21efd1f880"><path d="M 1.375 28.101562 L 48.066406 -0.488281 L 76.65625 46.203125 L 29.964844 74.792969 Z M 1.375 28.101562 " clip-rule="nonzero"/></clipPath><clipPath id="49817c62c5"><path d="M 1.375 28.101562 L 48.066406 -0.488281 L 76.65625 46.203125 L 29.964844 74.792969 Z M 1.375 28.101562 " clip-rule="nonzero"/></clipPath><clipPath id="d64f7e1a89"><path d="M 1.375 28.101562 L 48.066406 -0.488281 L 76.65625 46.203125 L 29.964844 74.792969 Z M 1.375 28.101562 " clip-rule="nonzero"/></clipPath><clipPath id="e5d1094643"><path d="M 47 31 L 50 31 L 50 35 L 47 35 Z M 47 31 " clip-rule="nonzero"/></clipPath><clipPath id="ad55d243b1"><path d="M 1.375 28.101562 L 48.066406 -0.488281 L 76.65625 46.203125 L 29.964844 74.792969 Z M 1.375 28.101562 " clip-rule="nonzero"/></clipPath><clipPath id="0d65c4de66"><path d="M 1.375 28.101562 L 48.066406 -0.488281 L 76.65625 46.203125 L 29.964844 74.792969 Z M 1.375 28.101562 " clip-rule="nonzero"/></clipPath><clipPath id="f7abd9313f"><path d="M 1.375 28.101562 L 48.066406 -0.488281 L 76.65625 46.203125 L 29.964844 74.792969 Z M 1.375 28.101562 " clip-rule="nonzero"/></clipPath><clipPath id="fc7ed556c6"><path d="M 53 32 L 57 32 L 57 34 L 53 34 Z M 53 32 " clip-rule="nonzero"/></clipPath><clipPath id="2d85c358ee"><path d="M 1.375 28.101562 L 48.066406 -0.488281 L 76.65625 46.203125 L 29.964844 74.792969 Z M 1.375 28.101562 " clip-rule="nonzero"/></clipPath><clipPath id="7457da7f00"><path d="M 1.375 28.101562 L 48.066406 -0.488281 L 76.65625 46.203125 L 29.964844 74.792969 Z M 1.375 28.101562 " clip-rule="nonzero"/></clipPath><clipPath id="5ea10994f9"><path d="M 1.375 28.101562 L 48.066406 -0.488281 L 76.65625 46.203125 L 29.964844 74.792969 Z M 1.375 28.101562 " clip-rule="nonzero"/></clipPath><clipPath id="c9ef22dc16"><path d="M 51 29 L 55 29 L 55 32 L 51 32 Z M 51 29 " clip-rule="nonzero"/></clipPath><clipPath id="cb45aed66e"><path d="M 1.375 28.101562 L 48.066406 -0.488281 L 76.65625 46.203125 L 29.964844 74.792969 Z M 1.375 28.101562 " clip-rule="nonzero"/></clipPath><clipPath id="8c9960f6f6"><path d="M 1.375 28.101562 L 48.066406 -0.488281 L 76.65625 46.203125 L 29.964844 74.792969 Z M 1.375 28.101562 " clip-rule="nonzero"/></clipPath><clipPath id="30b1581c2e"><path d="M 1.375 28.101562 L 48.066406 -0.488281 L 76.65625 46.203125 L 29.964844 74.792969 Z M 1.375 28.101562 " clip-rule="nonzero"/></clipPath><clipPath id="ce606bbf25"><path d="M 50 32 L 53 32 L 53 35 L 50 35 Z M 50 32 " clip-rule="nonzero"/></clipPath><clipPath id="d896925f98"><path d="M 1.375 28.101562 L 48.066406 -0.488281 L 76.65625 46.203125 L 29.964844 74.792969 Z M 1.375 28.101562 " clip-rule="nonzero"/></clipPath><clipPath id="c91e8a0fce"><path d="M 1.375 28.101562 L 48.066406 -0.488281 L 76.65625 46.203125 L 29.964844 74.792969 Z M 1.375 28.101562 " clip-rule="nonzero"/></clipPath><clipPath id="6debfa589e"><path d="M 1.375 28.101562 L 48.066406 -0.488281 L 76.65625 46.203125 L 29.964844 74.792969 Z M 1.375 28.101562 " clip-rule="nonzero"/></clipPath><clipPath id="98e66378d5"><path d="M 21 28 L 25 28 L 25 31 L 21 31 Z M 21 28 " clip-rule="nonzero"/></clipPath><clipPath id="eb46b4c569"><path d="M 1.375 28.101562 L 48.066406 -0.488281 L 76.65625 46.203125 L 29.964844 74.792969 Z M 1.375 28.101562 " clip-rule="nonzero"/></clipPath><clipPath id="6c636f9dbb"><path d="M 1.375 28.101562 L 48.066406 -0.488281 L 76.65625 46.203125 L 29.964844 74.792969 Z M 1.375 28.101562 " clip-rule="nonzero"/></clipPath><clipPath id="53b94c0cbd"><path d="M 1.375 28.101562 L 48.066406 -0.488281 L 76.65625 46.203125 L 29.964844 74.792969 Z M 1.375 28.101562 " clip-rule="nonzero"/></clipPath><clipPath id="910bb52604"><path d="M 19 25 L 23 25 L 23 28 L 19 28 Z M 19 25 " clip-rule="nonzero"/></clipPath><clipPath id="8a7628ab03"><path d="M 1.375 28.101562 L 48.066406 -0.488281 L 76.65625 46.203125 L 29.964844 74.792969 Z M 1.375 28.101562 " clip-rule="nonzero"/></clipPath><clipPath id="3a3487af35"><path d="M 1.375 28.101562 L 48.066406 -0.488281 L 76.65625 46.203125 L 29.964844 74.792969 Z M 1.375 28.101562 " clip-rule="nonzero"/></clipPath><clipPath id="7d4136e3ea"><path d="M 1.375 28.101562 L 48.066406 -0.488281 L 76.65625 46.203125 L 29.964844 74.792969 Z M 1.375 28.101562 " clip-rule="nonzero"/></clipPath><clipPath id="5e1994f857"><path d="M 18 28 L 21 28 L 21 32 L 18 32 Z M 18 28 " clip-rule="nonzero"/></clipPath><clipPath id="396db4cffa"><path d="M 1.375 28.101562 L 48.066406 -0.488281 L 76.65625 46.203125 L 29.964844 74.792969 Z M 1.375 28.101562 " clip-rule="nonzero"/></clipPath><clipPath id="2bc871ebc0"><path d="M 1.375 28.101562 L 48.066406 -0.488281 L 76.65625 46.203125 L 29.964844 74.792969 Z M 1.375 28.101562 " clip-rule="nonzero"/></clipPath><clipPath id="b2ec2818a1"><path d="M 1.375 28.101562 L 48.066406 -0.488281 L 76.65625 46.203125 L 29.964844 74.792969 Z M 1.375 28.101562 " clip-rule="nonzero"/></clipPath><clipPath id="f63975a7c5"><path d="M 16 32 L 20 32 L 20 35 L 16 35 Z M 16 32 " clip-rule="nonzero"/></clipPath><clipPath id="ec4e746a34"><path d="M 1.375 28.101562 L 48.066406 -0.488281 L 76.65625 46.203125 L 29.964844 74.792969 Z M 1.375 28.101562 " clip-rule="nonzero"/></clipPath><clipPath id="9287881c41"><path d="M 1.375 28.101562 L 48.066406 -0.488281 L 76.65625 46.203125 L 29.964844 74.792969 Z M 1.375 28.101562 " clip-rule="nonzero"/></clipPath><clipPath id="400986e3f8"><path d="M 1.375 28.101562 L 48.066406 -0.488281 L 76.65625 46.203125 L 29.964844 74.792969 Z M 1.375 28.101562 " clip-rule="nonzero"/></clipPath><clipPath id="d24a896fe7"><path d="M 21 31 L 24 31 L 24 35 L 21 35 Z M 21 31 " clip-rule="nonzero"/></clipPath><clipPath id="db7f119ec7"><path d="M 1.375 28.101562 L 48.066406 -0.488281 L 76.65625 46.203125 L 29.964844 74.792969 Z M 1.375 28.101562 " clip-rule="nonzero"/></clipPath><clipPath id="1654c3c09d"><path d="M 1.375 28.101562 L 48.066406 -0.488281 L 76.65625 46.203125 L 29.964844 74.792969 Z M 1.375 28.101562 " clip-rule="nonzero"/></clipPath><clipPath id="3387bced41"><path d="M 1.375 28.101562 L 48.066406 -0.488281 L 76.65625 46.203125 L 29.964844 74.792969 Z M 1.375 28.101562 " clip-rule="nonzero"/></clipPath><clipPath id="017511c1be"><path d="M 36 14 L 39 14 L 39 18 L 36 18 Z M 36 14 " clip-rule="nonzero"/></clipPath><clipPath id="94cfed88d7"><path d="M 1.375 28.101562 L 48.066406 -0.488281 L 76.65625 46.203125 L 29.964844 74.792969 Z M 1.375 28.101562 " clip-rule="nonzero"/></clipPath><clipPath id="2606133273"><path d="M 1.375 28.101562 L 48.066406 -0.488281 L 76.65625 46.203125 L 29.964844 74.792969 Z M 1.375 28.101562 " clip-rule="nonzero"/></clipPath><clipPath id="d76b89da08"><path d="M 1.375 28.101562 L 48.066406 -0.488281 L 76.65625 46.203125 L 29.964844 74.792969 Z M 1.375 28.101562 " clip-rule="nonzero"/></clipPath><clipPath id="39d433e4af"><path d="M 42 15 L 46 15 L 46 17 L 42 17 Z M 42 15 " clip-rule="nonzero"/></clipPath><clipPath id="e57b87031d"><path d="M 1.375 28.101562 L 48.066406 -0.488281 L 76.65625 46.203125 L 29.964844 74.792969 Z M 1.375 28.101562 " clip-rule="nonzero"/></clipPath><clipPath id="d56333de52"><path d="M 1.375 28.101562 L 48.066406 -0.488281 L 76.65625 46.203125 L 29.964844 74.792969 Z M 1.375 28.101562 " clip-rule="nonzero"/></clipPath><clipPath id="a4087e437f"><path d="M 1.375 28.101562 L 48.066406 -0.488281 L 76.65625 46.203125 L 29.964844 74.792969 Z M 1.375 28.101562 " clip-rule="nonzero"/></clipPath><clipPath id="c2c2e0193e"><path d="M 39 15 L 42 15 L 42 18 L 39 18 Z M 39 15 " clip-rule="nonzero"/></clipPath><clipPath id="383245dbe4"><path d="M 1.375 28.101562 L 48.066406 -0.488281 L 76.65625 46.203125 L 29.964844 74.792969 Z M 1.375 28.101562 " clip-rule="nonzero"/></clipPath><clipPath id="135b11c3c6"><path d="M 1.375 28.101562 L 48.066406 -0.488281 L 76.65625 46.203125 L 29.964844 74.792969 Z M 1.375 28.101562 " clip-rule="nonzero"/></clipPath><clipPath id="11ebce0903"><path d="M 1.375 28.101562 L 48.066406 -0.488281 L 76.65625 46.203125 L 29.964844 74.792969 Z M 1.375 28.101562 " clip-rule="nonzero"/></clipPath><clipPath id="588ea4bfcf"><path d="M 37 19 L 41 19 L 41 21 L 37 21 Z M 37 19 " clip-rule="nonzero"/></clipPath><clipPath id="86fd22f8b4"><path d="M 1.375 28.101562 L 48.066406 -0.488281 L 76.65625 46.203125 L 29.964844 74.792969 Z M 1.375 28.101562 " clip-rule="nonzero"/></clipPath><clipPath id="09f22e50cc"><path d="M 1.375 28.101562 L 48.066406 -0.488281 L 76.65625 46.203125 L 29.964844 74.792969 Z M 1.375 28.101562 " clip-rule="nonzero"/></clipPath><clipPath id="c90daac19d"><path d="M 1.375 28.101562 L 48.066406 -0.488281 L 76.65625 46.203125 L 29.964844 74.792969 Z M 1.375 28.101562 " clip-rule="nonzero"/></clipPath><clipPath id="b3844facc0"><path d="M 42 18 L 45 18 L 45 21 L 42 21 Z M 42 18 " clip-rule="nonzero"/></clipPath><clipPath id="2a0ee3a62c"><path d="M 1.375 28.101562 L 48.066406 -0.488281 L 76.65625 46.203125 L 29.964844 74.792969 Z M 1.375 28.101562 " clip-rule="nonzero"/></clipPath><clipPath id="07c76a8003"><path d="M 1.375 28.101562 L 48.066406 -0.488281 L 76.65625 46.203125 L 29.964844 74.792969 Z M 1.375 28.101562 " clip-rule="nonzero"/></clipPath><clipPath id="416279b788"><path d="M 1.375 28.101562 L 48.066406 -0.488281 L 76.65625 46.203125 L 29.964844 74.792969 Z M 1.375 28.101562 " clip-rule="nonzero"/></clipPath></defs><g clip-path="url(#75e9f43b88)"><g clip-path="url(#efd05a8fc7)"><g clip-path="url(#498d04639a)"><g clip-path="url(#63f62a5748)"><path fill="#efbc3d" d="M 38.328125 35.808594 L 65.757812 35.621094 C 65.515625 31.347656 64.246094 27.074219 61.855469 23.167969 C 54.128906 10.554688 37.644531 6.589844 25.03125 14.3125 C 12.417969 22.035156 8.453125 38.523438 16.175781 51.136719 C 23.898438 63.75 40.386719 67.714844 53 59.988281 C 54.566406 59.03125 56 57.9375 57.296875 56.730469 L 38.328125 35.808594 " fill-opacity="1" fill-rule="nonzero"/></g></g></g></g><g clip-path="url(#97a75a2ede)"><g clip-path="url(#7480169be3)"><g clip-path="url(#e3019457de)"><g clip-path="url(#aac8f02a50)"><path stroke-linecap="round" transform="matrix(0.0201433, -0.012334, -0.012334, -0.0201433, 22.412653, 106.19819)" fill="none" stroke-linejoin="round" d="M 2130.878969 2189.67588 L 3125.423756 1590.011552 C 3211.15922 1749.666334 3259.800545 1932.034338 3259.844681 2125.930271 C 3259.725986 2752.180179 2752.271102 3259.92709 2126.021193 3259.808394 C 1499.716604 3259.917103 992.165416 2752.148453 992.143069 2125.984906 C 992.120722 1499.821359 1499.803011 992.129129 2126.05292 992.247825 C 2203.769607 992.172017 2279.713527 999.969001 2353.225464 1014.878886 Z M 2130.878969 2189.67588 " stroke="#000000" stroke-width="50" stroke-opacity="1" stroke-miterlimit="10"/></g></g></g></g><g clip-path="url(#f85c66a712)"><g clip-path="url(#96eee33497)"><g clip-path="url(#d5be034d90)"><g clip-path="url(#d4cad057b2)"><path fill="#faf5a3" d="M 57.871094 25.605469 C 59.800781 28.757812 60.839844 32.203125 61.070312 35.65625 L 58.070312 35.675781 L 46.03125 35.757812 L 38.328125 35.8125 L 48.742188 47.296875 L 54.15625 53.265625 C 53.882812 53.519531 53.605469 53.765625 53.320312 54.007812 C 53.179688 54.128906 53.035156 54.246094 52.890625 54.367188 L 52.886719 54.367188 C 52.597656 54.601562 52.296875 54.828125 51.988281 55.050781 C 51.835938 55.164062 51.679688 55.273438 51.523438 55.378906 C 51.40625 55.460938 51.289062 55.539062 51.167969 55.621094 C 51.109375 55.660156 51.050781 55.695312 50.992188 55.734375 C 50.847656 55.824219 50.703125 55.917969 50.558594 56.003906 C 48.753906 57.109375 46.851562 57.925781 44.910156 58.464844 C 35.648438 61.03125 25.429688 57.304688 20.160156 48.695312 C 17.703125 44.679688 16.679688 40.1875 16.949219 35.820312 C 17.199219 31.644531 18.632812 27.585938 21.121094 24.160156 C 22.78125 21.871094 24.910156 19.863281 27.46875 18.296875 C 29.804688 16.867188 32.292969 15.925781 34.832031 15.4375 C 39.007812 14.632812 43.304688 15.066406 47.191406 16.609375 C 51.480469 18.316406 55.273438 21.367188 57.871094 25.605469 " fill-opacity="1" fill-rule="nonzero"/></g></g></g></g><g clip-path="url(#35ddaaef51)"><g clip-path="url(#ed37175f25)"><g clip-path="url(#fdcb45595c)"><g clip-path="url(#02112da8f3)"><path stroke-linecap="round" transform="matrix(0.0201433, -0.012334, -0.012334, -0.0201433, 22.412653, 106.19819)" fill="none" stroke-linejoin="round" d="M 3062.091557 2126.009139 C 3062.0723 1969.525104 3023.418232 1822.153441 2955.395673 1692.376638 L 2846.643335 1757.997486 L 2410.137197 2021.203455 L 2130.792606 2189.534838 L 2252.907076 1544.629074 L 2316.430556 1209.418547 C 2300.944057 1206.296138 2285.489241 1203.542176 2269.838701 1201.10198 C 2262.083953 1199.838701 2254.274524 1198.802827 2246.378733 1197.62591 L 2246.237691 1197.712272 C 2230.618833 1195.640523 2214.749573 1194.109944 2198.68459 1192.893133 C 2190.679438 1192.171025 2182.619606 1191.676321 2174.646137 1191.32266 C 2168.601263 1190.951632 2162.642751 1190.721647 2156.456835 1190.436981 C 2153.477579 1190.321988 2150.584685 1190.348038 2147.605429 1190.233045 C 2140.400535 1190.184467 2133.109279 1189.994847 2125.990746 1190.087311 C 2036.388717 1190.071595 1949.65142 1202.652065 1867.635407 1226.110162 C 1476.484114 1338.209772 1189.906719 1698.687317 1189.982556 2126.04708 C 1190.047109 2325.360353 1252.410378 2510.185919 1358.695079 2661.912289 C 1460.042828 2807.159393 1601.535549 2922.007524 1767.119052 2990.689039 C 1877.670218 3036.635984 1998.928398 3062.064433 2125.942324 3062.05527 C 2241.894165 3062.032262 2352.5514 3041.010839 2455.024187 3002.505796 C 2623.589047 2939.239483 2769.149448 2828.585519 2875.373578 2686.943543 C 2992.497863 2530.482496 3062.001223 2336.470861 3062.091557 2126.009139 Z M 3062.091557 2126.009139 " stroke="#000000" stroke-width="50" stroke-opacity="1" stroke-miterlimit="10"/></g></g></g></g><g clip-path="url(#4c3cff1628)"><g clip-path="url(#394ba3465e)"><g clip-path="url(#7e95736a82)"><g clip-path="url(#64e4fa4562)"><path fill="#ef3638" d="M 25.203125 27.019531 C 27.007812 29.964844 26.082031 33.816406 23.136719 35.621094 C 21.183594 36.816406 18.835938 36.8125 16.949219 35.820312 C 17.199219 31.644531 18.632812 27.585938 21.121094 24.160156 C 22.761719 24.492188 24.261719 25.480469 25.203125 27.019531 " fill-opacity="1" fill-rule="nonzero"/></g></g></g></g><g clip-path="url(#cf084390e8)"><g clip-path="url(#45cd9a7ddf)"><g clip-path="url(#cb6cabfc8e)"><g clip-path="url(#289bd12e5f)"><path stroke-linecap="round" transform="matrix(0.0201433, -0.012334, -0.012334, -0.0201433, 22.412653, 106.19819)" fill="none" stroke-linejoin="round" d="M 1851.291287 2797.197686 C 1851.335863 2650.952481 1732.755838 2532.352528 1586.510633 2532.307951 C 1489.562667 2532.330019 1404.882574 2584.374657 1358.695079 2661.912289 C 1460.042828 2807.159393 1601.535549 2922.007524 1767.119052 2990.689039 C 1819.016066 2942.428375 1851.32673 2873.581629 1851.291287 2797.197686 Z M 1851.291287 2797.197686 " stroke="#000000" stroke-width="50" stroke-opacity="1" stroke-miterlimit="10"/></g></g></g></g><g clip-path="url(#f1bd579936)"><g clip-path="url(#a1e1f757e6)"><g clip-path="url(#db74a44b9f)"><g clip-path="url(#bf034dbc0c)"><path fill="#ef3638" d="M 47.191406 16.609375 C 47.246094 18.773438 46.183594 20.902344 44.207031 22.113281 C 41.257812 23.917969 37.40625 22.992188 35.605469 20.046875 C 34.726562 18.609375 34.492188 16.960938 34.832031 15.4375 C 39.007812 14.632812 43.304688 15.066406 47.191406 16.609375 " fill-opacity="1" fill-rule="nonzero"/></g></g></g></g><g clip-path="url(#530aa393c0)"><g clip-path="url(#02c7ea00e4)"><g clip-path="url(#90c1db93fb)"><g clip-path="url(#4374adb5a7)"><path stroke-linecap="round" transform="matrix(0.0201433, -0.012334, -0.012334, -0.0201433, 22.412653, 106.19819)" fill="none" stroke-linejoin="round" d="M 2875.373578 2686.943543 C 2829.503591 2607.59701 2744.07275 2554.219407 2645.933081 2554.195478 C 2499.546834 2554.237263 2380.946881 2672.817289 2381.043346 2818.976132 C 2381.090053 2890.31118 2409.213342 2954.926415 2455.024187 3002.505796 C 2623.589047 2939.239483 2769.149448 2828.585519 2875.373578 2686.943543 Z M 2875.373578 2686.943543 " stroke="#000000" stroke-width="50" stroke-opacity="1" stroke-miterlimit="10"/></g></g></g></g><g clip-path="url(#da16bee0e0)"><g clip-path="url(#9101eff09a)"><g clip-path="url(#45e1d55d66)"><g clip-path="url(#edef57d006)"><path fill="#ef3638" d="M 35.835938 45.738281 C 37.640625 48.6875 36.714844 52.539062 33.769531 54.34375 C 30.820312 56.144531 26.96875 55.21875 25.164062 52.273438 C 23.363281 49.328125 24.289062 45.476562 27.234375 43.671875 C 30.183594 41.867188 34.03125 42.796875 35.835938 45.738281 " fill-opacity="1" fill-rule="nonzero"/></g></g></g></g><g clip-path="url(#2d22ab1cf5)"><g clip-path="url(#59b6386872)"><g clip-path="url(#d4ae99ed61)"><g clip-path="url(#d1f67a8c55)"><path stroke-linecap="round" transform="matrix(0.0201433, -0.012334, -0.012334, -0.0201433, 22.412653, 106.19819)" fill="none" stroke-linejoin="round" d="M 1821.361599 1886.245208 C 1821.319814 1739.858961 1702.739788 1621.259008 1556.494583 1621.214431 C 1410.194698 1621.397258 1291.594744 1739.977284 1291.550167 1886.222489 C 1291.646633 2032.381332 1410.226658 2150.981285 1556.471863 2151.025862 C 1702.858111 2150.984077 1821.23066 2032.349371 1821.361599 1886.245208 Z M 1821.361599 1886.245208 " stroke="#000000" stroke-width="50" stroke-opacity="1" stroke-miterlimit="10"/></g></g></g></g><g clip-path="url(#bbbd36dda7)"><g clip-path="url(#decd9908f2)"><g clip-path="url(#5a9cc0b492)"><g clip-path="url(#80f982aadd)"><path fill="#ef3638" d="M 41.640625 29.902344 C 43.445312 32.851562 42.515625 36.699219 39.570312 38.503906 C 36.625 40.308594 32.773438 39.382812 30.96875 36.4375 C 29.164062 33.488281 30.09375 29.640625 33.039062 27.835938 C 35.984375 26.03125 39.835938 26.957031 41.640625 29.902344 " fill-opacity="1" fill-rule="nonzero"/></g></g></g></g><g clip-path="url(#4d7481bfd4)"><g clip-path="url(#1b0772f591)"><g clip-path="url(#6eee00b2d3)"><g clip-path="url(#c5618b34fb)"><path stroke-linecap="round" transform="matrix(0.0201433, -0.012334, -0.012334, -0.0201433, 22.412653, 106.19819)" fill="none" stroke-linejoin="round" d="M 2381.062314 2329.696895 C 2381.020529 2183.310648 2262.385823 2064.938099 2116.140618 2064.893522 C 1969.895413 2064.848945 1851.295459 2183.428971 1851.250883 2329.674176 C 1851.292668 2476.060423 1969.927374 2594.432972 2116.172579 2594.477549 C 2262.417784 2594.522126 2381.017737 2475.9421 2381.062314 2329.696895 Z M 2381.062314 2329.696895 " stroke="#000000" stroke-width="50" stroke-opacity="1" stroke-miterlimit="10"/></g></g></g></g><g clip-path="url(#a2ae85efb7)"><g clip-path="url(#04bc8f3679)"><g clip-path="url(#69c7ba42c5)"><g clip-path="url(#d15c459825)"><path fill="#ef3638" d="M 57.375 30.75 C 58.3125 32.285156 58.511719 34.066406 58.070312 35.675781 L 46.03125 35.757812 C 45.265625 33.117188 46.316406 30.1875 48.773438 28.683594 C 51.71875 26.878906 55.570312 27.804688 57.375 30.75 " fill-opacity="1" fill-rule="nonzero"/></g></g></g></g><g clip-path="url(#190205915a)"><g clip-path="url(#952d6b3bd6)"><g clip-path="url(#21da1a4011)"><g clip-path="url(#e484d1a9c0)"><path stroke-linecap="round" transform="matrix(0.0201433, -0.012334, -0.012334, -0.0201433, 22.412653, 106.19819)" fill="none" stroke-linejoin="round" d="M 2930.440349 1951.224341 C 2930.350226 1875.067802 2898.162288 1806.348024 2846.643335 1757.997486 L 2410.137197 2021.203455 C 2440.873646 2133.475049 2543.585582 2216.025422 2665.550614 2216.004994 C 2811.795819 2216.049571 2930.395773 2097.469546 2930.440349 1951.224341 Z M 2930.440349 1951.224341 " stroke="#000000" stroke-width="50" stroke-opacity="1" stroke-miterlimit="10"/></g></g></g></g><g clip-path="url(#ced97b0001)"><g clip-path="url(#942d25bbc4)"><g clip-path="url(#72c1f7e255)"><g clip-path="url(#d334161f22)"><path fill="#ef3638" d="M 54.15625 53.265625 C 53.886719 53.519531 53.609375 53.769531 53.320312 54.007812 C 53.179688 54.128906 53.035156 54.246094 52.890625 54.367188 L 52.886719 54.367188 C 52.597656 54.601562 52.296875 54.832031 51.988281 55.050781 C 51.835938 55.164062 51.679688 55.273438 51.523438 55.378906 C 51.40625 55.460938 51.289062 55.539062 51.167969 55.621094 C 51.109375 55.660156 51.050781 55.695312 50.992188 55.734375 C 50.847656 55.824219 50.703125 55.917969 50.558594 56.003906 C 48.753906 57.109375 46.851562 57.925781 44.910156 58.464844 C 44.34375 58.019531 43.847656 57.46875 43.449219 56.816406 C 41.644531 53.871094 42.570312 50.019531 45.519531 48.214844 C 46.527344 47.597656 47.640625 47.300781 48.742188 47.296875 L 54.15625 53.265625 " fill-opacity="1" fill-rule="nonzero"/></g></g></g></g><g clip-path="url(#7579986d75)"><g clip-path="url(#34c0b66817)"><g clip-path="url(#86bc2ab87d)"><g clip-path="url(#10b4f0883b)"><path stroke-linecap="round" transform="matrix(0.0201433, -0.012334, -0.012334, -0.0201433, 22.412653, 106.19819)" fill="none" stroke-linejoin="round" d="M 2316.430556 1209.418547 C 2301.0851 1206.209776 2285.543921 1203.314771 2269.838701 1201.10198 C 2262.083953 1199.838701 2254.274524 1198.802827 2246.378733 1197.62591 L 2246.237691 1197.712272 C 2230.618833 1195.640523 2214.663211 1193.968902 2198.68459 1192.893133 C 2190.679438 1192.171025 2182.619606 1191.676321 2174.646137 1191.32266 C 2168.601263 1190.951632 2162.642751 1190.721647 2156.456835 1190.436981 C 2153.477579 1190.321988 2150.584685 1190.348038 2147.605429 1190.233045 C 2140.400535 1190.184467 2133.109279 1189.994847 2125.990746 1190.087311 C 2036.388717 1190.071595 1949.65142 1202.652065 1867.635407 1226.110162 C 1857.02954 1254.711488 1851.294211 1285.566442 1851.330354 1317.929444 C 1851.285777 1464.174649 1969.865803 1582.774603 2116.25205 1582.732818 C 2166.286183 1582.736099 2213.04677 1568.842132 2252.907076 1544.629074 Z M 2316.430556 1209.418547 " stroke="#000000" stroke-width="50" stroke-opacity="1" stroke-miterlimit="10"/></g></g></g></g><g clip-path="url(#ba8f672fdb)"><g clip-path="url(#039ce9aa1a)"><g clip-path="url(#fd61dd5037)"><g clip-path="url(#2fa1f02e6a)"><path fill="#7dcd52" d="M 25.375 40.632812 C 25.085938 41.972656 23.769531 42.824219 22.429688 42.539062 C 21.089844 42.253906 20.238281 40.9375 20.523438 39.59375 L 25.375 40.632812 " fill-opacity="1" fill-rule="nonzero"/></g></g></g></g><g clip-path="url(#3345536ce2)"><g clip-path="url(#5b51b2f843)"><g clip-path="url(#0b7f50ba85)"><g clip-path="url(#276115f0f9)"><path stroke-linecap="round" transform="matrix(0.0201433, -0.012334, -0.012334, -0.0201433, 22.412653, 106.19819)" fill="none" stroke-linejoin="round" d="M 1556.525383 2301.865153 C 1516.466063 2259.878417 1450.107862 2258.235197 1408.034765 2298.153474 C 1365.961667 2338.071752 1364.318447 2404.429953 1404.323086 2446.644093 Z M 1556.525383 2301.865153 " stroke="#000000" stroke-width="50" stroke-opacity="1" stroke-miterlimit="10"/></g></g></g></g><g clip-path="url(#0e6a301d7d)"><g clip-path="url(#2ef39b6d71)"><g clip-path="url(#78f164fe23)"><g clip-path="url(#7ef7df94bb)"><path fill="#7dcd52" d="M 28.355469 25.171875 C 29.679688 25.527344 31.039062 24.742188 31.390625 23.417969 C 31.746094 22.09375 30.960938 20.734375 29.636719 20.382812 L 28.355469 25.171875 " fill-opacity="1" fill-rule="nonzero"/></g></g></g></g><g clip-path="url(#91fe0e1746)"><g clip-path="url(#44b0fae564)"><g clip-path="url(#0c5ab6eccf)"><g clip-path="url(#7e052d80fd)"><path stroke-linecap="round" transform="matrix(0.0201433, -0.012334, -0.012334, -0.0201433, 22.412653, 106.19819)" fill="none" stroke-linejoin="round" d="M 2005.961719 2794.21654 C 2045.91613 2752.104949 2112.357642 2750.400466 2154.469234 2790.354877 C 2196.439783 2830.39565 2198.144265 2896.837162 2158.103492 2938.807712 Z M 2005.961719 2794.21654 " stroke="#000000" stroke-width="50" stroke-opacity="1" stroke-miterlimit="10"/></g></g></g></g><g clip-path="url(#a3e36c2874)"><g clip-path="url(#e8580abf57)"><g clip-path="url(#0def5aad35)"><g clip-path="url(#6a51db81be)"><path fill="#7dcd52" d="M 43.921875 26.039062 C 44.804688 27.082031 46.371094 27.214844 47.417969 26.332031 C 48.464844 25.449219 48.597656 23.882812 47.710938 22.835938 L 43.921875 26.039062 " fill-opacity="1" fill-rule="nonzero"/></g></g></g></g><g clip-path="url(#8f978c82da)"><g clip-path="url(#65d26491cd)"><g clip-path="url(#ae065dcf16)"><g clip-path="url(#a772ee8d70)"><path stroke-linecap="round" transform="matrix(0.0201433, -0.012334, -0.012334, -0.0201433, 22.412653, 106.19819)" fill="none" stroke-linejoin="round" d="M 2548.843123 2418.752342 C 2557.660026 2361.576209 2611.2817 2322.149584 2668.598875 2330.880125 C 2725.916051 2339.610666 2765.342676 2393.23234 2756.471092 2450.635878 Z M 2548.843123 2418.752342 " stroke="#000000" stroke-width="50" stroke-opacity="1" stroke-miterlimit="10"/></g></g></g></g><g clip-path="url(#d4c729b8df)"><g clip-path="url(#879f016578)"><g clip-path="url(#8fbc9fe623)"><g clip-path="url(#11ebfe9563)"><path fill="#7dcd52" d="M 40.207031 41.261719 C 39.484375 42.429688 39.84375 43.957031 41.007812 44.675781 C 42.171875 45.398438 43.703125 45.042969 44.421875 43.875 L 40.207031 41.261719 " fill-opacity="1" fill-rule="nonzero"/></g></g></g></g><g clip-path="url(#ae41eada01)"><g clip-path="url(#7c2c6b65b3)"><g clip-path="url(#5ac70d71a9)"><g clip-path="url(#ffade0e09a)"><path stroke-linecap="round" transform="matrix(0.0201433, -0.012334, -0.012334, -0.0201433, 22.412653, 106.19819)" fill="none" stroke-linejoin="round" d="M 2078.15891 1951.240605 C 2026.243819 1925.045921 2005.452152 1861.953052 2031.592155 1810.265366 C 2057.645796 1758.436637 2120.793346 1737.417565 2172.567394 1763.698611 Z M 2078.15891 1951.240605 " stroke="#000000" stroke-width="50" stroke-opacity="1" stroke-miterlimit="10"/></g></g></g></g><g clip-path="url(#a81d840147)"><g clip-path="url(#27f9596496)"><g clip-path="url(#434d6b11e7)"><g clip-path="url(#af3e5878bb)"><path fill="#7dcd52" d="M 36.527344 54.753906 C 37.695312 55.464844 39.222656 55.09375 39.9375 53.925781 C 40.648438 52.753906 40.28125 51.230469 39.109375 50.519531 L 36.527344 54.753906 " fill-opacity="1" fill-rule="nonzero"/></g></g></g></g><g clip-path="url(#ee517b410b)"><g clip-path="url(#a7bb7812b1)"><g clip-path="url(#e8df9aa38c)"><g clip-path="url(#c183490b07)"><path stroke-linecap="round" transform="matrix(0.0201433, -0.012334, -0.012334, -0.0201433, 22.412653, 106.19819)" fill="none" stroke-linejoin="round" d="M 1647.002469 1545.433372 C 1673.456239 1493.941408 1736.808194 1473.572868 1788.4412 1499.940275 C 1840.019525 1526.535087 1860.442746 1589.659638 1833.847934 1641.237964 Z M 1647.002469 1545.433372 " stroke="#000000" stroke-width="50" stroke-opacity="1" stroke-miterlimit="10"/></g></g></g></g><g clip-path="url(#1973f0e97a)"><g clip-path="url(#102bacb9fa)"><g clip-path="url(#84d2099363)"><g clip-path="url(#aea6c1d1a5)"><path fill="#000000" d="M 33.082031 33.582031 C 32.964844 33.65625 32.824219 33.6875 32.675781 33.664062 C 32.355469 33.609375 32.136719 33.304688 32.191406 32.980469 L 32.480469 31.25 C 32.535156 30.925781 32.839844 30.710938 33.160156 30.761719 C 33.484375 30.816406 33.699219 31.121094 33.648438 31.441406 L 33.355469 33.179688 C 33.328125 33.351562 33.222656 33.496094 33.082031 33.582031 " fill-opacity="1" fill-rule="nonzero"/></g></g></g></g><g clip-path="url(#e5fb5b2e97)"><g clip-path="url(#ef2ecfda1f)"><g clip-path="url(#0b7f15e235)"><g clip-path="url(#183df395ce)"><path fill="#000000" d="M 40.726562 32.339844 C 40.675781 32.371094 40.621094 32.394531 40.5625 32.40625 L 38.855469 32.835938 C 38.539062 32.914062 38.21875 32.71875 38.140625 32.40625 C 38.058594 32.089844 38.253906 31.769531 38.566406 31.691406 L 40.273438 31.261719 C 40.589844 31.183594 40.914062 31.375 40.988281 31.691406 C 41.054688 31.949219 40.941406 32.207031 40.726562 32.339844 " fill-opacity="1" fill-rule="nonzero"/></g></g></g></g><g clip-path="url(#9380ab22ff)"><g clip-path="url(#3ffb961437)"><g clip-path="url(#d62d81ec02)"><g clip-path="url(#ba791d706c)"><path fill="#000000" d="M 38.328125 30.027344 C 38.1875 30.113281 38.007812 30.140625 37.839844 30.085938 L 36.164062 29.554688 C 35.851562 29.457031 35.679688 29.125 35.777344 28.816406 C 35.875 28.5 36.210938 28.332031 36.519531 28.429688 L 38.195312 28.960938 C 38.507812 29.058594 38.679688 29.390625 38.582031 29.699219 C 38.535156 29.84375 38.445312 29.953125 38.328125 30.027344 " fill-opacity="1" fill-rule="nonzero"/></g></g></g></g><g clip-path="url(#8b1ced9d66)"><g clip-path="url(#76ebe43f86)"><g clip-path="url(#7edbce0ae6)"><g clip-path="url(#69d3d0b468)"><path fill="#000000" d="M 36.882812 33.726562 C 36.644531 33.871094 36.328125 33.832031 36.136719 33.617188 L 34.957031 32.3125 C 34.742188 32.070312 34.757812 31.699219 35 31.476562 C 35.246094 31.257812 35.617188 31.277344 35.835938 31.519531 L 37.011719 32.828125 C 37.230469 33.070312 37.210938 33.441406 36.96875 33.664062 C 36.941406 33.683594 36.914062 33.707031 36.882812 33.726562 " fill-opacity="1" fill-rule="nonzero"/></g></g></g></g><g clip-path="url(#f7dfe17408)"><g clip-path="url(#1440a09b65)"><g clip-path="url(#70a0d0fbcf)"><g clip-path="url(#ce0082afea)"><path fill="#000000" d="M 35.898438 36.699219 C 35.816406 36.746094 35.726562 36.777344 35.628906 36.785156 L 33.871094 36.886719 C 33.546875 36.90625 33.265625 36.660156 33.246094 36.335938 C 33.226562 36.011719 33.476562 35.730469 33.800781 35.710938 L 35.554688 35.605469 C 35.882812 35.585938 36.160156 35.832031 36.179688 36.160156 C 36.195312 36.382812 36.078125 36.585938 35.898438 36.699219 " fill-opacity="1" fill-rule="nonzero"/></g></g></g></g><g clip-path="url(#119bdbe4a5)"><g clip-path="url(#e0bcacdf26)"><g clip-path="url(#34f876c872)"><g clip-path="url(#2e94b685e1)"><path fill="#000000" d="M 38.71875 37.097656 C 38.585938 37.183594 38.414062 37.207031 38.25 37.164062 C 37.9375 37.074219 37.753906 36.746094 37.84375 36.433594 L 38.328125 34.742188 C 38.417969 34.425781 38.742188 34.246094 39.054688 34.335938 C 39.371094 34.425781 39.550781 34.75 39.460938 35.066406 L 38.980469 36.757812 C 38.9375 36.90625 38.84375 37.023438 38.71875 37.097656 " fill-opacity="1" fill-rule="nonzero"/></g></g></g></g><g clip-path="url(#6bddec5bd4)"><g clip-path="url(#4515b06eaa)"><g clip-path="url(#f178a257d9)"><g clip-path="url(#850913c5ac)"><path fill="#000000" d="M 27.136719 49.632812 C 27.019531 49.703125 26.878906 49.738281 26.734375 49.710938 C 26.410156 49.660156 26.191406 49.355469 26.246094 49.03125 L 26.535156 47.296875 C 26.589844 46.976562 26.894531 46.761719 27.21875 46.816406 C 27.539062 46.867188 27.753906 47.171875 27.703125 47.492188 L 27.410156 49.226562 C 27.382812 49.402344 27.277344 49.546875 27.136719 49.632812 " fill-opacity="1" fill-rule="nonzero"/></g></g></g></g><g clip-path="url(#e75dfb16d2)"><g clip-path="url(#b2d8ab8b3f)"><g clip-path="url(#243b49a007)"><g clip-path="url(#d0f8e388bb)"><path fill="#000000" d="M 34.78125 48.390625 C 34.730469 48.421875 34.675781 48.445312 34.617188 48.457031 L 32.910156 48.886719 C 32.59375 48.964844 32.273438 48.769531 32.195312 48.457031 C 32.113281 48.140625 32.308594 47.820312 32.625 47.738281 L 34.332031 47.3125 C 34.648438 47.234375 34.96875 47.425781 35.046875 47.742188 C 35.109375 47.996094 34.996094 48.257812 34.78125 48.390625 " fill-opacity="1" fill-rule="nonzero"/></g></g></g></g><g clip-path="url(#ffb093b782)"><g clip-path="url(#7053cc020f)"><g clip-path="url(#a114fcc267)"><g clip-path="url(#0a047ce11a)"><path fill="#000000" d="M 32.382812 46.074219 C 32.242188 46.164062 32.066406 46.191406 31.894531 46.136719 L 30.21875 45.605469 C 29.90625 45.507812 29.734375 45.175781 29.832031 44.863281 C 29.933594 44.554688 30.265625 44.382812 30.574219 44.480469 L 32.25 45.011719 C 32.5625 45.109375 32.734375 45.4375 32.636719 45.753906 C 32.589844 45.894531 32.5 46.003906 32.382812 46.074219 " fill-opacity="1" fill-rule="nonzero"/></g></g></g></g><g clip-path="url(#03357faadd)"><g clip-path="url(#6bbbc0918d)"><g clip-path="url(#d3fcd05194)"><g clip-path="url(#f3351279de)"><path fill="#000000" d="M 30.9375 49.777344 C 30.699219 49.921875 30.386719 49.882812 30.191406 49.667969 L 29.015625 48.363281 C 28.796875 48.121094 28.8125 47.746094 29.054688 47.527344 C 29.300781 47.308594 29.671875 47.332031 29.890625 47.570312 L 31.066406 48.878906 C 31.285156 49.121094 31.265625 49.492188 31.023438 49.710938 C 31 49.738281 30.96875 49.757812 30.9375 49.777344 " fill-opacity="1" fill-rule="nonzero"/></g></g></g></g><g clip-path="url(#06e5c33c44)"><g clip-path="url(#8bccc87f33)"><g clip-path="url(#79816d9707)"><g clip-path="url(#d06252af80)"><path fill="#000000" d="M 29.953125 52.75 C 29.875 52.800781 29.78125 52.828125 29.683594 52.832031 L 27.925781 52.9375 C 27.601562 52.960938 27.324219 52.710938 27.300781 52.386719 C 27.28125 52.0625 27.53125 51.78125 27.855469 51.761719 L 29.613281 51.65625 C 29.9375 51.636719 30.214844 51.882812 30.234375 52.210938 C 30.25 52.4375 30.136719 52.640625 29.953125 52.75 " fill-opacity="1" fill-rule="nonzero"/></g></g></g></g><g clip-path="url(#2cd3f9c418)"><g clip-path="url(#520078b4b1)"><g clip-path="url(#87782a1624)"><g clip-path="url(#8057444b62)"><path fill="#000000" d="M 32.777344 53.148438 C 32.640625 53.234375 32.472656 53.261719 32.304688 53.214844 C 31.992188 53.121094 31.8125 52.796875 31.898438 52.484375 L 32.382812 50.792969 C 32.472656 50.476562 32.796875 50.296875 33.109375 50.386719 C 33.425781 50.476562 33.605469 50.800781 33.519531 51.117188 L 33.035156 52.808594 C 32.992188 52.957031 32.898438 53.074219 32.777344 53.148438 " fill-opacity="1" fill-rule="nonzero"/></g></g></g></g><g clip-path="url(#d0c92f2a26)"><g clip-path="url(#3649f59727)"><g clip-path="url(#16f321279b)"><g clip-path="url(#6c2e99127d)"><path fill="#000000" d="M 45.28125 53.953125 C 45.164062 54.023438 45.023438 54.058594 44.875 54.03125 C 44.554688 53.980469 44.339844 53.675781 44.390625 53.351562 L 44.683594 51.617188 C 44.734375 51.296875 45.039062 51.078125 45.363281 51.132812 C 45.683594 51.1875 45.902344 51.492188 45.847656 51.8125 L 45.558594 53.546875 C 45.527344 53.722656 45.421875 53.867188 45.28125 53.953125 " fill-opacity="1" fill-rule="nonzero"/></g></g></g></g><g clip-path="url(#704cc0558c)"><g clip-path="url(#d1632e379e)"><g clip-path="url(#9a518735ec)"><g clip-path="url(#b2ede695f5)"><path fill="#000000" d="M 52.925781 52.710938 C 52.878906 52.738281 52.820312 52.761719 52.761719 52.777344 L 51.054688 53.203125 C 50.742188 53.285156 50.417969 53.09375 50.339844 52.773438 C 50.261719 52.457031 50.453125 52.136719 50.769531 52.058594 L 52.472656 51.632812 C 52.792969 51.554688 53.109375 51.746094 53.191406 52.0625 C 53.253906 52.320312 53.140625 52.578125 52.925781 52.710938 " fill-opacity="1" fill-rule="nonzero"/></g></g></g></g><g clip-path="url(#319283a566)"><g clip-path="url(#bf06f05dc1)"><g clip-path="url(#7c8e46a1ae)"><g clip-path="url(#687bd3363a)"><path fill="#000000" d="M 50.527344 50.394531 C 50.386719 50.480469 50.210938 50.507812 50.042969 50.453125 L 48.363281 49.925781 C 48.054688 49.828125 47.878906 49.496094 47.976562 49.183594 C 48.078125 48.875 48.410156 48.703125 48.71875 48.796875 L 50.394531 49.328125 C 50.707031 49.425781 50.878906 49.761719 50.78125 50.070312 C 50.738281 50.210938 50.644531 50.324219 50.527344 50.394531 " fill-opacity="1" fill-rule="nonzero"/></g></g></g></g><g clip-path="url(#5f5a68a453)"><g clip-path="url(#c022b71586)"><g clip-path="url(#8987fd8518)"><g clip-path="url(#81de0facfb)"><path fill="#000000" d="M 49.082031 54.097656 C 48.84375 54.242188 48.53125 54.203125 48.335938 53.988281 L 47.15625 52.683594 C 46.9375 52.441406 46.960938 52.066406 47.199219 51.851562 C 47.445312 51.632812 47.816406 51.648438 48.035156 51.890625 L 49.214844 53.195312 C 49.433594 53.4375 49.410156 53.8125 49.171875 54.03125 C 49.140625 54.058594 49.113281 54.078125 49.082031 54.097656 " fill-opacity="1" fill-rule="nonzero"/></g></g></g></g><g clip-path="url(#15729212b8)"><g clip-path="url(#4b4b277b5d)"><g clip-path="url(#804378fde0)"><g clip-path="url(#2cdc9dddf7)"><path fill="#000000" d="M 48.101562 57.070312 C 48.019531 57.117188 47.925781 57.148438 47.828125 57.152344 L 46.070312 57.257812 C 45.746094 57.28125 45.464844 57.03125 45.449219 56.707031 C 45.429688 56.382812 45.675781 56.101562 46 56.082031 L 47.753906 55.976562 C 48.082031 55.957031 48.359375 56.203125 48.378906 56.527344 C 48.394531 56.753906 48.28125 56.957031 48.101562 57.066406 " fill-opacity="1" fill-rule="nonzero"/></g></g></g></g><g clip-path="url(#101d1dc718)"><g clip-path="url(#21efd1f880)"><g clip-path="url(#49817c62c5)"><g clip-path="url(#d64f7e1a89)"><path fill="#000000" d="M 51.671875 55.15625 C 51.628906 54.945312 51.476562 54.769531 51.257812 54.707031 C 50.941406 54.617188 50.613281 54.796875 50.527344 55.113281 L 50.242188 56.113281 C 50.71875 55.792969 51.195312 55.476562 51.671875 55.15625 " fill-opacity="1" fill-rule="nonzero"/></g></g></g></g><g clip-path="url(#e5d1094643)"><g clip-path="url(#ad55d243b1)"><g clip-path="url(#0d65c4de66)"><g clip-path="url(#f7abd9313f)"><path fill="#000000" d="M 48.65625 34.617188 C 48.542969 34.6875 48.398438 34.71875 48.253906 34.695312 C 47.929688 34.640625 47.714844 34.339844 47.765625 34.015625 L 48.058594 32.28125 C 48.113281 31.960938 48.417969 31.742188 48.738281 31.800781 C 49.0625 31.851562 49.277344 32.15625 49.222656 32.476562 L 48.933594 34.210938 C 48.902344 34.386719 48.800781 34.53125 48.65625 34.617188 " fill-opacity="1" fill-rule="nonzero"/></g></g></g></g><g clip-path="url(#fc7ed556c6)"><g clip-path="url(#2d85c358ee)"><g clip-path="url(#7457da7f00)"><g clip-path="url(#5ea10994f9)"><path fill="#000000" d="M 56.300781 33.375 C 56.253906 33.40625 56.195312 33.425781 56.136719 33.441406 L 54.429688 33.867188 C 54.113281 33.949219 53.796875 33.757812 53.714844 33.441406 C 53.636719 33.121094 53.828125 32.804688 54.144531 32.722656 L 55.851562 32.296875 C 56.167969 32.21875 56.488281 32.410156 56.566406 32.726562 C 56.632812 32.984375 56.515625 33.242188 56.300781 33.375 " fill-opacity="1" fill-rule="nonzero"/></g></g></g></g><g clip-path="url(#c9ef22dc16)"><g clip-path="url(#cb45aed66e)"><g clip-path="url(#8c9960f6f6)"><g clip-path="url(#30b1581c2e)"><path fill="#000000" d="M 53.902344 31.058594 C 53.761719 31.144531 53.585938 31.171875 53.414062 31.121094 L 51.738281 30.589844 C 51.429688 30.492188 51.253906 30.160156 51.355469 29.847656 C 51.453125 29.539062 51.785156 29.367188 52.09375 29.464844 L 53.773438 29.992188 C 54.082031 30.089844 54.253906 30.421875 54.15625 30.734375 C 54.113281 30.875 54.019531 30.988281 53.902344 31.058594 " fill-opacity="1" fill-rule="nonzero"/></g></g></g></g><g clip-path="url(#ce606bbf25)"><g clip-path="url(#d896925f98)"><g clip-path="url(#c91e8a0fce)"><g clip-path="url(#6debfa589e)"><path fill="#000000" d="M 52.457031 34.761719 C 52.21875 34.90625 51.90625 34.867188 51.710938 34.652344 L 50.535156 33.347656 C 50.316406 33.105469 50.332031 32.730469 50.578125 32.511719 C 50.820312 32.292969 51.191406 32.3125 51.410156 32.554688 L 52.589844 33.863281 C 52.808594 34.105469 52.789062 34.476562 52.546875 34.695312 C 52.519531 34.722656 52.488281 34.742188 52.457031 34.761719 " fill-opacity="1" fill-rule="nonzero"/></g></g></g></g><g clip-path="url(#98e66378d5)"><g clip-path="url(#eb46b4c569)"><g clip-path="url(#6c636f9dbb)"><g clip-path="url(#53b94c0cbd)"><path fill="#000000" d="M 24.257812 29.71875 C 24.210938 29.746094 24.152344 29.769531 24.089844 29.785156 L 22.386719 30.210938 C 22.070312 30.292969 21.75 30.097656 21.671875 29.78125 C 21.589844 29.464844 21.785156 29.144531 22.101562 29.066406 L 23.804688 28.640625 C 24.121094 28.5625 24.441406 28.753906 24.523438 29.070312 C 24.585938 29.328125 24.472656 29.585938 24.257812 29.71875 " fill-opacity="1" fill-rule="nonzero"/></g></g></g></g><g clip-path="url(#910bb52604)"><g clip-path="url(#8a7628ab03)"><g clip-path="url(#3a3487af35)"><g clip-path="url(#7d4136e3ea)"><path fill="#000000" d="M 21.859375 27.402344 C 21.714844 27.488281 21.542969 27.515625 21.371094 27.460938 L 19.695312 26.933594 C 19.386719 26.835938 19.210938 26.503906 19.308594 26.191406 C 19.40625 25.878906 19.738281 25.710938 20.050781 25.804688 L 21.726562 26.335938 C 22.039062 26.433594 22.210938 26.765625 22.113281 27.078125 C 22.070312 27.21875 21.976562 27.332031 21.859375 27.402344 " fill-opacity="1" fill-rule="nonzero"/></g></g></g></g><g clip-path="url(#5e1994f857)"><g clip-path="url(#396db4cffa)"><g clip-path="url(#2bc871ebc0)"><g clip-path="url(#b2ec2818a1)"><path fill="#000000" d="M 20.414062 31.105469 C 20.175781 31.25 19.863281 31.210938 19.667969 30.996094 L 18.488281 29.691406 C 18.269531 29.449219 18.292969 29.074219 18.53125 28.855469 C 18.773438 28.636719 19.148438 28.65625 19.367188 28.898438 L 20.546875 30.203125 C 20.761719 30.445312 20.742188 30.820312 20.503906 31.039062 C 20.472656 31.0625 20.445312 31.085938 20.414062 31.105469 " fill-opacity="1" fill-rule="nonzero"/></g></g></g></g><g clip-path="url(#f63975a7c5)"><g clip-path="url(#ec4e746a34)"><g clip-path="url(#9287881c41)"><g clip-path="url(#400986e3f8)"><path fill="#000000" d="M 19.433594 34.074219 C 19.351562 34.125 19.257812 34.15625 19.160156 34.160156 L 17.402344 34.265625 C 17.078125 34.285156 16.796875 34.039062 16.777344 33.710938 C 16.757812 33.386719 17.003906 33.109375 17.332031 33.089844 L 19.085938 32.984375 C 19.414062 32.964844 19.695312 33.210938 19.710938 33.535156 C 19.726562 33.761719 19.609375 33.964844 19.433594 34.074219 " fill-opacity="1" fill-rule="nonzero"/></g></g></g></g><g clip-path="url(#d24a896fe7)"><g clip-path="url(#db7f119ec7)"><g clip-path="url(#1654c3c09d)"><g clip-path="url(#3387bced41)"><path fill="#000000" d="M 22.253906 34.476562 C 22.117188 34.558594 21.949219 34.589844 21.78125 34.539062 C 21.46875 34.449219 21.285156 34.125 21.375 33.808594 L 21.859375 32.121094 C 21.945312 31.804688 22.277344 31.625 22.585938 31.710938 C 22.902344 31.800781 23.082031 32.128906 22.992188 32.445312 L 22.511719 34.132812 C 22.46875 34.28125 22.375 34.402344 22.253906 34.476562 " fill-opacity="1" fill-rule="nonzero"/></g></g></g></g><g clip-path="url(#017511c1be)"><g clip-path="url(#94cfed88d7)"><g clip-path="url(#2606133273)"><g clip-path="url(#d76b89da08)"><path fill="#000000" d="M 37.105469 14.980469 L 36.820312 16.6875 C 36.765625 17.011719 36.984375 17.3125 37.304688 17.367188 C 37.449219 17.394531 37.589844 17.363281 37.710938 17.289062 C 37.851562 17.203125 37.953125 17.058594 37.984375 16.882812 L 38.273438 15.148438 C 38.28125 15.101562 38.28125 15.050781 38.277344 15 C 37.890625 14.976562 37.496094 14.96875 37.105469 14.980469 " fill-opacity="1" fill-rule="nonzero"/></g></g></g></g><g clip-path="url(#39d433e4af)"><g clip-path="url(#e57b87031d)"><g clip-path="url(#d56333de52)"><g clip-path="url(#a4087e437f)"><path fill="#000000" d="M 42.828125 15.675781 C 42.753906 15.804688 42.726562 15.960938 42.765625 16.113281 C 42.847656 16.425781 43.164062 16.617188 43.484375 16.539062 L 45.1875 16.113281 C 45.25 16.097656 45.304688 16.078125 45.355469 16.046875 C 45.398438 16.019531 45.433594 15.988281 45.464844 15.953125 C 44.582031 15.933594 43.703125 15.820312 42.828125 15.675781 " fill-opacity="1" fill-rule="nonzero"/></g></g></g></g><g clip-path="url(#c2c2e0193e)"><g clip-path="url(#383245dbe4)"><g clip-path="url(#135b11c3c6)"><g clip-path="url(#11ebce0903)"><path fill="#000000" d="M 40.503906 15.273438 C 40.226562 15.226562 39.957031 15.1875 39.679688 15.148438 C 39.664062 15.160156 39.644531 15.167969 39.628906 15.183594 C 39.386719 15.402344 39.367188 15.777344 39.585938 16.019531 L 40.765625 17.324219 C 40.957031 17.539062 41.273438 17.578125 41.507812 17.433594 C 41.542969 17.414062 41.570312 17.390625 41.597656 17.367188 C 41.839844 17.148438 41.859375 16.777344 41.640625 16.535156 L 40.503906 15.273438 " fill-opacity="1" fill-rule="nonzero"/></g></g></g></g><g clip-path="url(#588ea4bfcf)"><g clip-path="url(#86fd22f8b4)"><g clip-path="url(#09f22e50cc)"><g clip-path="url(#c90daac19d)"><path fill="#000000" d="M 40.527344 20.40625 C 40.445312 20.457031 40.351562 20.484375 40.253906 20.488281 L 38.5 20.59375 C 38.175781 20.617188 37.894531 20.367188 37.871094 20.042969 C 37.851562 19.714844 38.101562 19.4375 38.429688 19.417969 L 40.183594 19.3125 C 40.507812 19.292969 40.789062 19.539062 40.808594 19.867188 C 40.820312 20.089844 40.707031 20.296875 40.527344 20.40625 " fill-opacity="1" fill-rule="nonzero"/></g></g></g></g><g clip-path="url(#b3844facc0)"><g clip-path="url(#2a0ee3a62c)"><g clip-path="url(#07c76a8003)"><g clip-path="url(#416279b788)"><path fill="#000000" d="M 43.347656 20.804688 C 43.210938 20.886719 43.042969 20.914062 42.878906 20.871094 C 42.5625 20.777344 42.382812 20.453125 42.472656 20.140625 L 42.953125 18.445312 C 43.042969 18.132812 43.371094 17.953125 43.683594 18.042969 C 43.996094 18.132812 44.179688 18.457031 44.085938 18.769531 L 43.605469 20.464844 C 43.566406 20.609375 43.46875 20.730469 43.347656 20.804688 " fill-opacity="1" fill-rule="nonzero"/></g></g></g></g><g fill="#e52d2d" fill-opacity="1"><g transform="translate(62.254319, 58.621802)"><g><path d="M 6.617188 -8.453125 C 11.429688 -8.453125 6.902344 -3.957031 9.617188 -1.242188 C 12.332031 1.472656 16.109375 -0.492188 17.839844 -2.765625 L 17.425781 -3.179688 C 16.625 -2.351562 15.746094 -2.042969 14.839844 -2.949219 C 13.9375 -3.851562 14.21875 -5.972656 12.410156 -7.78125 C 11.789062 -8.378906 11.195312 -8.738281 10.574219 -8.921875 C 13.316406 -9.539062 15.097656 -10.910156 15.097656 -13.058594 C 15.097656 -16.082031 11.53125 -17.710938 6.695312 -17.710938 C 4.136719 -17.710938 0.59375 -16.546875 0.59375 -12.101562 L 0.59375 0 L 6.257812 0 L 6.257812 -9.773438 C 6.257812 -13.109375 3.128906 -12.953125 2.507812 -14.480469 C 2.25 -15.125 2.429688 -16.183594 4.164062 -16.183594 C 5.507812 -16.183594 7.238281 -15.460938 8.429688 -13.960938 C 10.832031 -10.988281 9.308594 -9.050781 6.617188 -9.050781 Z M 6.617188 -8.453125 "/></g></g></g><g fill="#e52d2d" fill-opacity="1"><g transform="translate(77.814902, 58.621802)"><g><path d="M 8.195312 -14.167969 C 3.566406 -14.167969 0.464844 -11.222656 0.464844 -7.007812 C 0.464844 -2.765625 3.566406 0.179688 8.195312 0.179688 C 12.796875 0.179688 15.902344 -2.765625 15.902344 -7.007812 C 15.902344 -11.222656 12.796875 -14.167969 8.195312 -14.167969 Z M 11.867188 -1.1875 C 10.394531 -0.257812 8.453125 -2.328125 6.257812 -5.765625 C 4.058594 -9.230469 3.023438 -11.867188 4.5 -12.824219 C 5.972656 -13.753906 7.910156 -11.6875 10.109375 -8.222656 C 12.28125 -4.78125 13.367188 -2.121094 11.867188 -1.1875 Z M 11.867188 -1.1875 "/></g></g></g><g fill="#e52d2d" fill-opacity="1"><g transform="translate(94.176783, 58.621802)"><g><path d="M 0.59375 -13.988281 L 0.59375 0 L 6.257812 0 L 6.257812 -10.34375 C 6.28125 -11.609375 6.4375 -12.566406 7.238281 -12.875 C 8.429688 -13.316406 9.488281 -12.617188 8.6875 -7.316406 C 8.351562 -5.042969 8.117188 -2.816406 9.359375 -1.242188 C 11.296875 1.214844 14.480469 0.0273438 16.390625 -1.679688 L 16.109375 -2.199219 C 13.882812 -0.90625 13.960938 -3.929688 14.480469 -7.160156 C 14.660156 -8.300781 14.632812 -9.359375 14.402344 -10.289062 C 14.296875 -11.453125 14.503906 -12.460938 15.617188 -12.875 C 16.804688 -13.316406 17.867188 -12.617188 17.0625 -7.316406 C 16.726562 -5.042969 16.46875 -2.816406 17.710938 -1.242188 C 19.910156 1.5 24.382812 -0.492188 26.113281 -2.765625 L 25.726562 -3.179688 C 24.898438 -2.351562 24.046875 -2.171875 23.371094 -2.765625 C 22.363281 -3.644531 22.519531 -5.09375 22.828125 -7.160156 C 23.476562 -11.195312 21.613281 -14.167969 17.140625 -14.167969 C 15.511719 -14.167969 14.480469 -13.132812 13.238281 -12.515625 C 12.28125 -13.546875 10.78125 -14.167969 8.789062 -14.167969 C 6.671875 -14.167969 5.558594 -12.4375 3.773438 -12.046875 C 2.351562 -11.867188 1.242188 -12.023438 1.242188 -13.988281 Z M 0.59375 -13.988281 "/></g></g></g><g fill="#e52d2d" fill-opacity="1"><g transform="translate(117.621056, 58.621802)"><g><path d="M 9.410156 -14.167969 C 6.4375 -14.167969 4.808594 -12.308594 3.179688 -12.308594 C 2.328125 -12.308594 2.042969 -13.03125 2.042969 -13.988281 L 1.371094 -13.988281 C 0.90625 -9.695312 1.964844 -8.351562 4.164062 -8.351562 C 7.523438 -8.351562 6.335938 -12.875 8.039062 -13.367188 C 9.667969 -13.832031 10.472656 -12.695312 9.851562 -8.015625 C 9.179688 -8.09375 8.453125 -8.117188 7.652344 -8.117188 C 2.816406 -8.117188 0.464844 -6.695312 0.464844 -4.007812 C 0.464844 -1.34375 2.558594 0.101562 7.160156 0.101562 C 9.332031 0.101562 10.003906 -0.59375 10.160156 -1.578125 C 12.175781 1.628906 17.011719 -0.363281 18.824219 -2.765625 L 18.433594 -3.179688 C 17.605469 -2.351562 16.753906 -2.171875 16.082031 -2.765625 C 15.074219 -3.644531 15.203125 -5.09375 15.539062 -7.160156 C 16.183594 -11.195312 13.859375 -14.167969 9.410156 -14.167969 Z M 9.488281 -4.523438 C 9.488281 -2.949219 9.695312 -1.164062 9.074219 -0.878906 C 8.066406 -0.386719 6.953125 -1.136719 6.023438 -3.492188 C 5.300781 -5.273438 5.429688 -6.722656 6.4375 -7.214844 C 7.160156 -7.574219 8.429688 -7.601562 9.773438 -7.421875 L 9.773438 -7.316406 C 9.617188 -6.359375 9.515625 -5.402344 9.488281 -4.523438 Z M 9.488281 -4.523438 "/></g></g></g><g fill="#e52d2d" fill-opacity="1"><g transform="translate(133.724454, 58.621802)"><g><path d="M 0.59375 -13.988281 L 0.59375 0 L 6.257812 0 L 6.257812 -10.832031 C 6.28125 -11.867188 6.488281 -12.644531 7.238281 -12.875 C 8.765625 -13.367188 10.109375 -12.617188 9.308594 -7.316406 C 8.972656 -5.042969 8.714844 -2.816406 9.953125 -1.242188 C 12.152344 1.5 16.625 -0.492188 18.355469 -2.765625 L 17.96875 -3.179688 C 17.140625 -2.351562 16.289062 -2.171875 15.617188 -2.765625 C 14.609375 -3.644531 14.761719 -5.09375 15.074219 -7.160156 C 15.71875 -11.195312 13.417969 -14.167969 8.945312 -14.167969 C 6.953125 -14.167969 5.558594 -12.460938 4.035156 -12.101562 C 2.535156 -11.738281 1.242188 -11.894531 1.242188 -13.988281 Z M 0.59375 -13.988281 "/></g></g></g><g fill="#e52d2d" fill-opacity="1"><g transform="translate(149.388435, 58.621802)"><g><path d="M 8.195312 -14.167969 C 3.566406 -14.167969 0.464844 -11.222656 0.464844 -7.007812 C 0.464844 -2.765625 3.566406 0.179688 8.195312 0.179688 C 12.796875 0.179688 15.902344 -2.765625 15.902344 -7.007812 C 15.902344 -11.222656 12.796875 -14.167969 8.195312 -14.167969 Z M 11.867188 -1.1875 C 10.394531 -0.257812 8.453125 -2.328125 6.257812 -5.765625 C 4.058594 -9.230469 3.023438 -11.867188 4.5 -12.824219 C 5.972656 -13.753906 7.910156 -11.6875 10.109375 -8.222656 C 12.28125 -4.78125 13.367188 -2.121094 11.867188 -1.1875 Z M 11.867188 -1.1875 "/></g></g></g><g fill="#e52d2d" fill-opacity="1"><g transform="translate(165.750316, 58.621802)"><g><path d="M 5.894531 -10.574219 C 2.171875 -11.503906 2.765625 -13.523438 4.292969 -13.523438 C 6.074219 -13.523438 7.136719 -9.929688 9.179688 -9.929688 C 11.402344 -9.929688 11.894531 -12.746094 11.894531 -13.988281 L 11.222656 -13.988281 C 11.222656 -13.210938 10.367188 -12.824219 9.386719 -12.824219 C 7.574219 -12.824219 6.644531 -14.167969 4.292969 -14.167969 C 2.222656 -14.167969 0.414062 -12.046875 0.492188 -9.824219 C 0.570312 -6.878906 3.152344 -5.25 5.585938 -4.78125 C 8.453125 -4.238281 9.386719 -3.128906 9.617188 -2.144531 C 9.824219 -1.242188 9.257812 -0.621094 8.609375 -0.570312 C 6.800781 -0.414062 6.824219 -4.835938 3.464844 -4.835938 C 0.722656 -4.835938 0.644531 -1.265625 0.644531 0 L 1.292969 0 C 1.292969 -0.957031 1.808594 -1.5 2.894531 -1.5 C 4.679688 -1.5 5.351562 0.179688 7.703125 0.179688 C 10.960938 0.179688 12.152344 -2.25 12.230469 -4.730469 C 12.332031 -8.015625 9.824219 -9.566406 5.894531 -10.574219 Z M 5.894531 -10.574219 "/></g></g></g></svg>