<svg xmlns="http://www.w3.org/2000/svg" xmlns:xlink="http://www.w3.org/1999/xlink" width="150" zoomAndPan="magnify" viewBox="0 0 187.5 74.999997" height="60" preserveAspectRatio="xMidYMid meet" version="1.0"><defs><g/><clipPath id="cdef206954"><path d="M 12 10 L 67 10 L 67 64 L 12 64 Z M 12 10 " clip-rule="nonzero"/></clipPath><clipPath id="f2acfd558d"><path d="M 2.125 28.101562 L 48.816406 -0.488281 L 77.40625 46.203125 L 30.714844 74.792969 Z M 2.125 28.101562 " clip-rule="nonzero"/></clipPath><clipPath id="6d80d87706"><path d="M 2.125 28.101562 L 48.816406 -0.488281 L 77.40625 46.203125 L 30.714844 74.792969 Z M 2.125 28.101562 " clip-rule="nonzero"/></clipPath><clipPath id="2c36167f49"><path d="M 2.125 28.101562 L 48.816406 -0.488281 L 77.40625 46.203125 L 30.714844 74.792969 Z M 2.125 28.101562 " clip-rule="nonzero"/></clipPath><clipPath id="8c617e57dd"><path d="M 12 9 L 68 9 L 68 65 L 12 65 Z M 12 9 " clip-rule="nonzero"/></clipPath><clipPath id="0d602b0bf1"><path d="M 2.125 28.101562 L 48.816406 -0.488281 L 77.40625 46.203125 L 30.714844 74.792969 Z M 2.125 28.101562 " clip-rule="nonzero"/></clipPath><clipPath id="55b4d1b89c"><path d="M 2.125 28.101562 L 48.816406 -0.488281 L 77.40625 46.203125 L 30.714844 74.792969 Z M 2.125 28.101562 " clip-rule="nonzero"/></clipPath><clipPath id="b2833478d2"><path d="M 2.125 28.101562 L 48.816406 -0.488281 L 77.40625 46.203125 L 30.714844 74.792969 Z M 2.125 28.101562 " clip-rule="nonzero"/></clipPath><clipPath id="b48abb575a"><path d="M 17 15 L 62 15 L 62 60 L 17 60 Z M 17 15 " clip-rule="nonzero"/></clipPath><clipPath id="408edab829"><path d="M 2.125 28.101562 L 48.816406 -0.488281 L 77.40625 46.203125 L 30.714844 74.792969 Z M 2.125 28.101562 " clip-rule="nonzero"/></clipPath><clipPath id="814e3bea47"><path d="M 2.125 28.101562 L 48.816406 -0.488281 L 77.40625 46.203125 L 30.714844 74.792969 Z M 2.125 28.101562 " clip-rule="nonzero"/></clipPath><clipPath id="c743793b80"><path d="M 2.125 28.101562 L 48.816406 -0.488281 L 77.40625 46.203125 L 30.714844 74.792969 Z M 2.125 28.101562 " clip-rule="nonzero"/></clipPath><clipPath id="0babf6521d"><path d="M 17 14 L 63 14 L 63 60 L 17 60 Z M 17 14 " clip-rule="nonzero"/></clipPath><clipPath id="308e8bef04"><path d="M 2.125 28.101562 L 48.816406 -0.488281 L 77.40625 46.203125 L 30.714844 74.792969 Z M 2.125 28.101562 " clip-rule="nonzero"/></clipPath><clipPath id="cbaab67e3d"><path d="M 2.125 28.101562 L 48.816406 -0.488281 L 77.40625 46.203125 L 30.714844 74.792969 Z M 2.125 28.101562 " clip-rule="nonzero"/></clipPath><clipPath id="72221ee2ae"><path d="M 2.125 28.101562 L 48.816406 -0.488281 L 77.40625 46.203125 L 30.714844 74.792969 Z M 2.125 28.101562 " clip-rule="nonzero"/></clipPath><clipPath id="fdc3979f80"><path d="M 17 24 L 27 24 L 27 37 L 17 37 Z M 17 24 " clip-rule="nonzero"/></clipPath><clipPath id="414743979b"><path d="M 2.125 28.101562 L 48.816406 -0.488281 L 77.40625 46.203125 L 30.714844 74.792969 Z M 2.125 28.101562 " clip-rule="nonzero"/></clipPath><clipPath id="d5c514e8a3"><path d="M 2.125 28.101562 L 48.816406 -0.488281 L 77.40625 46.203125 L 30.714844 74.792969 Z M 2.125 28.101562 " clip-rule="nonzero"/></clipPath><clipPath id="cf52b0a52f"><path d="M 2.125 28.101562 L 48.816406 -0.488281 L 77.40625 46.203125 L 30.714844 74.792969 Z M 2.125 28.101562 " clip-rule="nonzero"/></clipPath><clipPath id="8198a2b354"><path d="M 17 23 L 28 23 L 28 38 L 17 38 Z M 17 23 " clip-rule="nonzero"/></clipPath><clipPath id="456a6cabb7"><path d="M 2.125 28.101562 L 48.816406 -0.488281 L 77.40625 46.203125 L 30.714844 74.792969 Z M 2.125 28.101562 " clip-rule="nonzero"/></clipPath><clipPath id="fa77b50829"><path d="M 2.125 28.101562 L 48.816406 -0.488281 L 77.40625 46.203125 L 30.714844 74.792969 Z M 2.125 28.101562 " clip-rule="nonzero"/></clipPath><clipPath id="8ffff3aa09"><path d="M 2.125 28.101562 L 48.816406 -0.488281 L 77.40625 46.203125 L 30.714844 74.792969 Z M 2.125 28.101562 " clip-rule="nonzero"/></clipPath><clipPath id="7b47925751"><path d="M 35 15 L 48 15 L 48 24 L 35 24 Z M 35 15 " clip-rule="nonzero"/></clipPath><clipPath id="f908e21a11"><path d="M 2.125 28.101562 L 48.816406 -0.488281 L 77.40625 46.203125 L 30.714844 74.792969 Z M 2.125 28.101562 " clip-rule="nonzero"/></clipPath><clipPath id="c610124e06"><path d="M 2.125 28.101562 L 48.816406 -0.488281 L 77.40625 46.203125 L 30.714844 74.792969 Z M 2.125 28.101562 " clip-rule="nonzero"/></clipPath><clipPath id="e93b2a614d"><path d="M 2.125 28.101562 L 48.816406 -0.488281 L 77.40625 46.203125 L 30.714844 74.792969 Z M 2.125 28.101562 " clip-rule="nonzero"/></clipPath><clipPath id="dde9065099"><path d="M 34 14 L 49 14 L 49 24 L 34 24 Z M 34 14 " clip-rule="nonzero"/></clipPath><clipPath id="a91f1ec66f"><path d="M 2.125 28.101562 L 48.816406 -0.488281 L 77.40625 46.203125 L 30.714844 74.792969 Z M 2.125 28.101562 " clip-rule="nonzero"/></clipPath><clipPath id="6785bb42de"><path d="M 2.125 28.101562 L 48.816406 -0.488281 L 77.40625 46.203125 L 30.714844 74.792969 Z M 2.125 28.101562 " clip-rule="nonzero"/></clipPath><clipPath id="1393f6fd6b"><path d="M 2.125 28.101562 L 48.816406 -0.488281 L 77.40625 46.203125 L 30.714844 74.792969 Z M 2.125 28.101562 " clip-rule="nonzero"/></clipPath><clipPath id="5b75dc74bc"><path d="M 24 42 L 38 42 L 38 56 L 24 56 Z M 24 42 " clip-rule="nonzero"/></clipPath><clipPath id="6c38e55c67"><path d="M 2.125 28.101562 L 48.816406 -0.488281 L 77.40625 46.203125 L 30.714844 74.792969 Z M 2.125 28.101562 " clip-rule="nonzero"/></clipPath><clipPath id="a3ff5a8f00"><path d="M 2.125 28.101562 L 48.816406 -0.488281 L 77.40625 46.203125 L 30.714844 74.792969 Z M 2.125 28.101562 " clip-rule="nonzero"/></clipPath><clipPath id="4cd8a3f98e"><path d="M 2.125 28.101562 L 48.816406 -0.488281 L 77.40625 46.203125 L 30.714844 74.792969 Z M 2.125 28.101562 " clip-rule="nonzero"/></clipPath><clipPath id="e086f5659d"><path d="M 24 42 L 39 42 L 39 56 L 24 56 Z M 24 42 " clip-rule="nonzero"/></clipPath><clipPath id="28509603da"><path d="M 2.125 28.101562 L 48.816406 -0.488281 L 77.40625 46.203125 L 30.714844 74.792969 Z M 2.125 28.101562 " clip-rule="nonzero"/></clipPath><clipPath id="a70791c702"><path d="M 2.125 28.101562 L 48.816406 -0.488281 L 77.40625 46.203125 L 30.714844 74.792969 Z M 2.125 28.101562 " clip-rule="nonzero"/></clipPath><clipPath id="5382f04f5b"><path d="M 2.125 28.101562 L 48.816406 -0.488281 L 77.40625 46.203125 L 30.714844 74.792969 Z M 2.125 28.101562 " clip-rule="nonzero"/></clipPath><clipPath id="b37560ac03"><path d="M 30 26 L 44 26 L 44 40 L 30 40 Z M 30 26 " clip-rule="nonzero"/></clipPath><clipPath id="c4b5d8eb51"><path d="M 2.125 28.101562 L 48.816406 -0.488281 L 77.40625 46.203125 L 30.714844 74.792969 Z M 2.125 28.101562 " clip-rule="nonzero"/></clipPath><clipPath id="8cb7b273f9"><path d="M 2.125 28.101562 L 48.816406 -0.488281 L 77.40625 46.203125 L 30.714844 74.792969 Z M 2.125 28.101562 " clip-rule="nonzero"/></clipPath><clipPath id="b4965a176f"><path d="M 2.125 28.101562 L 48.816406 -0.488281 L 77.40625 46.203125 L 30.714844 74.792969 Z M 2.125 28.101562 " clip-rule="nonzero"/></clipPath><clipPath id="8912d9db53"><path d="M 30 26 L 44 26 L 44 41 L 30 41 Z M 30 26 " clip-rule="nonzero"/></clipPath><clipPath id="4cdc5c23d4"><path d="M 2.125 28.101562 L 48.816406 -0.488281 L 77.40625 46.203125 L 30.714844 74.792969 Z M 2.125 28.101562 " clip-rule="nonzero"/></clipPath><clipPath id="b6f187c3a0"><path d="M 2.125 28.101562 L 48.816406 -0.488281 L 77.40625 46.203125 L 30.714844 74.792969 Z M 2.125 28.101562 " clip-rule="nonzero"/></clipPath><clipPath id="3303dd4c91"><path d="M 2.125 28.101562 L 48.816406 -0.488281 L 77.40625 46.203125 L 30.714844 74.792969 Z M 2.125 28.101562 " clip-rule="nonzero"/></clipPath><clipPath id="fc52927588"><path d="M 46 27 L 60 27 L 60 36 L 46 36 Z M 46 27 " clip-rule="nonzero"/></clipPath><clipPath id="2e2caa2a0a"><path d="M 2.125 28.101562 L 48.816406 -0.488281 L 77.40625 46.203125 L 30.714844 74.792969 Z M 2.125 28.101562 " clip-rule="nonzero"/></clipPath><clipPath id="fa837cfba2"><path d="M 2.125 28.101562 L 48.816406 -0.488281 L 77.40625 46.203125 L 30.714844 74.792969 Z M 2.125 28.101562 " clip-rule="nonzero"/></clipPath><clipPath id="eedf88e6bd"><path d="M 2.125 28.101562 L 48.816406 -0.488281 L 77.40625 46.203125 L 30.714844 74.792969 Z M 2.125 28.101562 " clip-rule="nonzero"/></clipPath><clipPath id="51aa763cac"><path d="M 45 27 L 60 27 L 60 37 L 45 37 Z M 45 27 " clip-rule="nonzero"/></clipPath><clipPath id="522babde36"><path d="M 2.125 28.101562 L 48.816406 -0.488281 L 77.40625 46.203125 L 30.714844 74.792969 Z M 2.125 28.101562 " clip-rule="nonzero"/></clipPath><clipPath id="b2df7eef18"><path d="M 2.125 28.101562 L 48.816406 -0.488281 L 77.40625 46.203125 L 30.714844 74.792969 Z M 2.125 28.101562 " clip-rule="nonzero"/></clipPath><clipPath id="463111c880"><path d="M 2.125 28.101562 L 48.816406 -0.488281 L 77.40625 46.203125 L 30.714844 74.792969 Z M 2.125 28.101562 " clip-rule="nonzero"/></clipPath><clipPath id="565f0a453c"><path d="M 43 47 L 55 47 L 55 59 L 43 59 Z M 43 47 " clip-rule="nonzero"/></clipPath><clipPath id="6ff81ef5ed"><path d="M 2.125 28.101562 L 48.816406 -0.488281 L 77.40625 46.203125 L 30.714844 74.792969 Z M 2.125 28.101562 " clip-rule="nonzero"/></clipPath><clipPath id="7d47e747cb"><path d="M 2.125 28.101562 L 48.816406 -0.488281 L 77.40625 46.203125 L 30.714844 74.792969 Z M 2.125 28.101562 " clip-rule="nonzero"/></clipPath><clipPath id="cfcdf29b79"><path d="M 2.125 28.101562 L 48.816406 -0.488281 L 77.40625 46.203125 L 30.714844 74.792969 Z M 2.125 28.101562 " clip-rule="nonzero"/></clipPath><clipPath id="8708284d8e"><path d="M 42 46 L 56 46 L 56 60 L 42 60 Z M 42 46 " clip-rule="nonzero"/></clipPath><clipPath id="d24b649a7a"><path d="M 2.125 28.101562 L 48.816406 -0.488281 L 77.40625 46.203125 L 30.714844 74.792969 Z M 2.125 28.101562 " clip-rule="nonzero"/></clipPath><clipPath id="26a5bdac68"><path d="M 2.125 28.101562 L 48.816406 -0.488281 L 77.40625 46.203125 L 30.714844 74.792969 Z M 2.125 28.101562 " clip-rule="nonzero"/></clipPath><clipPath id="af5f091f7c"><path d="M 2.125 28.101562 L 48.816406 -0.488281 L 77.40625 46.203125 L 30.714844 74.792969 Z M 2.125 28.101562 " clip-rule="nonzero"/></clipPath><clipPath id="ab8001d5e8"><path d="M 21 39 L 27 39 L 27 43 L 21 43 Z M 21 39 " clip-rule="nonzero"/></clipPath><clipPath id="f08299d8fa"><path d="M 2.125 28.101562 L 48.816406 -0.488281 L 77.40625 46.203125 L 30.714844 74.792969 Z M 2.125 28.101562 " clip-rule="nonzero"/></clipPath><clipPath id="19e57156d2"><path d="M 2.125 28.101562 L 48.816406 -0.488281 L 77.40625 46.203125 L 30.714844 74.792969 Z M 2.125 28.101562 " clip-rule="nonzero"/></clipPath><clipPath id="2b4c07b698"><path d="M 2.125 28.101562 L 48.816406 -0.488281 L 77.40625 46.203125 L 30.714844 74.792969 Z M 2.125 28.101562 " clip-rule="nonzero"/></clipPath><clipPath id="e3cfc575f3"><path d="M 20 39 L 27 39 L 27 44 L 20 44 Z M 20 39 " clip-rule="nonzero"/></clipPath><clipPath id="c18404499e"><path d="M 2.125 28.101562 L 48.816406 -0.488281 L 77.40625 46.203125 L 30.714844 74.792969 Z M 2.125 28.101562 " clip-rule="nonzero"/></clipPath><clipPath id="a4535a525a"><path d="M 2.125 28.101562 L 48.816406 -0.488281 L 77.40625 46.203125 L 30.714844 74.792969 Z M 2.125 28.101562 " clip-rule="nonzero"/></clipPath><clipPath id="861b6312a5"><path d="M 2.125 28.101562 L 48.816406 -0.488281 L 77.40625 46.203125 L 30.714844 74.792969 Z M 2.125 28.101562 " clip-rule="nonzero"/></clipPath><clipPath id="b39858f874"><path d="M 29 20 L 33 20 L 33 26 L 29 26 Z M 29 20 " clip-rule="nonzero"/></clipPath><clipPath id="5168349897"><path d="M 2.125 28.101562 L 48.816406 -0.488281 L 77.40625 46.203125 L 30.714844 74.792969 Z M 2.125 28.101562 " clip-rule="nonzero"/></clipPath><clipPath id="60f292b482"><path d="M 2.125 28.101562 L 48.816406 -0.488281 L 77.40625 46.203125 L 30.714844 74.792969 Z M 2.125 28.101562 " clip-rule="nonzero"/></clipPath><clipPath id="15ef167ad7"><path d="M 2.125 28.101562 L 48.816406 -0.488281 L 77.40625 46.203125 L 30.714844 74.792969 Z M 2.125 28.101562 " clip-rule="nonzero"/></clipPath><clipPath id="30603bf66e"><path d="M 28 19 L 33 19 L 33 26 L 28 26 Z M 28 19 " clip-rule="nonzero"/></clipPath><clipPath id="16740a3ce9"><path d="M 2.125 28.101562 L 48.816406 -0.488281 L 77.40625 46.203125 L 30.714844 74.792969 Z M 2.125 28.101562 " clip-rule="nonzero"/></clipPath><clipPath id="f57fa99c6b"><path d="M 2.125 28.101562 L 48.816406 -0.488281 L 77.40625 46.203125 L 30.714844 74.792969 Z M 2.125 28.101562 " clip-rule="nonzero"/></clipPath><clipPath id="1474be2ec7"><path d="M 2.125 28.101562 L 48.816406 -0.488281 L 77.40625 46.203125 L 30.714844 74.792969 Z M 2.125 28.101562 " clip-rule="nonzero"/></clipPath><clipPath id="5072bce44c"><path d="M 44 22 L 50 22 L 50 27 L 44 27 Z M 44 22 " clip-rule="nonzero"/></clipPath><clipPath id="f758f11492"><path d="M 2.125 28.101562 L 48.816406 -0.488281 L 77.40625 46.203125 L 30.714844 74.792969 Z M 2.125 28.101562 " clip-rule="nonzero"/></clipPath><clipPath id="dbc0075d4e"><path d="M 2.125 28.101562 L 48.816406 -0.488281 L 77.40625 46.203125 L 30.714844 74.792969 Z M 2.125 28.101562 " clip-rule="nonzero"/></clipPath><clipPath id="fa33159e55"><path d="M 2.125 28.101562 L 48.816406 -0.488281 L 77.40625 46.203125 L 30.714844 74.792969 Z M 2.125 28.101562 " clip-rule="nonzero"/></clipPath><clipPath id="16ca24ffe2"><path d="M 44 22 L 50 22 L 50 28 L 44 28 Z M 44 22 " clip-rule="nonzero"/></clipPath><clipPath id="5a6dc7e03d"><path d="M 2.125 28.101562 L 48.816406 -0.488281 L 77.40625 46.203125 L 30.714844 74.792969 Z M 2.125 28.101562 " clip-rule="nonzero"/></clipPath><clipPath id="84a4b1b564"><path d="M 2.125 28.101562 L 48.816406 -0.488281 L 77.40625 46.203125 L 30.714844 74.792969 Z M 2.125 28.101562 " clip-rule="nonzero"/></clipPath><clipPath id="9c7ae14423"><path d="M 2.125 28.101562 L 48.816406 -0.488281 L 77.40625 46.203125 L 30.714844 74.792969 Z M 2.125 28.101562 " clip-rule="nonzero"/></clipPath><clipPath id="7e9fc9de1e"><path d="M 40 41 L 46 41 L 46 46 L 40 46 Z M 40 41 " clip-rule="nonzero"/></clipPath><clipPath id="b01773bad6"><path d="M 2.125 28.101562 L 48.816406 -0.488281 L 77.40625 46.203125 L 30.714844 74.792969 Z M 2.125 28.101562 " clip-rule="nonzero"/></clipPath><clipPath id="ade99d41cc"><path d="M 2.125 28.101562 L 48.816406 -0.488281 L 77.40625 46.203125 L 30.714844 74.792969 Z M 2.125 28.101562 " clip-rule="nonzero"/></clipPath><clipPath id="c843b35f17"><path d="M 2.125 28.101562 L 48.816406 -0.488281 L 77.40625 46.203125 L 30.714844 74.792969 Z M 2.125 28.101562 " clip-rule="nonzero"/></clipPath><clipPath id="6e8508cab7"><path d="M 39 40 L 46 40 L 46 46 L 39 46 Z M 39 40 " clip-rule="nonzero"/></clipPath><clipPath id="77295e05d3"><path d="M 2.125 28.101562 L 48.816406 -0.488281 L 77.40625 46.203125 L 30.714844 74.792969 Z M 2.125 28.101562 " clip-rule="nonzero"/></clipPath><clipPath id="7fcb0790ef"><path d="M 2.125 28.101562 L 48.816406 -0.488281 L 77.40625 46.203125 L 30.714844 74.792969 Z M 2.125 28.101562 " clip-rule="nonzero"/></clipPath><clipPath id="987af81f22"><path d="M 2.125 28.101562 L 48.816406 -0.488281 L 77.40625 46.203125 L 30.714844 74.792969 Z M 2.125 28.101562 " clip-rule="nonzero"/></clipPath><clipPath id="c399f0b9ec"><path d="M 37 50 L 42 50 L 42 56 L 37 56 Z M 37 50 " clip-rule="nonzero"/></clipPath><clipPath id="c7a70ad003"><path d="M 2.125 28.101562 L 48.816406 -0.488281 L 77.40625 46.203125 L 30.714844 74.792969 Z M 2.125 28.101562 " clip-rule="nonzero"/></clipPath><clipPath id="1a9434dadb"><path d="M 2.125 28.101562 L 48.816406 -0.488281 L 77.40625 46.203125 L 30.714844 74.792969 Z M 2.125 28.101562 " clip-rule="nonzero"/></clipPath><clipPath id="133b880e57"><path d="M 2.125 28.101562 L 48.816406 -0.488281 L 77.40625 46.203125 L 30.714844 74.792969 Z M 2.125 28.101562 " clip-rule="nonzero"/></clipPath><clipPath id="dd7cb2370b"><path d="M 36 49 L 42 49 L 42 56 L 36 56 Z M 36 49 " clip-rule="nonzero"/></clipPath><clipPath id="cf18414423"><path d="M 2.125 28.101562 L 48.816406 -0.488281 L 77.40625 46.203125 L 30.714844 74.792969 Z M 2.125 28.101562 " clip-rule="nonzero"/></clipPath><clipPath id="f0f97411d5"><path d="M 2.125 28.101562 L 48.816406 -0.488281 L 77.40625 46.203125 L 30.714844 74.792969 Z M 2.125 28.101562 " clip-rule="nonzero"/></clipPath><clipPath id="e8ab00acfa"><path d="M 2.125 28.101562 L 48.816406 -0.488281 L 77.40625 46.203125 L 30.714844 74.792969 Z M 2.125 28.101562 " clip-rule="nonzero"/></clipPath><clipPath id="4fb94c19ff"><path d="M 32 30 L 35 30 L 35 34 L 32 34 Z M 32 30 " clip-rule="nonzero"/></clipPath><clipPath id="0a4e1549de"><path d="M 2.125 28.101562 L 48.816406 -0.488281 L 77.40625 46.203125 L 30.714844 74.792969 Z M 2.125 28.101562 " clip-rule="nonzero"/></clipPath><clipPath id="d8139e9661"><path d="M 2.125 28.101562 L 48.816406 -0.488281 L 77.40625 46.203125 L 30.714844 74.792969 Z M 2.125 28.101562 " clip-rule="nonzero"/></clipPath><clipPath id="f3567b3c91"><path d="M 2.125 28.101562 L 48.816406 -0.488281 L 77.40625 46.203125 L 30.714844 74.792969 Z M 2.125 28.101562 " clip-rule="nonzero"/></clipPath><clipPath id="28ff491019"><path d="M 38 31 L 42 31 L 42 33 L 38 33 Z M 38 31 " clip-rule="nonzero"/></clipPath><clipPath id="693619f61c"><path d="M 2.125 28.101562 L 48.816406 -0.488281 L 77.40625 46.203125 L 30.714844 74.792969 Z M 2.125 28.101562 " clip-rule="nonzero"/></clipPath><clipPath id="6fef9d16fa"><path d="M 2.125 28.101562 L 48.816406 -0.488281 L 77.40625 46.203125 L 30.714844 74.792969 Z M 2.125 28.101562 " clip-rule="nonzero"/></clipPath><clipPath id="ad6c8a5324"><path d="M 2.125 28.101562 L 48.816406 -0.488281 L 77.40625 46.203125 L 30.714844 74.792969 Z M 2.125 28.101562 " clip-rule="nonzero"/></clipPath><clipPath id="d9fc73b370"><path d="M 36 28 L 40 28 L 40 31 L 36 31 Z M 36 28 " clip-rule="nonzero"/></clipPath><clipPath id="9b40410944"><path d="M 2.125 28.101562 L 48.816406 -0.488281 L 77.40625 46.203125 L 30.714844 74.792969 Z M 2.125 28.101562 " clip-rule="nonzero"/></clipPath><clipPath id="2126520592"><path d="M 2.125 28.101562 L 48.816406 -0.488281 L 77.40625 46.203125 L 30.714844 74.792969 Z M 2.125 28.101562 " clip-rule="nonzero"/></clipPath><clipPath id="2e66b58863"><path d="M 2.125 28.101562 L 48.816406 -0.488281 L 77.40625 46.203125 L 30.714844 74.792969 Z M 2.125 28.101562 " clip-rule="nonzero"/></clipPath><clipPath id="a1f82e5e53"><path d="M 35 31 L 38 31 L 38 34 L 35 34 Z M 35 31 " clip-rule="nonzero"/></clipPath><clipPath id="45a57c95c4"><path d="M 2.125 28.101562 L 48.816406 -0.488281 L 77.40625 46.203125 L 30.714844 74.792969 Z M 2.125 28.101562 " clip-rule="nonzero"/></clipPath><clipPath id="5047e77c6a"><path d="M 2.125 28.101562 L 48.816406 -0.488281 L 77.40625 46.203125 L 30.714844 74.792969 Z M 2.125 28.101562 " clip-rule="nonzero"/></clipPath><clipPath id="b83b627d39"><path d="M 2.125 28.101562 L 48.816406 -0.488281 L 77.40625 46.203125 L 30.714844 74.792969 Z M 2.125 28.101562 " clip-rule="nonzero"/></clipPath><clipPath id="2ac370ad54"><path d="M 33 35 L 37 35 L 37 37 L 33 37 Z M 33 35 " clip-rule="nonzero"/></clipPath><clipPath id="7b969e2ce3"><path d="M 2.125 28.101562 L 48.816406 -0.488281 L 77.40625 46.203125 L 30.714844 74.792969 Z M 2.125 28.101562 " clip-rule="nonzero"/></clipPath><clipPath id="831dc80487"><path d="M 2.125 28.101562 L 48.816406 -0.488281 L 77.40625 46.203125 L 30.714844 74.792969 Z M 2.125 28.101562 " clip-rule="nonzero"/></clipPath><clipPath id="1874b7e5ff"><path d="M 2.125 28.101562 L 48.816406 -0.488281 L 77.40625 46.203125 L 30.714844 74.792969 Z M 2.125 28.101562 " clip-rule="nonzero"/></clipPath><clipPath id="10a510d907"><path d="M 38 34 L 41 34 L 41 38 L 38 38 Z M 38 34 " clip-rule="nonzero"/></clipPath><clipPath id="c19d336a11"><path d="M 2.125 28.101562 L 48.816406 -0.488281 L 77.40625 46.203125 L 30.714844 74.792969 Z M 2.125 28.101562 " clip-rule="nonzero"/></clipPath><clipPath id="697f5b9fef"><path d="M 2.125 28.101562 L 48.816406 -0.488281 L 77.40625 46.203125 L 30.714844 74.792969 Z M 2.125 28.101562 " clip-rule="nonzero"/></clipPath><clipPath id="086a10ddd0"><path d="M 2.125 28.101562 L 48.816406 -0.488281 L 77.40625 46.203125 L 30.714844 74.792969 Z M 2.125 28.101562 " clip-rule="nonzero"/></clipPath><clipPath id="3df45f56d0"><path d="M 26 46 L 29 46 L 29 50 L 26 50 Z M 26 46 " clip-rule="nonzero"/></clipPath><clipPath id="04d2e186d3"><path d="M 2.125 28.101562 L 48.816406 -0.488281 L 77.40625 46.203125 L 30.714844 74.792969 Z M 2.125 28.101562 " clip-rule="nonzero"/></clipPath><clipPath id="3a31217135"><path d="M 2.125 28.101562 L 48.816406 -0.488281 L 77.40625 46.203125 L 30.714844 74.792969 Z M 2.125 28.101562 " clip-rule="nonzero"/></clipPath><clipPath id="2d38a5ca62"><path d="M 2.125 28.101562 L 48.816406 -0.488281 L 77.40625 46.203125 L 30.714844 74.792969 Z M 2.125 28.101562 " clip-rule="nonzero"/></clipPath><clipPath id="88c4e1299d"><path d="M 32 47 L 36 47 L 36 49 L 32 49 Z M 32 47 " clip-rule="nonzero"/></clipPath><clipPath id="813b46c545"><path d="M 2.125 28.101562 L 48.816406 -0.488281 L 77.40625 46.203125 L 30.714844 74.792969 Z M 2.125 28.101562 " clip-rule="nonzero"/></clipPath><clipPath id="5038bfdacb"><path d="M 2.125 28.101562 L 48.816406 -0.488281 L 77.40625 46.203125 L 30.714844 74.792969 Z M 2.125 28.101562 " clip-rule="nonzero"/></clipPath><clipPath id="ee3f0e98ba"><path d="M 2.125 28.101562 L 48.816406 -0.488281 L 77.40625 46.203125 L 30.714844 74.792969 Z M 2.125 28.101562 " clip-rule="nonzero"/></clipPath><clipPath id="e328b9b21e"><path d="M 30 44 L 34 44 L 34 47 L 30 47 Z M 30 44 " clip-rule="nonzero"/></clipPath><clipPath id="fe88a3598d"><path d="M 2.125 28.101562 L 48.816406 -0.488281 L 77.40625 46.203125 L 30.714844 74.792969 Z M 2.125 28.101562 " clip-rule="nonzero"/></clipPath><clipPath id="281cbe7941"><path d="M 2.125 28.101562 L 48.816406 -0.488281 L 77.40625 46.203125 L 30.714844 74.792969 Z M 2.125 28.101562 " clip-rule="nonzero"/></clipPath><clipPath id="bf84c9bf45"><path d="M 2.125 28.101562 L 48.816406 -0.488281 L 77.40625 46.203125 L 30.714844 74.792969 Z M 2.125 28.101562 " clip-rule="nonzero"/></clipPath><clipPath id="d12424790d"><path d="M 29 47 L 32 47 L 32 50 L 29 50 Z M 29 47 " clip-rule="nonzero"/></clipPath><clipPath id="59fad97acd"><path d="M 2.125 28.101562 L 48.816406 -0.488281 L 77.40625 46.203125 L 30.714844 74.792969 Z M 2.125 28.101562 " clip-rule="nonzero"/></clipPath><clipPath id="b38a673dc0"><path d="M 2.125 28.101562 L 48.816406 -0.488281 L 77.40625 46.203125 L 30.714844 74.792969 Z M 2.125 28.101562 " clip-rule="nonzero"/></clipPath><clipPath id="fd5b2b63df"><path d="M 2.125 28.101562 L 48.816406 -0.488281 L 77.40625 46.203125 L 30.714844 74.792969 Z M 2.125 28.101562 " clip-rule="nonzero"/></clipPath><clipPath id="daf8109902"><path d="M 28 51 L 31 51 L 31 53 L 28 53 Z M 28 51 " clip-rule="nonzero"/></clipPath><clipPath id="e03555e39c"><path d="M 2.125 28.101562 L 48.816406 -0.488281 L 77.40625 46.203125 L 30.714844 74.792969 Z M 2.125 28.101562 " clip-rule="nonzero"/></clipPath><clipPath id="26f73036b4"><path d="M 2.125 28.101562 L 48.816406 -0.488281 L 77.40625 46.203125 L 30.714844 74.792969 Z M 2.125 28.101562 " clip-rule="nonzero"/></clipPath><clipPath id="c30daa97e5"><path d="M 2.125 28.101562 L 48.816406 -0.488281 L 77.40625 46.203125 L 30.714844 74.792969 Z M 2.125 28.101562 " clip-rule="nonzero"/></clipPath><clipPath id="9038f1af73"><path d="M 32 50 L 35 50 L 35 54 L 32 54 Z M 32 50 " clip-rule="nonzero"/></clipPath><clipPath id="eed1590c2f"><path d="M 2.125 28.101562 L 48.816406 -0.488281 L 77.40625 46.203125 L 30.714844 74.792969 Z M 2.125 28.101562 " clip-rule="nonzero"/></clipPath><clipPath id="a9ff17e859"><path d="M 2.125 28.101562 L 48.816406 -0.488281 L 77.40625 46.203125 L 30.714844 74.792969 Z M 2.125 28.101562 " clip-rule="nonzero"/></clipPath><clipPath id="1cfb37be9f"><path d="M 2.125 28.101562 L 48.816406 -0.488281 L 77.40625 46.203125 L 30.714844 74.792969 Z M 2.125 28.101562 " clip-rule="nonzero"/></clipPath><clipPath id="ff56b1cc42"><path d="M 45 51 L 47 51 L 47 55 L 45 55 Z M 45 51 " clip-rule="nonzero"/></clipPath><clipPath id="1f637f0994"><path d="M 2.125 28.101562 L 48.816406 -0.488281 L 77.40625 46.203125 L 30.714844 74.792969 Z M 2.125 28.101562 " clip-rule="nonzero"/></clipPath><clipPath id="4e5de12d7f"><path d="M 2.125 28.101562 L 48.816406 -0.488281 L 77.40625 46.203125 L 30.714844 74.792969 Z M 2.125 28.101562 " clip-rule="nonzero"/></clipPath><clipPath id="5f99a006eb"><path d="M 2.125 28.101562 L 48.816406 -0.488281 L 77.40625 46.203125 L 30.714844 74.792969 Z M 2.125 28.101562 " clip-rule="nonzero"/></clipPath><clipPath id="a38780731a"><path d="M 51 51 L 54 51 L 54 54 L 51 54 Z M 51 51 " clip-rule="nonzero"/></clipPath><clipPath id="c4317ef263"><path d="M 2.125 28.101562 L 48.816406 -0.488281 L 77.40625 46.203125 L 30.714844 74.792969 Z M 2.125 28.101562 " clip-rule="nonzero"/></clipPath><clipPath id="63e4bbb28c"><path d="M 2.125 28.101562 L 48.816406 -0.488281 L 77.40625 46.203125 L 30.714844 74.792969 Z M 2.125 28.101562 " clip-rule="nonzero"/></clipPath><clipPath id="00ecd7828e"><path d="M 2.125 28.101562 L 48.816406 -0.488281 L 77.40625 46.203125 L 30.714844 74.792969 Z M 2.125 28.101562 " clip-rule="nonzero"/></clipPath><clipPath id="2640dcfd0c"><path d="M 48 48 L 52 48 L 52 51 L 48 51 Z M 48 48 " clip-rule="nonzero"/></clipPath><clipPath id="a97f2e91bc"><path d="M 2.125 28.101562 L 48.816406 -0.488281 L 77.40625 46.203125 L 30.714844 74.792969 Z M 2.125 28.101562 " clip-rule="nonzero"/></clipPath><clipPath id="c886e2b03f"><path d="M 2.125 28.101562 L 48.816406 -0.488281 L 77.40625 46.203125 L 30.714844 74.792969 Z M 2.125 28.101562 " clip-rule="nonzero"/></clipPath><clipPath id="9618f49308"><path d="M 2.125 28.101562 L 48.816406 -0.488281 L 77.40625 46.203125 L 30.714844 74.792969 Z M 2.125 28.101562 " clip-rule="nonzero"/></clipPath><clipPath id="644666aac1"><path d="M 47 51 L 51 51 L 51 55 L 47 55 Z M 47 51 " clip-rule="nonzero"/></clipPath><clipPath id="798769096e"><path d="M 2.125 28.101562 L 48.816406 -0.488281 L 77.40625 46.203125 L 30.714844 74.792969 Z M 2.125 28.101562 " clip-rule="nonzero"/></clipPath><clipPath id="94f0235cfc"><path d="M 2.125 28.101562 L 48.816406 -0.488281 L 77.40625 46.203125 L 30.714844 74.792969 Z M 2.125 28.101562 " clip-rule="nonzero"/></clipPath><clipPath id="522c42105d"><path d="M 2.125 28.101562 L 48.816406 -0.488281 L 77.40625 46.203125 L 30.714844 74.792969 Z M 2.125 28.101562 " clip-rule="nonzero"/></clipPath><clipPath id="875f369255"><path d="M 46 55 L 50 55 L 50 58 L 46 58 Z M 46 55 " clip-rule="nonzero"/></clipPath><clipPath id="32e54709f8"><path d="M 2.125 28.101562 L 48.816406 -0.488281 L 77.40625 46.203125 L 30.714844 74.792969 Z M 2.125 28.101562 " clip-rule="nonzero"/></clipPath><clipPath id="657453ce90"><path d="M 2.125 28.101562 L 48.816406 -0.488281 L 77.40625 46.203125 L 30.714844 74.792969 Z M 2.125 28.101562 " clip-rule="nonzero"/></clipPath><clipPath id="d40fe7adaa"><path d="M 2.125 28.101562 L 48.816406 -0.488281 L 77.40625 46.203125 L 30.714844 74.792969 Z M 2.125 28.101562 " clip-rule="nonzero"/></clipPath><clipPath id="21b8fe59b0"><path d="M 50 54 L 53 54 L 53 57 L 50 57 Z M 50 54 " clip-rule="nonzero"/></clipPath><clipPath id="1ff01e1c86"><path d="M 2.125 28.101562 L 48.816406 -0.488281 L 77.40625 46.203125 L 30.714844 74.792969 Z M 2.125 28.101562 " clip-rule="nonzero"/></clipPath><clipPath id="9f305e1eec"><path d="M 2.125 28.101562 L 48.816406 -0.488281 L 77.40625 46.203125 L 30.714844 74.792969 Z M 2.125 28.101562 " clip-rule="nonzero"/></clipPath><clipPath id="ef945868df"><path d="M 2.125 28.101562 L 48.816406 -0.488281 L 77.40625 46.203125 L 30.714844 74.792969 Z M 2.125 28.101562 " clip-rule="nonzero"/></clipPath><clipPath id="fc55a79f70"><path d="M 48 31 L 50 31 L 50 35 L 48 35 Z M 48 31 " clip-rule="nonzero"/></clipPath><clipPath id="bb7efdd03d"><path d="M 2.125 28.101562 L 48.816406 -0.488281 L 77.40625 46.203125 L 30.714844 74.792969 Z M 2.125 28.101562 " clip-rule="nonzero"/></clipPath><clipPath id="ee475bb2ff"><path d="M 2.125 28.101562 L 48.816406 -0.488281 L 77.40625 46.203125 L 30.714844 74.792969 Z M 2.125 28.101562 " clip-rule="nonzero"/></clipPath><clipPath id="1df1606c0c"><path d="M 2.125 28.101562 L 48.816406 -0.488281 L 77.40625 46.203125 L 30.714844 74.792969 Z M 2.125 28.101562 " clip-rule="nonzero"/></clipPath><clipPath id="82336a9860"><path d="M 54 32 L 58 32 L 58 34 L 54 34 Z M 54 32 " clip-rule="nonzero"/></clipPath><clipPath id="33f1b58404"><path d="M 2.125 28.101562 L 48.816406 -0.488281 L 77.40625 46.203125 L 30.714844 74.792969 Z M 2.125 28.101562 " clip-rule="nonzero"/></clipPath><clipPath id="4a28c99072"><path d="M 2.125 28.101562 L 48.816406 -0.488281 L 77.40625 46.203125 L 30.714844 74.792969 Z M 2.125 28.101562 " clip-rule="nonzero"/></clipPath><clipPath id="70969a8736"><path d="M 2.125 28.101562 L 48.816406 -0.488281 L 77.40625 46.203125 L 30.714844 74.792969 Z M 2.125 28.101562 " clip-rule="nonzero"/></clipPath><clipPath id="b26278e669"><path d="M 52 29 L 55 29 L 55 32 L 52 32 Z M 52 29 " clip-rule="nonzero"/></clipPath><clipPath id="1ae2fbd3c3"><path d="M 2.125 28.101562 L 48.816406 -0.488281 L 77.40625 46.203125 L 30.714844 74.792969 Z M 2.125 28.101562 " clip-rule="nonzero"/></clipPath><clipPath id="69fab218ee"><path d="M 2.125 28.101562 L 48.816406 -0.488281 L 77.40625 46.203125 L 30.714844 74.792969 Z M 2.125 28.101562 " clip-rule="nonzero"/></clipPath><clipPath id="13f746a9e2"><path d="M 2.125 28.101562 L 48.816406 -0.488281 L 77.40625 46.203125 L 30.714844 74.792969 Z M 2.125 28.101562 " clip-rule="nonzero"/></clipPath><clipPath id="a310f33c4b"><path d="M 51 32 L 54 32 L 54 35 L 51 35 Z M 51 32 " clip-rule="nonzero"/></clipPath><clipPath id="b13fe4f8f2"><path d="M 2.125 28.101562 L 48.816406 -0.488281 L 77.40625 46.203125 L 30.714844 74.792969 Z M 2.125 28.101562 " clip-rule="nonzero"/></clipPath><clipPath id="06ffd518fb"><path d="M 2.125 28.101562 L 48.816406 -0.488281 L 77.40625 46.203125 L 30.714844 74.792969 Z M 2.125 28.101562 " clip-rule="nonzero"/></clipPath><clipPath id="2f93715234"><path d="M 2.125 28.101562 L 48.816406 -0.488281 L 77.40625 46.203125 L 30.714844 74.792969 Z M 2.125 28.101562 " clip-rule="nonzero"/></clipPath><clipPath id="a86387edf4"><path d="M 22 28 L 26 28 L 26 31 L 22 31 Z M 22 28 " clip-rule="nonzero"/></clipPath><clipPath id="475587d30c"><path d="M 2.125 28.101562 L 48.816406 -0.488281 L 77.40625 46.203125 L 30.714844 74.792969 Z M 2.125 28.101562 " clip-rule="nonzero"/></clipPath><clipPath id="5e142b1ce2"><path d="M 2.125 28.101562 L 48.816406 -0.488281 L 77.40625 46.203125 L 30.714844 74.792969 Z M 2.125 28.101562 " clip-rule="nonzero"/></clipPath><clipPath id="263146a63d"><path d="M 2.125 28.101562 L 48.816406 -0.488281 L 77.40625 46.203125 L 30.714844 74.792969 Z M 2.125 28.101562 " clip-rule="nonzero"/></clipPath><clipPath id="5a75835c0c"><path d="M 20 25 L 23 25 L 23 28 L 20 28 Z M 20 25 " clip-rule="nonzero"/></clipPath><clipPath id="52d06afb83"><path d="M 2.125 28.101562 L 48.816406 -0.488281 L 77.40625 46.203125 L 30.714844 74.792969 Z M 2.125 28.101562 " clip-rule="nonzero"/></clipPath><clipPath id="b9e355e9be"><path d="M 2.125 28.101562 L 48.816406 -0.488281 L 77.40625 46.203125 L 30.714844 74.792969 Z M 2.125 28.101562 " clip-rule="nonzero"/></clipPath><clipPath id="7527638e3f"><path d="M 2.125 28.101562 L 48.816406 -0.488281 L 77.40625 46.203125 L 30.714844 74.792969 Z M 2.125 28.101562 " clip-rule="nonzero"/></clipPath><clipPath id="9eee13cac8"><path d="M 19 28 L 22 28 L 22 32 L 19 32 Z M 19 28 " clip-rule="nonzero"/></clipPath><clipPath id="d89cd55199"><path d="M 2.125 28.101562 L 48.816406 -0.488281 L 77.40625 46.203125 L 30.714844 74.792969 Z M 2.125 28.101562 " clip-rule="nonzero"/></clipPath><clipPath id="14fec80989"><path d="M 2.125 28.101562 L 48.816406 -0.488281 L 77.40625 46.203125 L 30.714844 74.792969 Z M 2.125 28.101562 " clip-rule="nonzero"/></clipPath><clipPath id="ea73130000"><path d="M 2.125 28.101562 L 48.816406 -0.488281 L 77.40625 46.203125 L 30.714844 74.792969 Z M 2.125 28.101562 " clip-rule="nonzero"/></clipPath><clipPath id="a072cc4ce8"><path d="M 17 32 L 21 32 L 21 35 L 17 35 Z M 17 32 " clip-rule="nonzero"/></clipPath><clipPath id="30b107cb24"><path d="M 2.125 28.101562 L 48.816406 -0.488281 L 77.40625 46.203125 L 30.714844 74.792969 Z M 2.125 28.101562 " clip-rule="nonzero"/></clipPath><clipPath id="d9682552d1"><path d="M 2.125 28.101562 L 48.816406 -0.488281 L 77.40625 46.203125 L 30.714844 74.792969 Z M 2.125 28.101562 " clip-rule="nonzero"/></clipPath><clipPath id="a8af4c4e84"><path d="M 2.125 28.101562 L 48.816406 -0.488281 L 77.40625 46.203125 L 30.714844 74.792969 Z M 2.125 28.101562 " clip-rule="nonzero"/></clipPath><clipPath id="f66ac7dc4f"><path d="M 22 31 L 24 31 L 24 35 L 22 35 Z M 22 31 " clip-rule="nonzero"/></clipPath><clipPath id="5fc65f2797"><path d="M 2.125 28.101562 L 48.816406 -0.488281 L 77.40625 46.203125 L 30.714844 74.792969 Z M 2.125 28.101562 " clip-rule="nonzero"/></clipPath><clipPath id="1be941b27a"><path d="M 2.125 28.101562 L 48.816406 -0.488281 L 77.40625 46.203125 L 30.714844 74.792969 Z M 2.125 28.101562 " clip-rule="nonzero"/></clipPath><clipPath id="dc85d8d300"><path d="M 2.125 28.101562 L 48.816406 -0.488281 L 77.40625 46.203125 L 30.714844 74.792969 Z M 2.125 28.101562 " clip-rule="nonzero"/></clipPath><clipPath id="c61e5b5f21"><path d="M 37 14 L 40 14 L 40 18 L 37 18 Z M 37 14 " clip-rule="nonzero"/></clipPath><clipPath id="6466a7f1d1"><path d="M 2.125 28.101562 L 48.816406 -0.488281 L 77.40625 46.203125 L 30.714844 74.792969 Z M 2.125 28.101562 " clip-rule="nonzero"/></clipPath><clipPath id="a3c1461cc2"><path d="M 2.125 28.101562 L 48.816406 -0.488281 L 77.40625 46.203125 L 30.714844 74.792969 Z M 2.125 28.101562 " clip-rule="nonzero"/></clipPath><clipPath id="179520e1ee"><path d="M 2.125 28.101562 L 48.816406 -0.488281 L 77.40625 46.203125 L 30.714844 74.792969 Z M 2.125 28.101562 " clip-rule="nonzero"/></clipPath><clipPath id="40de23013b"><path d="M 43 15 L 47 15 L 47 17 L 43 17 Z M 43 15 " clip-rule="nonzero"/></clipPath><clipPath id="f92eff9cc3"><path d="M 2.125 28.101562 L 48.816406 -0.488281 L 77.40625 46.203125 L 30.714844 74.792969 Z M 2.125 28.101562 " clip-rule="nonzero"/></clipPath><clipPath id="77bfffeb9b"><path d="M 2.125 28.101562 L 48.816406 -0.488281 L 77.40625 46.203125 L 30.714844 74.792969 Z M 2.125 28.101562 " clip-rule="nonzero"/></clipPath><clipPath id="fc9a69b73d"><path d="M 2.125 28.101562 L 48.816406 -0.488281 L 77.40625 46.203125 L 30.714844 74.792969 Z M 2.125 28.101562 " clip-rule="nonzero"/></clipPath><clipPath id="11d075a19b"><path d="M 40 15 L 43 15 L 43 18 L 40 18 Z M 40 15 " clip-rule="nonzero"/></clipPath><clipPath id="71539bf4c9"><path d="M 2.125 28.101562 L 48.816406 -0.488281 L 77.40625 46.203125 L 30.714844 74.792969 Z M 2.125 28.101562 " clip-rule="nonzero"/></clipPath><clipPath id="7e62aca58d"><path d="M 2.125 28.101562 L 48.816406 -0.488281 L 77.40625 46.203125 L 30.714844 74.792969 Z M 2.125 28.101562 " clip-rule="nonzero"/></clipPath><clipPath id="f843f507cf"><path d="M 2.125 28.101562 L 48.816406 -0.488281 L 77.40625 46.203125 L 30.714844 74.792969 Z M 2.125 28.101562 " clip-rule="nonzero"/></clipPath><clipPath id="c571f3e0cc"><path d="M 38 19 L 42 19 L 42 21 L 38 21 Z M 38 19 " clip-rule="nonzero"/></clipPath><clipPath id="9cb4b1e43b"><path d="M 2.125 28.101562 L 48.816406 -0.488281 L 77.40625 46.203125 L 30.714844 74.792969 Z M 2.125 28.101562 " clip-rule="nonzero"/></clipPath><clipPath id="89f5e6dd74"><path d="M 2.125 28.101562 L 48.816406 -0.488281 L 77.40625 46.203125 L 30.714844 74.792969 Z M 2.125 28.101562 " clip-rule="nonzero"/></clipPath><clipPath id="ca6e21d48d"><path d="M 2.125 28.101562 L 48.816406 -0.488281 L 77.40625 46.203125 L 30.714844 74.792969 Z M 2.125 28.101562 " clip-rule="nonzero"/></clipPath><clipPath id="9f42b72ace"><path d="M 43 18 L 45 18 L 45 21 L 43 21 Z M 43 18 " clip-rule="nonzero"/></clipPath><clipPath id="d6625bd5f6"><path d="M 2.125 28.101562 L 48.816406 -0.488281 L 77.40625 46.203125 L 30.714844 74.792969 Z M 2.125 28.101562 " clip-rule="nonzero"/></clipPath><clipPath id="5ffd478c0c"><path d="M 2.125 28.101562 L 48.816406 -0.488281 L 77.40625 46.203125 L 30.714844 74.792969 Z M 2.125 28.101562 " clip-rule="nonzero"/></clipPath><clipPath id="0a7688170b"><path d="M 2.125 28.101562 L 48.816406 -0.488281 L 77.40625 46.203125 L 30.714844 74.792969 Z M 2.125 28.101562 " clip-rule="nonzero"/></clipPath></defs><g clip-path="url(#cdef206954)"><g clip-path="url(#f2acfd558d)"><g clip-path="url(#6d80d87706)"><g clip-path="url(#2c36167f49)"><path fill="#efbc3d" d="M 39.078125 35.808594 L 66.507812 35.621094 C 66.265625 31.347656 64.996094 27.074219 62.605469 23.167969 C 54.878906 10.554688 38.394531 6.589844 25.78125 14.3125 C 13.167969 22.035156 9.203125 38.523438 16.925781 51.136719 C 24.648438 63.75 41.136719 67.714844 53.75 59.988281 C 55.316406 59.03125 56.75 57.9375 58.046875 56.730469 L 39.078125 35.808594 " fill-opacity="1" fill-rule="nonzero"/></g></g></g></g><g clip-path="url(#8c617e57dd)"><g clip-path="url(#0d602b0bf1)"><g clip-path="url(#55b4d1b89c)"><g clip-path="url(#b2833478d2)"><path stroke-linecap="round" transform="matrix(0.0201433, -0.012334, -0.012334, -0.0201433, 23.162656, 106.19819)" fill="none" stroke-linejoin="round" d="M 2130.878852 2189.675952 L 3125.423639 1590.011623 C 3211.159103 1749.666406 3259.800428 1932.03441 3259.844564 2125.930342 C 3259.725869 2752.180251 2752.270985 3259.927161 2126.021076 3259.808466 C 1499.716487 3259.917175 992.165299 2752.148524 992.142952 2125.984978 C 992.120605 1499.821431 1499.802894 992.129201 2126.052803 992.247896 C 2203.76949 992.172088 2279.71341 999.969073 2353.225347 1014.878957 Z M 2130.878852 2189.675952 " stroke="#000000" stroke-width="50" stroke-opacity="1" stroke-miterlimit="10"/></g></g></g></g><g clip-path="url(#b48abb575a)"><g clip-path="url(#408edab829)"><g clip-path="url(#814e3bea47)"><g clip-path="url(#c743793b80)"><path fill="#faf5a3" d="M 58.621094 25.605469 C 60.550781 28.757812 61.589844 32.203125 61.820312 35.65625 L 58.820312 35.675781 L 46.78125 35.757812 L 39.078125 35.8125 L 49.492188 47.296875 L 54.90625 53.265625 C 54.632812 53.519531 54.355469 53.765625 54.070312 54.007812 C 53.929688 54.128906 53.785156 54.246094 53.640625 54.367188 L 53.636719 54.367188 C 53.347656 54.601562 53.046875 54.828125 52.738281 55.050781 C 52.585938 55.164062 52.429688 55.273438 52.273438 55.378906 C 52.15625 55.460938 52.039062 55.539062 51.917969 55.621094 C 51.859375 55.660156 51.800781 55.695312 51.742188 55.734375 C 51.597656 55.824219 51.453125 55.917969 51.308594 56.003906 C 49.503906 57.109375 47.601562 57.925781 45.660156 58.464844 C 36.398438 61.03125 26.179688 57.304688 20.910156 48.695312 C 18.453125 44.679688 17.429688 40.1875 17.699219 35.820312 C 17.949219 31.644531 19.382812 27.585938 21.871094 24.160156 C 23.53125 21.871094 25.660156 19.863281 28.21875 18.296875 C 30.554688 16.867188 33.042969 15.925781 35.582031 15.4375 C 39.757812 14.632812 44.054688 15.066406 47.941406 16.609375 C 52.230469 18.316406 56.023438 21.367188 58.621094 25.605469 " fill-opacity="1" fill-rule="nonzero"/></g></g></g></g><g clip-path="url(#0babf6521d)"><g clip-path="url(#308e8bef04)"><g clip-path="url(#cbaab67e3d)"><g clip-path="url(#72221ee2ae)"><path stroke-linecap="round" transform="matrix(0.0201433, -0.012334, -0.012334, -0.0201433, 23.162656, 106.19819)" fill="none" stroke-linejoin="round" d="M 3062.09144 2126.009211 C 3062.072183 1969.525176 3023.418115 1822.153512 2955.395556 1692.37671 L 2846.643218 1757.997558 L 2410.13708 2021.203527 L 2130.792489 2189.534909 L 2252.906959 1544.629146 L 2316.430439 1209.418619 C 2300.94394 1206.29621 2285.489124 1203.542247 2269.838584 1201.102052 C 2262.083836 1199.838773 2254.274407 1198.802898 2246.378616 1197.625981 L 2246.237574 1197.712343 C 2230.618716 1195.640594 2214.749456 1194.110016 2198.684473 1192.893204 C 2190.679321 1192.171096 2182.619489 1191.676393 2174.64602 1191.322731 C 2168.601146 1190.951704 2162.642634 1190.721718 2156.456718 1190.437053 C 2153.477462 1190.32206 2150.584568 1190.34811 2147.605312 1190.233117 C 2140.400418 1190.184539 2133.109162 1189.994918 2125.990629 1190.087383 C 2036.3886 1190.071667 1949.651303 1202.652136 1867.63529 1226.110234 C 1476.483997 1338.209843 1189.906602 1698.687389 1189.982439 2126.047151 C 1190.046992 2325.360425 1252.410261 2510.18599 1358.694962 2661.91236 C 1460.042711 2807.159465 1601.535432 2922.007596 1767.118935 2990.68911 C 1877.670101 3036.636056 1998.928281 3062.064505 2125.942207 3062.055342 C 2241.894048 3062.032333 2352.551283 3041.010911 2455.02407 3002.505868 C 2623.58893 2939.239554 2769.149331 2828.585591 2875.373461 2686.943615 C 2992.497747 2530.482568 3062.001106 2336.470933 3062.09144 2126.009211 Z M 3062.09144 2126.009211 " stroke="#000000" stroke-width="50" stroke-opacity="1" stroke-miterlimit="10"/></g></g></g></g><g clip-path="url(#fdc3979f80)"><g clip-path="url(#414743979b)"><g clip-path="url(#d5c514e8a3)"><g clip-path="url(#cf52b0a52f)"><path fill="#ef3638" d="M 25.953125 27.019531 C 27.757812 29.964844 26.832031 33.816406 23.886719 35.621094 C 21.933594 36.816406 19.585938 36.8125 17.699219 35.820312 C 17.949219 31.644531 19.382812 27.585938 21.871094 24.160156 C 23.511719 24.492188 25.011719 25.480469 25.953125 27.019531 " fill-opacity="1" fill-rule="nonzero"/></g></g></g></g><g clip-path="url(#8198a2b354)"><g clip-path="url(#456a6cabb7)"><g clip-path="url(#fa77b50829)"><g clip-path="url(#8ffff3aa09)"><path stroke-linecap="round" transform="matrix(0.0201433, -0.012334, -0.012334, -0.0201433, 23.162656, 106.19819)" fill="none" stroke-linejoin="round" d="M 1851.29117 2797.197758 C 1851.335746 2650.952553 1732.755721 2532.352599 1586.510516 2532.308023 C 1489.56255 2532.330091 1404.882457 2584.374729 1358.694962 2661.91236 C 1460.042711 2807.159465 1601.535432 2922.007596 1767.118935 2990.68911 C 1819.015949 2942.428446 1851.326613 2873.581701 1851.29117 2797.197758 Z M 1851.29117 2797.197758 " stroke="#000000" stroke-width="50" stroke-opacity="1" stroke-miterlimit="10"/></g></g></g></g><g clip-path="url(#7b47925751)"><g clip-path="url(#f908e21a11)"><g clip-path="url(#c610124e06)"><g clip-path="url(#e93b2a614d)"><path fill="#ef3638" d="M 47.941406 16.609375 C 47.996094 18.773438 46.933594 20.902344 44.957031 22.113281 C 42.007812 23.917969 38.15625 22.992188 36.355469 20.046875 C 35.476562 18.609375 35.242188 16.960938 35.582031 15.4375 C 39.757812 14.632812 44.054688 15.066406 47.941406 16.609375 " fill-opacity="1" fill-rule="nonzero"/></g></g></g></g><g clip-path="url(#dde9065099)"><g clip-path="url(#a91f1ec66f)"><g clip-path="url(#6785bb42de)"><g clip-path="url(#1393f6fd6b)"><path stroke-linecap="round" transform="matrix(0.0201433, -0.012334, -0.012334, -0.0201433, 23.162656, 106.19819)" fill="none" stroke-linejoin="round" d="M 2875.373461 2686.943615 C 2829.503474 2607.597082 2744.072633 2554.219478 2645.932965 2554.195549 C 2499.546717 2554.237335 2380.946764 2672.81736 2381.043229 2818.976203 C 2381.089936 2890.311252 2409.213225 2954.926487 2455.02407 3002.505868 C 2623.58893 2939.239554 2769.149331 2828.585591 2875.373461 2686.943615 Z M 2875.373461 2686.943615 " stroke="#000000" stroke-width="50" stroke-opacity="1" stroke-miterlimit="10"/></g></g></g></g><g clip-path="url(#5b75dc74bc)"><g clip-path="url(#6c38e55c67)"><g clip-path="url(#a3ff5a8f00)"><g clip-path="url(#4cd8a3f98e)"><path fill="#ef3638" d="M 36.585938 45.738281 C 38.390625 48.6875 37.464844 52.539062 34.519531 54.34375 C 31.570312 56.144531 27.71875 55.21875 25.914062 52.273438 C 24.113281 49.328125 25.039062 45.476562 27.984375 43.671875 C 30.933594 41.867188 34.78125 42.796875 36.585938 45.738281 " fill-opacity="1" fill-rule="nonzero"/></g></g></g></g><g clip-path="url(#e086f5659d)"><g clip-path="url(#28509603da)"><g clip-path="url(#a70791c702)"><g clip-path="url(#5382f04f5b)"><path stroke-linecap="round" transform="matrix(0.0201433, -0.012334, -0.012334, -0.0201433, 23.162656, 106.19819)" fill="none" stroke-linejoin="round" d="M 1821.361482 1886.24528 C 1821.319697 1739.859033 1702.739671 1621.259079 1556.494466 1621.214502 C 1410.194581 1621.39733 1291.594627 1739.977355 1291.55005 1886.22256 C 1291.646516 2032.381403 1410.226541 2150.981357 1556.471746 2151.025934 C 1702.857994 2150.984149 1821.230543 2032.349443 1821.361482 1886.24528 Z M 1821.361482 1886.24528 " stroke="#000000" stroke-width="50" stroke-opacity="1" stroke-miterlimit="10"/></g></g></g></g><g clip-path="url(#b37560ac03)"><g clip-path="url(#c4b5d8eb51)"><g clip-path="url(#8cb7b273f9)"><g clip-path="url(#b4965a176f)"><path fill="#ef3638" d="M 42.390625 29.902344 C 44.195312 32.851562 43.265625 36.699219 40.320312 38.503906 C 37.375 40.308594 33.523438 39.382812 31.71875 36.4375 C 29.914062 33.488281 30.84375 29.640625 33.789062 27.835938 C 36.734375 26.03125 40.585938 26.957031 42.390625 29.902344 " fill-opacity="1" fill-rule="nonzero"/></g></g></g></g><g clip-path="url(#8912d9db53)"><g clip-path="url(#4cdc5c23d4)"><g clip-path="url(#b6f187c3a0)"><g clip-path="url(#3303dd4c91)"><path stroke-linecap="round" transform="matrix(0.0201433, -0.012334, -0.012334, -0.0201433, 23.162656, 106.19819)" fill="none" stroke-linejoin="round" d="M 2381.062197 2329.696967 C 2381.020412 2183.310719 2262.385706 2064.93817 2116.140501 2064.893593 C 1969.895296 2064.849017 1851.295342 2183.429042 1851.250766 2329.674247 C 1851.292551 2476.060495 1969.927257 2594.433044 2116.172462 2594.477621 C 2262.417667 2594.522197 2381.01762 2475.942172 2381.062197 2329.696967 Z M 2381.062197 2329.696967 " stroke="#000000" stroke-width="50" stroke-opacity="1" stroke-miterlimit="10"/></g></g></g></g><g clip-path="url(#fc52927588)"><g clip-path="url(#2e2caa2a0a)"><g clip-path="url(#fa837cfba2)"><g clip-path="url(#eedf88e6bd)"><path fill="#ef3638" d="M 58.125 30.75 C 59.0625 32.285156 59.261719 34.066406 58.820312 35.675781 L 46.78125 35.757812 C 46.015625 33.117188 47.066406 30.1875 49.523438 28.683594 C 52.46875 26.878906 56.320312 27.804688 58.125 30.75 " fill-opacity="1" fill-rule="nonzero"/></g></g></g></g><g clip-path="url(#51aa763cac)"><g clip-path="url(#522babde36)"><g clip-path="url(#b2df7eef18)"><g clip-path="url(#463111c880)"><path stroke-linecap="round" transform="matrix(0.0201433, -0.012334, -0.012334, -0.0201433, 23.162656, 106.19819)" fill="none" stroke-linejoin="round" d="M 2930.440233 1951.224412 C 2930.350109 1875.067873 2898.162171 1806.348095 2846.643218 1757.997558 L 2410.13708 2021.203527 C 2440.873529 2133.475121 2543.585465 2216.025493 2665.550497 2216.005066 C 2811.795702 2216.049643 2930.395656 2097.469617 2930.440233 1951.224412 Z M 2930.440233 1951.224412 " stroke="#000000" stroke-width="50" stroke-opacity="1" stroke-miterlimit="10"/></g></g></g></g><g clip-path="url(#565f0a453c)"><g clip-path="url(#6ff81ef5ed)"><g clip-path="url(#7d47e747cb)"><g clip-path="url(#cfcdf29b79)"><path fill="#ef3638" d="M 54.90625 53.265625 C 54.636719 53.519531 54.359375 53.769531 54.070312 54.007812 C 53.929688 54.128906 53.785156 54.246094 53.640625 54.367188 L 53.636719 54.367188 C 53.347656 54.601562 53.046875 54.832031 52.738281 55.050781 C 52.585938 55.164062 52.429688 55.273438 52.273438 55.378906 C 52.15625 55.460938 52.039062 55.539062 51.917969 55.621094 C 51.859375 55.660156 51.800781 55.695312 51.742188 55.734375 C 51.597656 55.824219 51.453125 55.917969 51.308594 56.003906 C 49.503906 57.109375 47.601562 57.925781 45.660156 58.464844 C 45.09375 58.019531 44.597656 57.46875 44.199219 56.816406 C 42.394531 53.871094 43.320312 50.019531 46.269531 48.214844 C 47.277344 47.597656 48.390625 47.300781 49.492188 47.296875 L 54.90625 53.265625 " fill-opacity="1" fill-rule="nonzero"/></g></g></g></g><g clip-path="url(#8708284d8e)"><g clip-path="url(#d24b649a7a)"><g clip-path="url(#26a5bdac68)"><g clip-path="url(#af5f091f7c)"><path stroke-linecap="round" transform="matrix(0.0201433, -0.012334, -0.012334, -0.0201433, 23.162656, 106.19819)" fill="none" stroke-linejoin="round" d="M 2316.430439 1209.418619 C 2301.084983 1206.209848 2285.543804 1203.314843 2269.838584 1201.102052 C 2262.083836 1199.838773 2254.274407 1198.802898 2246.378616 1197.625981 L 2246.237574 1197.712343 C 2230.618716 1195.640594 2214.663094 1193.968974 2198.684473 1192.893204 C 2190.679321 1192.171096 2182.619489 1191.676393 2174.64602 1191.322731 C 2168.601146 1190.951704 2162.642634 1190.721718 2156.456718 1190.437053 C 2153.477462 1190.32206 2150.584568 1190.34811 2147.605312 1190.233117 C 2140.400418 1190.184539 2133.109162 1189.994918 2125.990629 1190.087383 C 2036.3886 1190.071667 1949.651303 1202.652136 1867.63529 1226.110234 C 1857.029423 1254.71156 1851.294094 1285.566513 1851.330237 1317.929516 C 1851.28566 1464.174721 1969.865686 1582.774675 2116.251933 1582.732889 C 2166.286066 1582.736171 2213.046653 1568.842204 2252.906959 1544.629146 Z M 2316.430439 1209.418619 " stroke="#000000" stroke-width="50" stroke-opacity="1" stroke-miterlimit="10"/></g></g></g></g><g clip-path="url(#ab8001d5e8)"><g clip-path="url(#f08299d8fa)"><g clip-path="url(#19e57156d2)"><g clip-path="url(#2b4c07b698)"><path fill="#7dcd52" d="M 26.125 40.632812 C 25.835938 41.972656 24.519531 42.824219 23.179688 42.539062 C 21.839844 42.253906 20.988281 40.9375 21.273438 39.59375 L 26.125 40.632812 " fill-opacity="1" fill-rule="nonzero"/></g></g></g></g><g clip-path="url(#e3cfc575f3)"><g clip-path="url(#c18404499e)"><g clip-path="url(#a4535a525a)"><g clip-path="url(#861b6312a5)"><path stroke-linecap="round" transform="matrix(0.0201433, -0.012334, -0.012334, -0.0201433, 23.162656, 106.19819)" fill="none" stroke-linejoin="round" d="M 1556.525266 2301.865224 C 1516.465946 2259.878489 1450.107745 2258.235269 1408.034648 2298.153546 C 1365.96155 2338.071823 1364.31833 2404.430025 1404.32297 2446.644165 Z M 1556.525266 2301.865224 " stroke="#000000" stroke-width="50" stroke-opacity="1" stroke-miterlimit="10"/></g></g></g></g><g clip-path="url(#b39858f874)"><g clip-path="url(#5168349897)"><g clip-path="url(#60f292b482)"><g clip-path="url(#15ef167ad7)"><path fill="#7dcd52" d="M 29.105469 25.171875 C 30.429688 25.527344 31.789062 24.742188 32.140625 23.417969 C 32.496094 22.09375 31.710938 20.734375 30.386719 20.382812 L 29.105469 25.171875 " fill-opacity="1" fill-rule="nonzero"/></g></g></g></g><g clip-path="url(#30603bf66e)"><g clip-path="url(#16740a3ce9)"><g clip-path="url(#f57fa99c6b)"><g clip-path="url(#1474be2ec7)"><path stroke-linecap="round" transform="matrix(0.0201433, -0.012334, -0.012334, -0.0201433, 23.162656, 106.19819)" fill="none" stroke-linejoin="round" d="M 2005.961602 2794.216612 C 2045.916013 2752.10502 2112.357525 2750.400538 2154.469117 2790.354949 C 2196.439666 2830.395722 2198.144148 2896.837234 2158.103375 2938.807783 Z M 2005.961602 2794.216612 " stroke="#000000" stroke-width="50" stroke-opacity="1" stroke-miterlimit="10"/></g></g></g></g><g clip-path="url(#5072bce44c)"><g clip-path="url(#f758f11492)"><g clip-path="url(#dbc0075d4e)"><g clip-path="url(#fa33159e55)"><path fill="#7dcd52" d="M 44.671875 26.039062 C 45.554688 27.082031 47.121094 27.214844 48.167969 26.332031 C 49.214844 25.449219 49.347656 23.882812 48.460938 22.835938 L 44.671875 26.039062 " fill-opacity="1" fill-rule="nonzero"/></g></g></g></g><g clip-path="url(#16ca24ffe2)"><g clip-path="url(#5a6dc7e03d)"><g clip-path="url(#84a4b1b564)"><g clip-path="url(#9c7ae14423)"><path stroke-linecap="round" transform="matrix(0.0201433, -0.012334, -0.012334, -0.0201433, 23.162656, 106.19819)" fill="none" stroke-linejoin="round" d="M 2548.843006 2418.752414 C 2557.659909 2361.576281 2611.281583 2322.149656 2668.598758 2330.880197 C 2725.915934 2339.610737 2765.342559 2393.232411 2756.470976 2450.635949 Z M 2548.843006 2418.752414 " stroke="#000000" stroke-width="50" stroke-opacity="1" stroke-miterlimit="10"/></g></g></g></g><g clip-path="url(#7e9fc9de1e)"><g clip-path="url(#b01773bad6)"><g clip-path="url(#ade99d41cc)"><g clip-path="url(#c843b35f17)"><path fill="#7dcd52" d="M 40.957031 41.261719 C 40.234375 42.429688 40.59375 43.957031 41.757812 44.675781 C 42.921875 45.398438 44.453125 45.042969 45.171875 43.875 L 40.957031 41.261719 " fill-opacity="1" fill-rule="nonzero"/></g></g></g></g><g clip-path="url(#6e8508cab7)"><g clip-path="url(#77295e05d3)"><g clip-path="url(#7fcb0790ef)"><g clip-path="url(#987af81f22)"><path stroke-linecap="round" transform="matrix(0.0201433, -0.012334, -0.012334, -0.0201433, 23.162656, 106.19819)" fill="none" stroke-linejoin="round" d="M 2078.158793 1951.240676 C 2026.243702 1925.045993 2005.452035 1861.953123 2031.592038 1810.265437 C 2057.645679 1758.436709 2120.793229 1737.417637 2172.567277 1763.698683 Z M 2078.158793 1951.240676 " stroke="#000000" stroke-width="50" stroke-opacity="1" stroke-miterlimit="10"/></g></g></g></g><g clip-path="url(#c399f0b9ec)"><g clip-path="url(#c7a70ad003)"><g clip-path="url(#1a9434dadb)"><g clip-path="url(#133b880e57)"><path fill="#7dcd52" d="M 37.277344 54.753906 C 38.445312 55.464844 39.972656 55.09375 40.6875 53.925781 C 41.398438 52.753906 41.03125 51.230469 39.859375 50.519531 L 37.277344 54.753906 " fill-opacity="1" fill-rule="nonzero"/></g></g></g></g><g clip-path="url(#dd7cb2370b)"><g clip-path="url(#cf18414423)"><g clip-path="url(#f0f97411d5)"><g clip-path="url(#e8ab00acfa)"><path stroke-linecap="round" transform="matrix(0.0201433, -0.012334, -0.012334, -0.0201433, 23.162656, 106.19819)" fill="none" stroke-linejoin="round" d="M 1647.002352 1545.433443 C 1673.456122 1493.94148 1736.808077 1473.572939 1788.441083 1499.940347 C 1840.019408 1526.535159 1860.442629 1589.65971 1833.847817 1641.238035 Z M 1647.002352 1545.433443 " stroke="#000000" stroke-width="50" stroke-opacity="1" stroke-miterlimit="10"/></g></g></g></g><g clip-path="url(#4fb94c19ff)"><g clip-path="url(#0a4e1549de)"><g clip-path="url(#d8139e9661)"><g clip-path="url(#f3567b3c91)"><path fill="#000000" d="M 33.832031 33.582031 C 33.714844 33.65625 33.574219 33.6875 33.425781 33.664062 C 33.105469 33.609375 32.886719 33.304688 32.941406 32.980469 L 33.230469 31.25 C 33.285156 30.925781 33.589844 30.710938 33.910156 30.761719 C 34.234375 30.816406 34.449219 31.121094 34.398438 31.441406 L 34.105469 33.179688 C 34.078125 33.351562 33.972656 33.496094 33.832031 33.582031 " fill-opacity="1" fill-rule="nonzero"/></g></g></g></g><g clip-path="url(#28ff491019)"><g clip-path="url(#693619f61c)"><g clip-path="url(#6fef9d16fa)"><g clip-path="url(#ad6c8a5324)"><path fill="#000000" d="M 41.476562 32.339844 C 41.425781 32.371094 41.371094 32.394531 41.3125 32.40625 L 39.605469 32.835938 C 39.289062 32.914062 38.96875 32.71875 38.890625 32.40625 C 38.808594 32.089844 39.003906 31.769531 39.316406 31.691406 L 41.023438 31.261719 C 41.339844 31.183594 41.664062 31.375 41.738281 31.691406 C 41.804688 31.949219 41.691406 32.207031 41.476562 32.339844 " fill-opacity="1" fill-rule="nonzero"/></g></g></g></g><g clip-path="url(#d9fc73b370)"><g clip-path="url(#9b40410944)"><g clip-path="url(#2126520592)"><g clip-path="url(#2e66b58863)"><path fill="#000000" d="M 39.078125 30.027344 C 38.9375 30.113281 38.757812 30.140625 38.589844 30.085938 L 36.914062 29.554688 C 36.601562 29.457031 36.429688 29.125 36.527344 28.816406 C 36.625 28.5 36.960938 28.332031 37.269531 28.429688 L 38.945312 28.960938 C 39.257812 29.058594 39.429688 29.390625 39.332031 29.699219 C 39.285156 29.84375 39.195312 29.953125 39.078125 30.027344 " fill-opacity="1" fill-rule="nonzero"/></g></g></g></g><g clip-path="url(#a1f82e5e53)"><g clip-path="url(#45a57c95c4)"><g clip-path="url(#5047e77c6a)"><g clip-path="url(#b83b627d39)"><path fill="#000000" d="M 37.632812 33.726562 C 37.394531 33.871094 37.078125 33.832031 36.886719 33.617188 L 35.707031 32.3125 C 35.492188 32.070312 35.507812 31.699219 35.75 31.476562 C 35.996094 31.257812 36.367188 31.277344 36.585938 31.519531 L 37.761719 32.828125 C 37.980469 33.070312 37.960938 33.441406 37.71875 33.664062 C 37.691406 33.683594 37.664062 33.707031 37.632812 33.726562 " fill-opacity="1" fill-rule="nonzero"/></g></g></g></g><g clip-path="url(#2ac370ad54)"><g clip-path="url(#7b969e2ce3)"><g clip-path="url(#831dc80487)"><g clip-path="url(#1874b7e5ff)"><path fill="#000000" d="M 36.648438 36.699219 C 36.566406 36.746094 36.476562 36.777344 36.378906 36.785156 L 34.621094 36.886719 C 34.296875 36.90625 34.015625 36.660156 33.996094 36.335938 C 33.976562 36.011719 34.226562 35.730469 34.550781 35.710938 L 36.304688 35.605469 C 36.632812 35.585938 36.910156 35.832031 36.929688 36.160156 C 36.945312 36.382812 36.828125 36.585938 36.648438 36.699219 " fill-opacity="1" fill-rule="nonzero"/></g></g></g></g><g clip-path="url(#10a510d907)"><g clip-path="url(#c19d336a11)"><g clip-path="url(#697f5b9fef)"><g clip-path="url(#086a10ddd0)"><path fill="#000000" d="M 39.46875 37.097656 C 39.335938 37.183594 39.164062 37.207031 39 37.164062 C 38.6875 37.074219 38.503906 36.746094 38.59375 36.433594 L 39.078125 34.742188 C 39.167969 34.425781 39.492188 34.246094 39.804688 34.335938 C 40.121094 34.425781 40.300781 34.75 40.210938 35.066406 L 39.730469 36.757812 C 39.6875 36.90625 39.59375 37.023438 39.46875 37.097656 " fill-opacity="1" fill-rule="nonzero"/></g></g></g></g><g clip-path="url(#3df45f56d0)"><g clip-path="url(#04d2e186d3)"><g clip-path="url(#3a31217135)"><g clip-path="url(#2d38a5ca62)"><path fill="#000000" d="M 27.886719 49.632812 C 27.769531 49.703125 27.628906 49.738281 27.484375 49.710938 C 27.160156 49.660156 26.941406 49.355469 26.996094 49.03125 L 27.285156 47.296875 C 27.339844 46.976562 27.644531 46.761719 27.96875 46.816406 C 28.289062 46.867188 28.503906 47.171875 28.453125 47.492188 L 28.160156 49.226562 C 28.132812 49.402344 28.027344 49.546875 27.886719 49.632812 " fill-opacity="1" fill-rule="nonzero"/></g></g></g></g><g clip-path="url(#88c4e1299d)"><g clip-path="url(#813b46c545)"><g clip-path="url(#5038bfdacb)"><g clip-path="url(#ee3f0e98ba)"><path fill="#000000" d="M 35.53125 48.390625 C 35.480469 48.421875 35.425781 48.445312 35.367188 48.457031 L 33.660156 48.886719 C 33.34375 48.964844 33.023438 48.769531 32.945312 48.457031 C 32.863281 48.140625 33.058594 47.820312 33.375 47.738281 L 35.082031 47.3125 C 35.398438 47.234375 35.71875 47.425781 35.796875 47.742188 C 35.859375 47.996094 35.746094 48.257812 35.53125 48.390625 " fill-opacity="1" fill-rule="nonzero"/></g></g></g></g><g clip-path="url(#e328b9b21e)"><g clip-path="url(#fe88a3598d)"><g clip-path="url(#281cbe7941)"><g clip-path="url(#bf84c9bf45)"><path fill="#000000" d="M 33.132812 46.074219 C 32.992188 46.164062 32.816406 46.191406 32.644531 46.136719 L 30.96875 45.605469 C 30.65625 45.507812 30.484375 45.175781 30.582031 44.863281 C 30.683594 44.554688 31.015625 44.382812 31.324219 44.480469 L 33 45.011719 C 33.3125 45.109375 33.484375 45.4375 33.386719 45.753906 C 33.339844 45.894531 33.25 46.003906 33.132812 46.074219 " fill-opacity="1" fill-rule="nonzero"/></g></g></g></g><g clip-path="url(#d12424790d)"><g clip-path="url(#59fad97acd)"><g clip-path="url(#b38a673dc0)"><g clip-path="url(#fd5b2b63df)"><path fill="#000000" d="M 31.6875 49.777344 C 31.449219 49.921875 31.136719 49.882812 30.941406 49.667969 L 29.765625 48.363281 C 29.546875 48.121094 29.5625 47.746094 29.804688 47.527344 C 30.050781 47.308594 30.421875 47.332031 30.640625 47.570312 L 31.816406 48.878906 C 32.035156 49.121094 32.015625 49.492188 31.773438 49.710938 C 31.75 49.738281 31.71875 49.757812 31.6875 49.777344 " fill-opacity="1" fill-rule="nonzero"/></g></g></g></g><g clip-path="url(#daf8109902)"><g clip-path="url(#e03555e39c)"><g clip-path="url(#26f73036b4)"><g clip-path="url(#c30daa97e5)"><path fill="#000000" d="M 30.703125 52.75 C 30.625 52.800781 30.53125 52.828125 30.433594 52.832031 L 28.675781 52.9375 C 28.351562 52.960938 28.074219 52.710938 28.050781 52.386719 C 28.03125 52.0625 28.28125 51.78125 28.605469 51.761719 L 30.363281 51.65625 C 30.6875 51.636719 30.964844 51.882812 30.984375 52.210938 C 31 52.4375 30.886719 52.640625 30.703125 52.75 " fill-opacity="1" fill-rule="nonzero"/></g></g></g></g><g clip-path="url(#9038f1af73)"><g clip-path="url(#eed1590c2f)"><g clip-path="url(#a9ff17e859)"><g clip-path="url(#1cfb37be9f)"><path fill="#000000" d="M 33.527344 53.148438 C 33.390625 53.234375 33.222656 53.261719 33.054688 53.214844 C 32.742188 53.121094 32.5625 52.796875 32.648438 52.484375 L 33.132812 50.792969 C 33.222656 50.476562 33.546875 50.296875 33.859375 50.386719 C 34.175781 50.476562 34.355469 50.800781 34.269531 51.117188 L 33.785156 52.808594 C 33.742188 52.957031 33.648438 53.074219 33.527344 53.148438 " fill-opacity="1" fill-rule="nonzero"/></g></g></g></g><g clip-path="url(#ff56b1cc42)"><g clip-path="url(#1f637f0994)"><g clip-path="url(#4e5de12d7f)"><g clip-path="url(#5f99a006eb)"><path fill="#000000" d="M 46.03125 53.953125 C 45.914062 54.023438 45.773438 54.058594 45.625 54.03125 C 45.304688 53.980469 45.089844 53.675781 45.140625 53.351562 L 45.433594 51.617188 C 45.484375 51.296875 45.789062 51.078125 46.113281 51.132812 C 46.433594 51.1875 46.652344 51.492188 46.597656 51.8125 L 46.308594 53.546875 C 46.277344 53.722656 46.171875 53.867188 46.03125 53.953125 " fill-opacity="1" fill-rule="nonzero"/></g></g></g></g><g clip-path="url(#a38780731a)"><g clip-path="url(#c4317ef263)"><g clip-path="url(#63e4bbb28c)"><g clip-path="url(#00ecd7828e)"><path fill="#000000" d="M 53.675781 52.710938 C 53.628906 52.738281 53.570312 52.761719 53.511719 52.777344 L 51.804688 53.203125 C 51.492188 53.285156 51.167969 53.09375 51.089844 52.773438 C 51.011719 52.457031 51.203125 52.136719 51.519531 52.058594 L 53.222656 51.632812 C 53.542969 51.554688 53.859375 51.746094 53.941406 52.0625 C 54.003906 52.320312 53.890625 52.578125 53.675781 52.710938 " fill-opacity="1" fill-rule="nonzero"/></g></g></g></g><g clip-path="url(#2640dcfd0c)"><g clip-path="url(#a97f2e91bc)"><g clip-path="url(#c886e2b03f)"><g clip-path="url(#9618f49308)"><path fill="#000000" d="M 51.277344 50.394531 C 51.136719 50.480469 50.960938 50.507812 50.792969 50.453125 L 49.113281 49.925781 C 48.804688 49.828125 48.628906 49.496094 48.726562 49.183594 C 48.828125 48.875 49.160156 48.703125 49.46875 48.796875 L 51.144531 49.328125 C 51.457031 49.425781 51.628906 49.761719 51.53125 50.070312 C 51.488281 50.210938 51.394531 50.324219 51.277344 50.394531 " fill-opacity="1" fill-rule="nonzero"/></g></g></g></g><g clip-path="url(#644666aac1)"><g clip-path="url(#798769096e)"><g clip-path="url(#94f0235cfc)"><g clip-path="url(#522c42105d)"><path fill="#000000" d="M 49.832031 54.097656 C 49.59375 54.242188 49.28125 54.203125 49.085938 53.988281 L 47.90625 52.683594 C 47.6875 52.441406 47.710938 52.066406 47.949219 51.851562 C 48.195312 51.632812 48.566406 51.648438 48.785156 51.890625 L 49.964844 53.195312 C 50.183594 53.4375 50.160156 53.8125 49.921875 54.03125 C 49.890625 54.058594 49.863281 54.078125 49.832031 54.097656 " fill-opacity="1" fill-rule="nonzero"/></g></g></g></g><g clip-path="url(#875f369255)"><g clip-path="url(#32e54709f8)"><g clip-path="url(#657453ce90)"><g clip-path="url(#d40fe7adaa)"><path fill="#000000" d="M 48.851562 57.070312 C 48.769531 57.117188 48.675781 57.148438 48.578125 57.152344 L 46.820312 57.257812 C 46.496094 57.28125 46.214844 57.03125 46.199219 56.707031 C 46.179688 56.382812 46.425781 56.101562 46.75 56.082031 L 48.503906 55.976562 C 48.832031 55.957031 49.109375 56.203125 49.128906 56.527344 C 49.144531 56.753906 49.03125 56.957031 48.851562 57.066406 " fill-opacity="1" fill-rule="nonzero"/></g></g></g></g><g clip-path="url(#21b8fe59b0)"><g clip-path="url(#1ff01e1c86)"><g clip-path="url(#9f305e1eec)"><g clip-path="url(#ef945868df)"><path fill="#000000" d="M 52.421875 55.15625 C 52.378906 54.945312 52.226562 54.769531 52.007812 54.707031 C 51.691406 54.617188 51.363281 54.796875 51.277344 55.113281 L 50.992188 56.113281 C 51.46875 55.792969 51.945312 55.476562 52.421875 55.15625 " fill-opacity="1" fill-rule="nonzero"/></g></g></g></g><g clip-path="url(#fc55a79f70)"><g clip-path="url(#bb7efdd03d)"><g clip-path="url(#ee475bb2ff)"><g clip-path="url(#1df1606c0c)"><path fill="#000000" d="M 49.40625 34.617188 C 49.292969 34.6875 49.148438 34.71875 49.003906 34.695312 C 48.679688 34.640625 48.464844 34.339844 48.515625 34.015625 L 48.808594 32.28125 C 48.863281 31.960938 49.167969 31.742188 49.488281 31.800781 C 49.8125 31.851562 50.027344 32.15625 49.972656 32.476562 L 49.683594 34.210938 C 49.652344 34.386719 49.550781 34.53125 49.40625 34.617188 " fill-opacity="1" fill-rule="nonzero"/></g></g></g></g><g clip-path="url(#82336a9860)"><g clip-path="url(#33f1b58404)"><g clip-path="url(#4a28c99072)"><g clip-path="url(#70969a8736)"><path fill="#000000" d="M 57.050781 33.375 C 57.003906 33.40625 56.945312 33.425781 56.886719 33.441406 L 55.179688 33.867188 C 54.863281 33.949219 54.546875 33.757812 54.464844 33.441406 C 54.386719 33.121094 54.578125 32.804688 54.894531 32.722656 L 56.601562 32.296875 C 56.917969 32.21875 57.238281 32.410156 57.316406 32.726562 C 57.382812 32.984375 57.265625 33.242188 57.050781 33.375 " fill-opacity="1" fill-rule="nonzero"/></g></g></g></g><g clip-path="url(#b26278e669)"><g clip-path="url(#1ae2fbd3c3)"><g clip-path="url(#69fab218ee)"><g clip-path="url(#13f746a9e2)"><path fill="#000000" d="M 54.652344 31.058594 C 54.511719 31.144531 54.335938 31.171875 54.164062 31.121094 L 52.488281 30.589844 C 52.179688 30.492188 52.003906 30.160156 52.105469 29.847656 C 52.203125 29.539062 52.535156 29.367188 52.84375 29.464844 L 54.523438 29.992188 C 54.832031 30.089844 55.003906 30.421875 54.90625 30.734375 C 54.863281 30.875 54.769531 30.988281 54.652344 31.058594 " fill-opacity="1" fill-rule="nonzero"/></g></g></g></g><g clip-path="url(#a310f33c4b)"><g clip-path="url(#b13fe4f8f2)"><g clip-path="url(#06ffd518fb)"><g clip-path="url(#2f93715234)"><path fill="#000000" d="M 53.207031 34.761719 C 52.96875 34.90625 52.65625 34.867188 52.460938 34.652344 L 51.285156 33.347656 C 51.066406 33.105469 51.082031 32.730469 51.328125 32.511719 C 51.570312 32.292969 51.941406 32.3125 52.160156 32.554688 L 53.339844 33.863281 C 53.558594 34.105469 53.539062 34.476562 53.296875 34.695312 C 53.269531 34.722656 53.238281 34.742188 53.207031 34.761719 " fill-opacity="1" fill-rule="nonzero"/></g></g></g></g><g clip-path="url(#a86387edf4)"><g clip-path="url(#475587d30c)"><g clip-path="url(#5e142b1ce2)"><g clip-path="url(#263146a63d)"><path fill="#000000" d="M 25.007812 29.71875 C 24.960938 29.746094 24.902344 29.769531 24.839844 29.785156 L 23.136719 30.210938 C 22.820312 30.292969 22.5 30.097656 22.421875 29.78125 C 22.339844 29.464844 22.535156 29.144531 22.851562 29.066406 L 24.554688 28.640625 C 24.871094 28.5625 25.191406 28.753906 25.273438 29.070312 C 25.335938 29.328125 25.222656 29.585938 25.007812 29.71875 " fill-opacity="1" fill-rule="nonzero"/></g></g></g></g><g clip-path="url(#5a75835c0c)"><g clip-path="url(#52d06afb83)"><g clip-path="url(#b9e355e9be)"><g clip-path="url(#7527638e3f)"><path fill="#000000" d="M 22.609375 27.402344 C 22.464844 27.488281 22.292969 27.515625 22.121094 27.460938 L 20.445312 26.933594 C 20.136719 26.835938 19.960938 26.503906 20.058594 26.191406 C 20.15625 25.878906 20.488281 25.710938 20.800781 25.804688 L 22.476562 26.335938 C 22.789062 26.433594 22.960938 26.765625 22.863281 27.078125 C 22.820312 27.21875 22.726562 27.332031 22.609375 27.402344 " fill-opacity="1" fill-rule="nonzero"/></g></g></g></g><g clip-path="url(#9eee13cac8)"><g clip-path="url(#d89cd55199)"><g clip-path="url(#14fec80989)"><g clip-path="url(#ea73130000)"><path fill="#000000" d="M 21.164062 31.105469 C 20.925781 31.25 20.613281 31.210938 20.417969 30.996094 L 19.238281 29.691406 C 19.019531 29.449219 19.042969 29.074219 19.28125 28.855469 C 19.523438 28.636719 19.898438 28.65625 20.117188 28.898438 L 21.296875 30.203125 C 21.511719 30.445312 21.492188 30.820312 21.253906 31.039062 C 21.222656 31.0625 21.195312 31.085938 21.164062 31.105469 " fill-opacity="1" fill-rule="nonzero"/></g></g></g></g><g clip-path="url(#a072cc4ce8)"><g clip-path="url(#30b107cb24)"><g clip-path="url(#d9682552d1)"><g clip-path="url(#a8af4c4e84)"><path fill="#000000" d="M 20.183594 34.074219 C 20.101562 34.125 20.007812 34.15625 19.910156 34.160156 L 18.152344 34.265625 C 17.828125 34.285156 17.546875 34.039062 17.527344 33.710938 C 17.507812 33.386719 17.753906 33.109375 18.082031 33.089844 L 19.835938 32.984375 C 20.164062 32.964844 20.445312 33.210938 20.460938 33.535156 C 20.476562 33.761719 20.359375 33.964844 20.183594 34.074219 " fill-opacity="1" fill-rule="nonzero"/></g></g></g></g><g clip-path="url(#f66ac7dc4f)"><g clip-path="url(#5fc65f2797)"><g clip-path="url(#1be941b27a)"><g clip-path="url(#dc85d8d300)"><path fill="#000000" d="M 23.003906 34.476562 C 22.867188 34.558594 22.699219 34.589844 22.53125 34.539062 C 22.21875 34.449219 22.035156 34.125 22.125 33.808594 L 22.609375 32.121094 C 22.695312 31.804688 23.027344 31.625 23.335938 31.710938 C 23.652344 31.800781 23.832031 32.128906 23.742188 32.445312 L 23.261719 34.132812 C 23.21875 34.28125 23.125 34.402344 23.003906 34.476562 " fill-opacity="1" fill-rule="nonzero"/></g></g></g></g><g clip-path="url(#c61e5b5f21)"><g clip-path="url(#6466a7f1d1)"><g clip-path="url(#a3c1461cc2)"><g clip-path="url(#179520e1ee)"><path fill="#000000" d="M 37.855469 14.980469 L 37.570312 16.6875 C 37.515625 17.011719 37.734375 17.3125 38.054688 17.367188 C 38.199219 17.394531 38.339844 17.363281 38.460938 17.289062 C 38.601562 17.203125 38.703125 17.058594 38.734375 16.882812 L 39.023438 15.148438 C 39.03125 15.101562 39.03125 15.050781 39.027344 15 C 38.640625 14.976562 38.246094 14.96875 37.855469 14.980469 " fill-opacity="1" fill-rule="nonzero"/></g></g></g></g><g clip-path="url(#40de23013b)"><g clip-path="url(#f92eff9cc3)"><g clip-path="url(#77bfffeb9b)"><g clip-path="url(#fc9a69b73d)"><path fill="#000000" d="M 43.578125 15.675781 C 43.503906 15.804688 43.476562 15.960938 43.515625 16.113281 C 43.597656 16.425781 43.914062 16.617188 44.234375 16.539062 L 45.9375 16.113281 C 46 16.097656 46.054688 16.078125 46.105469 16.046875 C 46.148438 16.019531 46.183594 15.988281 46.214844 15.953125 C 45.332031 15.933594 44.453125 15.820312 43.578125 15.675781 " fill-opacity="1" fill-rule="nonzero"/></g></g></g></g><g clip-path="url(#11d075a19b)"><g clip-path="url(#71539bf4c9)"><g clip-path="url(#7e62aca58d)"><g clip-path="url(#f843f507cf)"><path fill="#000000" d="M 41.253906 15.273438 C 40.976562 15.226562 40.707031 15.1875 40.429688 15.148438 C 40.414062 15.160156 40.394531 15.167969 40.378906 15.183594 C 40.136719 15.402344 40.117188 15.777344 40.335938 16.019531 L 41.515625 17.324219 C 41.707031 17.539062 42.023438 17.578125 42.257812 17.433594 C 42.292969 17.414062 42.320312 17.390625 42.347656 17.367188 C 42.589844 17.148438 42.609375 16.777344 42.390625 16.535156 L 41.253906 15.273438 " fill-opacity="1" fill-rule="nonzero"/></g></g></g></g><g clip-path="url(#c571f3e0cc)"><g clip-path="url(#9cb4b1e43b)"><g clip-path="url(#89f5e6dd74)"><g clip-path="url(#ca6e21d48d)"><path fill="#000000" d="M 41.277344 20.40625 C 41.195312 20.457031 41.101562 20.484375 41.003906 20.488281 L 39.25 20.59375 C 38.925781 20.617188 38.644531 20.367188 38.621094 20.042969 C 38.601562 19.714844 38.851562 19.4375 39.179688 19.417969 L 40.933594 19.3125 C 41.257812 19.292969 41.539062 19.539062 41.558594 19.867188 C 41.570312 20.089844 41.457031 20.296875 41.277344 20.40625 " fill-opacity="1" fill-rule="nonzero"/></g></g></g></g><g clip-path="url(#9f42b72ace)"><g clip-path="url(#d6625bd5f6)"><g clip-path="url(#5ffd478c0c)"><g clip-path="url(#0a7688170b)"><path fill="#000000" d="M 44.097656 20.804688 C 43.960938 20.886719 43.792969 20.914062 43.628906 20.871094 C 43.3125 20.777344 43.132812 20.453125 43.222656 20.140625 L 43.703125 18.445312 C 43.792969 18.132812 44.121094 17.953125 44.433594 18.042969 C 44.746094 18.132812 44.929688 18.457031 44.835938 18.769531 L 44.355469 20.464844 C 44.316406 20.609375 44.21875 20.730469 44.097656 20.804688 " fill-opacity="1" fill-rule="nonzero"/></g></g></g></g><g fill="#e52d2d" fill-opacity="1"><g transform="translate(66.222756, 58.388531)"><g><path d="M 1.90625 -18.28125 L 8.078125 -18.28125 C 9.046875 -18.28125 9.9375 -18.128906 10.75 -17.828125 C 11.570312 -17.535156 12.273438 -17.113281 12.859375 -16.5625 C 13.453125 -16.019531 13.910156 -15.375 14.234375 -14.625 C 14.566406 -13.882812 14.734375 -13.066406 14.734375 -12.171875 C 14.734375 -11.097656 14.503906 -10.140625 14.046875 -9.296875 C 13.597656 -8.453125 12.960938 -7.753906 12.140625 -7.203125 L 16.109375 0 L 10.78125 0 L 7.75 -6.0625 L 6.546875 -6.0625 L 6.546875 0 L 1.90625 0 Z M 7.8125 -10.015625 C 8.5 -10.015625 9.050781 -10.207031 9.46875 -10.59375 C 9.882812 -10.988281 10.09375 -11.503906 10.09375 -12.140625 C 10.09375 -12.816406 9.882812 -13.347656 9.46875 -13.734375 C 9.050781 -14.128906 8.5 -14.328125 7.8125 -14.328125 L 6.546875 -14.328125 L 6.546875 -10.015625 Z M 7.8125 -10.015625 "/></g></g></g><g fill="#e52d2d" fill-opacity="1"><g transform="translate(82.598833, 58.388531)"><g><path d="M 7.640625 0.40625 C 6.679688 0.40625 5.785156 0.234375 4.953125 -0.109375 C 4.128906 -0.453125 3.410156 -0.921875 2.796875 -1.515625 C 2.191406 -2.117188 1.707031 -2.832031 1.34375 -3.65625 C 0.988281 -4.476562 0.8125 -5.351562 0.8125 -6.28125 C 0.8125 -7.226562 0.984375 -8.101562 1.328125 -8.90625 C 1.679688 -9.71875 2.164062 -10.421875 2.78125 -11.015625 C 3.40625 -11.617188 4.128906 -12.09375 4.953125 -12.4375 C 5.785156 -12.789062 6.679688 -12.96875 7.640625 -12.96875 C 8.585938 -12.96875 9.476562 -12.789062 10.3125 -12.4375 C 11.15625 -12.09375 11.878906 -11.617188 12.484375 -11.015625 C 13.097656 -10.421875 13.582031 -9.710938 13.9375 -8.890625 C 14.289062 -8.078125 14.46875 -7.207031 14.46875 -6.28125 C 14.46875 -5.351562 14.296875 -4.476562 13.953125 -3.65625 C 13.609375 -2.832031 13.125 -2.117188 12.5 -1.515625 C 11.882812 -0.921875 11.160156 -0.453125 10.328125 -0.109375 C 9.503906 0.234375 8.609375 0.40625 7.640625 0.40625 Z M 7.640625 -3.625 C 8.410156 -3.625 9.019531 -3.863281 9.46875 -4.34375 C 9.925781 -4.832031 10.15625 -5.488281 10.15625 -6.3125 C 10.15625 -7.09375 9.925781 -7.722656 9.46875 -8.203125 C 9.019531 -8.679688 8.410156 -8.921875 7.640625 -8.921875 C 6.878906 -8.921875 6.269531 -8.679688 5.8125 -8.203125 C 5.351562 -7.722656 5.125 -7.09375 5.125 -6.3125 C 5.125 -5.488281 5.351562 -4.832031 5.8125 -4.34375 C 6.269531 -3.863281 6.878906 -3.625 7.640625 -3.625 Z M 7.640625 -3.625 "/></g></g></g><g fill="#e52d2d" fill-opacity="1"><g transform="translate(97.883173, 58.388531)"><g><path d="M 1.359375 -12.5625 L 5.453125 -12.5625 L 5.453125 -10.96875 C 5.890625 -11.601562 6.410156 -12.09375 7.015625 -12.4375 C 7.617188 -12.789062 8.285156 -12.96875 9.015625 -12.96875 C 9.828125 -12.96875 10.566406 -12.765625 11.234375 -12.359375 C 11.898438 -11.960938 12.441406 -11.421875 12.859375 -10.734375 C 13.347656 -11.421875 13.945312 -11.960938 14.65625 -12.359375 C 15.363281 -12.765625 16.140625 -12.96875 16.984375 -12.96875 C 17.640625 -12.96875 18.253906 -12.832031 18.828125 -12.5625 C 19.398438 -12.300781 19.898438 -11.941406 20.328125 -11.484375 C 20.753906 -11.035156 21.082031 -10.492188 21.3125 -9.859375 C 21.550781 -9.222656 21.671875 -8.539062 21.671875 -7.8125 L 21.671875 0 L 17.421875 0 L 17.421875 -6.71875 C 17.421875 -7.445312 17.25 -8.023438 16.90625 -8.453125 C 16.570312 -8.890625 16.113281 -9.109375 15.53125 -9.109375 C 14.945312 -9.109375 14.484375 -8.878906 14.140625 -8.421875 C 13.804688 -7.972656 13.640625 -7.367188 13.640625 -6.609375 L 13.640625 0 L 9.390625 0 L 9.390625 -6.71875 C 9.390625 -7.445312 9.21875 -8.023438 8.875 -8.453125 C 8.539062 -8.890625 8.082031 -9.109375 7.5 -9.109375 C 6.925781 -9.109375 6.46875 -8.878906 6.125 -8.421875 C 5.789062 -7.972656 5.625 -7.367188 5.625 -6.609375 L 5.625 0 L 1.359375 0 Z M 1.359375 -12.5625 "/></g></g></g><g fill="#e52d2d" fill-opacity="1"><g transform="translate(120.782381, 58.388531)"><g><path d="M 4.96875 0.40625 C 4.332031 0.40625 3.753906 0.304688 3.234375 0.109375 C 2.710938 -0.0859375 2.257812 -0.363281 1.875 -0.71875 C 1.5 -1.070312 1.207031 -1.488281 1 -1.96875 C 0.789062 -2.457031 0.6875 -2.984375 0.6875 -3.546875 C 0.6875 -4.171875 0.8125 -4.738281 1.0625 -5.25 C 1.320312 -5.769531 1.675781 -6.21875 2.125 -6.59375 C 2.582031 -6.976562 3.125 -7.273438 3.75 -7.484375 C 4.375 -7.703125 5.070312 -7.8125 5.84375 -7.8125 C 6.425781 -7.8125 6.972656 -7.742188 7.484375 -7.609375 C 7.992188 -7.484375 8.445312 -7.300781 8.84375 -7.0625 L 8.84375 -7.171875 C 8.84375 -7.847656 8.609375 -8.394531 8.140625 -8.8125 C 7.679688 -9.226562 7.109375 -9.4375 6.421875 -9.4375 C 5.941406 -9.4375 5.484375 -9.320312 5.046875 -9.09375 C 4.609375 -8.875 4.238281 -8.554688 3.9375 -8.140625 L 1.46875 -11.03125 C 2.269531 -11.71875 3.109375 -12.210938 3.984375 -12.515625 C 4.859375 -12.816406 5.878906 -12.96875 7.046875 -12.96875 C 7.929688 -12.96875 8.75 -12.820312 9.5 -12.53125 C 10.25 -12.238281 10.882812 -11.832031 11.40625 -11.3125 C 11.9375 -10.789062 12.351562 -10.171875 12.65625 -9.453125 C 12.957031 -8.734375 13.109375 -7.945312 13.109375 -7.09375 L 13.109375 0 L 8.84375 0 L 8.84375 -1.25 C 8.257812 -0.59375 7.675781 -0.15625 7.09375 0.0625 C 6.507812 0.289062 5.800781 0.40625 4.96875 0.40625 Z M 6.53125 -2.59375 C 7.175781 -2.59375 7.710938 -2.769531 8.140625 -3.125 C 8.578125 -3.476562 8.8125 -3.921875 8.84375 -4.453125 C 8.445312 -4.679688 8.066406 -4.847656 7.703125 -4.953125 C 7.347656 -5.054688 7 -5.109375 6.65625 -5.109375 C 6.132812 -5.109375 5.710938 -4.992188 5.390625 -4.765625 C 5.066406 -4.535156 4.90625 -4.222656 4.90625 -3.828125 C 4.90625 -3.441406 5.050781 -3.140625 5.34375 -2.921875 C 5.632812 -2.703125 6.03125 -2.59375 6.53125 -2.59375 Z M 6.53125 -2.59375 "/></g></g></g><g fill="#e52d2d" fill-opacity="1"><g transform="translate(135.111445, 58.388531)"><g><path d="M 1.359375 -12.5625 L 5.453125 -12.5625 L 5.453125 -10.96875 C 5.890625 -11.601562 6.410156 -12.09375 7.015625 -12.4375 C 7.617188 -12.789062 8.285156 -12.96875 9.015625 -12.96875 C 9.660156 -12.96875 10.269531 -12.832031 10.84375 -12.5625 C 11.414062 -12.300781 11.90625 -11.9375 12.3125 -11.46875 C 12.726562 -11.007812 13.050781 -10.46875 13.28125 -9.84375 C 13.519531 -9.21875 13.640625 -8.539062 13.640625 -7.8125 L 13.640625 0 L 9.390625 0 L 9.390625 -6.71875 C 9.390625 -7.445312 9.21875 -8.023438 8.875 -8.453125 C 8.539062 -8.890625 8.082031 -9.109375 7.5 -9.109375 C 6.925781 -9.109375 6.46875 -8.878906 6.125 -8.421875 C 5.789062 -7.972656 5.625 -7.367188 5.625 -6.609375 L 5.625 0 L 1.359375 0 Z M 1.359375 -12.5625 "/></g></g></g><g fill="#e52d2d" fill-opacity="1"><g transform="translate(149.986381, 58.388531)"><g><path d="M 7.640625 0.40625 C 6.679688 0.40625 5.785156 0.234375 4.953125 -0.109375 C 4.128906 -0.453125 3.410156 -0.921875 2.796875 -1.515625 C 2.191406 -2.117188 1.707031 -2.832031 1.34375 -3.65625 C 0.988281 -4.476562 0.8125 -5.351562 0.8125 -6.28125 C 0.8125 -7.226562 0.984375 -8.101562 1.328125 -8.90625 C 1.679688 -9.71875 2.164062 -10.421875 2.78125 -11.015625 C 3.40625 -11.617188 4.128906 -12.09375 4.953125 -12.4375 C 5.785156 -12.789062 6.679688 -12.96875 7.640625 -12.96875 C 8.585938 -12.96875 9.476562 -12.789062 10.3125 -12.4375 C 11.15625 -12.09375 11.878906 -11.617188 12.484375 -11.015625 C 13.097656 -10.421875 13.582031 -9.710938 13.9375 -8.890625 C 14.289062 -8.078125 14.46875 -7.207031 14.46875 -6.28125 C 14.46875 -5.351562 14.296875 -4.476562 13.953125 -3.65625 C 13.609375 -2.832031 13.125 -2.117188 12.5 -1.515625 C 11.882812 -0.921875 11.160156 -0.453125 10.328125 -0.109375 C 9.503906 0.234375 8.609375 0.40625 7.640625 0.40625 Z M 7.640625 -3.625 C 8.410156 -3.625 9.019531 -3.863281 9.46875 -4.34375 C 9.925781 -4.832031 10.15625 -5.488281 10.15625 -6.3125 C 10.15625 -7.09375 9.925781 -7.722656 9.46875 -8.203125 C 9.019531 -8.679688 8.410156 -8.921875 7.640625 -8.921875 C 6.878906 -8.921875 6.269531 -8.679688 5.8125 -8.203125 C 5.351562 -7.722656 5.125 -7.09375 5.125 -6.3125 C 5.125 -5.488281 5.351562 -4.832031 5.8125 -4.34375 C 6.269531 -3.863281 6.878906 -3.625 7.640625 -3.625 Z M 7.640625 -3.625 "/></g></g></g><g fill="#e52d2d" fill-opacity="1"><g transform="translate(165.270721, 58.388531)"><g><path d="M 6.421875 0.40625 C 5.234375 0.40625 4.113281 0.222656 3.0625 -0.140625 C 2.019531 -0.515625 1.132812 -1.039062 0.40625 -1.71875 L 2.484375 -4.53125 C 3.117188 -3.988281 3.796875 -3.5625 4.515625 -3.25 C 5.234375 -2.9375 5.90625 -2.78125 6.53125 -2.78125 C 6.945312 -2.78125 7.265625 -2.847656 7.484375 -2.984375 C 7.710938 -3.117188 7.828125 -3.296875 7.828125 -3.515625 C 7.828125 -3.796875 7.628906 -4.019531 7.234375 -4.1875 C 6.847656 -4.363281 6.144531 -4.5625 5.125 -4.78125 C 3.851562 -5.050781 2.878906 -5.523438 2.203125 -6.203125 C 1.535156 -6.890625 1.203125 -7.734375 1.203125 -8.734375 C 1.203125 -9.347656 1.328125 -9.914062 1.578125 -10.4375 C 1.835938 -10.957031 2.203125 -11.40625 2.671875 -11.78125 C 3.148438 -12.15625 3.71875 -12.445312 4.375 -12.65625 C 5.039062 -12.863281 5.773438 -12.96875 6.578125 -12.96875 C 7.578125 -12.96875 8.546875 -12.804688 9.484375 -12.484375 C 10.421875 -12.171875 11.269531 -11.722656 12.03125 -11.140625 L 10.078125 -8.25 C 9.347656 -8.820312 8.707031 -9.234375 8.15625 -9.484375 C 7.613281 -9.742188 7.078125 -9.875 6.546875 -9.875 C 5.804688 -9.875 5.4375 -9.648438 5.4375 -9.203125 C 5.4375 -9.078125 5.472656 -8.960938 5.546875 -8.859375 C 5.628906 -8.753906 5.773438 -8.648438 5.984375 -8.546875 C 6.203125 -8.453125 6.488281 -8.347656 6.84375 -8.234375 C 7.195312 -8.128906 7.632812 -8.015625 8.15625 -7.890625 C 9.46875 -7.554688 10.457031 -7.046875 11.125 -6.359375 C 11.800781 -5.679688 12.140625 -4.84375 12.140625 -3.84375 C 12.140625 -3.207031 12.003906 -2.625 11.734375 -2.09375 C 11.460938 -1.570312 11.078125 -1.125 10.578125 -0.75 C 10.078125 -0.375 9.472656 -0.0859375 8.765625 0.109375 C 8.054688 0.304688 7.273438 0.40625 6.421875 0.40625 Z M 6.421875 0.40625 "/></g></g></g></svg>